ScienceGothic-BlkCndCtr.ufo
<glyph name="exclam" format="2">
  <advance width="714"/>
  <unicode hex="0021"/>
  <outline>
    <contour>
      <point x="72" y="135" type="line" smooth="yes"/>
      <point x="72" y="44.448"/>
      <point x="122.448" y="-6"/>
      <point x="213" y="-6" type="qcurve" smooth="yes"/>
      <point x="501" y="-6" type="line" smooth="yes"/>
      <point x="591" y="-6"/>
      <point x="642" y="45"/>
      <point x="642" y="135" type="qcurve" smooth="yes"/>
      <point x="642" y="224" type="line" smooth="yes"/>
      <point x="642" y="313.797"/>
      <point x="590.552" y="364"/>
      <point x="500" y="364" type="qcurve" smooth="yes"/>
      <point x="213" y="364" type="line" smooth="yes"/>
      <point x="123" y="364"/>
      <point x="72" y="313.75"/>
      <point x="72" y="226" type="qcurve" smooth="yes"/>
    </contour>
    <contour>
      <point x="339" y="462" type="line"/>
      <point x="375" y="462" type="line"/>
      <point x="642" y="1400" type="line"/>
      <point x="72" y="1400" type="line"/>
    </contour>
  </outline>
</glyph>
<glyph name="numbersign" format="2">
  <advance width="874"/>
  <unicode hex="0023"/>
  <outline>
    <contour>
      <point x="50" y="224" type="line"/>
      <point x="755" y="224" type="line"/>
      <point x="786" y="636" type="line"/>
      <point x="81" y="636" type="line"/>
    </contour>
    <contour>
      <point x="88" y="765" type="line"/>
      <point x="793" y="765" type="line"/>
      <point x="824" y="1177" type="line"/>
      <point x="119" y="1177" type="line"/>
    </contour>
    <contour>
      <point x="219" y="0" type="line"/>
      <point x="251" y="0" type="line"/>
      <point x="351" y="1400" type="line"/>
      <point x="319" y="1400" type="line"/>
    </contour>
    <contour>
      <point x="522" y="0" type="line"/>
      <point x="554" y="0" type="line"/>
      <point x="654" y="1400" type="line"/>
      <point x="622" y="1400" type="line"/>
    </contour>
  </outline>
  <guideline angle="0" x="0" y="334"/>
  <guideline angle="0" x="0" y="875"/>
</glyph>
<glyph name="percent" format="2">
  <advance width="1729"/>
  <unicode hex="0025"/>
  <outline>
    <contour>
      <point x="293" y="614" type="qcurve" smooth="yes"/>
      <point x="509" y="614" type="line" smooth="yes"/>
      <point x="620" y="614"/>
      <point x="740" y="692"/>
      <point x="740" y="808" type="qcurve" smooth="yes"/>
      <point x="740" y="1223" type="line" smooth="yes"/>
      <point x="740" y="1336"/>
      <point x="615" y="1410"/>
      <point x="509" y="1410" type="qcurve" smooth="yes"/>
      <point x="293" y="1410" type="line" smooth="yes"/>
      <point x="187" y="1410"/>
      <point x="64" y="1336"/>
      <point x="64" y="1223" type="qcurve" smooth="yes"/>
      <point x="64" y="808" type="line" smooth="yes"/>
      <point x="64" y="693"/>
      <point x="182" y="614"/>
    </contour>
    <contour>
      <point x="358" y="644" type="line"/>
      <point x="358" y="644"/>
      <point x="358" y="644"/>
      <point x="358" y="644" type="qcurve"/>
      <point x="358" y="1380" type="line"/>
      <point x="358" y="1380"/>
      <point x="358" y="1380"/>
      <point x="358" y="1380" type="qcurve"/>
      <point x="446" y="1380" type="line"/>
      <point x="446" y="1380"/>
      <point x="446" y="1380"/>
      <point x="446" y="1380" type="qcurve"/>
      <point x="446" y="644" type="line"/>
      <point x="446" y="644"/>
      <point x="446" y="644"/>
      <point x="446" y="644" type="qcurve"/>
    </contour>
    <contour>
      <point x="1150" y="1400" type="line"/>
      <point x="546" y="0" type="line"/>
      <point x="579" y="0" type="line"/>
      <point x="1183" y="1400" type="line"/>
    </contour>
    <contour>
      <point x="1218" y="-6" type="qcurve" smooth="yes"/>
      <point x="1434" y="-6" type="line" smooth="yes"/>
      <point x="1545" y="-6"/>
      <point x="1665" y="72"/>
      <point x="1665" y="188" type="qcurve" smooth="yes"/>
      <point x="1665" y="603" type="line" smooth="yes"/>
      <point x="1665" y="716"/>
      <point x="1540" y="790"/>
      <point x="1434" y="790" type="qcurve" smooth="yes"/>
      <point x="1218" y="790" type="line" smooth="yes"/>
      <point x="1112" y="790"/>
      <point x="989" y="716"/>
      <point x="989" y="603" type="qcurve" smooth="yes"/>
      <point x="989" y="188" type="line" smooth="yes"/>
      <point x="989" y="73"/>
      <point x="1107" y="-6"/>
    </contour>
    <contour>
      <point x="1283" y="24" type="line"/>
      <point x="1283" y="24"/>
      <point x="1283" y="24"/>
      <point x="1283" y="24" type="qcurve"/>
      <point x="1283" y="760" type="line"/>
      <point x="1283" y="760"/>
      <point x="1283" y="760"/>
      <point x="1283" y="760" type="qcurve"/>
      <point x="1371" y="760" type="line"/>
      <point x="1371" y="760"/>
      <point x="1371" y="760"/>
      <point x="1371" y="760" type="qcurve"/>
      <point x="1371" y="24" type="line"/>
      <point x="1371" y="24"/>
      <point x="1371" y="24"/>
      <point x="1371" y="24" type="qcurve"/>
    </contour>
  </outline>
</glyph>
<glyph name="ampersand" format="2">
  <advance width="1592"/>
  <unicode hex="0026"/>
  <outline>
    <contour>
      <point x="241" y="-10" type="qcurve" smooth="yes"/>
      <point x="520" y="-10" type="line" smooth="yes"/>
      <point x="564" y="-10"/>
      <point x="646" y="5"/>
      <point x="728" y="41"/>
      <point x="813" y="100"/>
      <point x="861" y="144" type="qcurve" smooth="yes"/>
      <point x="887" y="168" type="line"/>
      <point x="1018" y="0" type="line"/>
      <point x="1592" y="0" type="line"/>
      <point x="1212" y="477" type="line"/>
      <point x="1492" y="733" type="line"/>
      <point x="1467" y="759" type="line"/>
      <point x="1189" y="504" type="line"/>
      <point x="778" y="1022" type="line"/>
      <point x="778" y="1022"/>
      <point x="778" y="1022"/>
      <point x="778" y="1022" type="qcurve"/>
      <point x="778" y="1378" type="line"/>
      <point x="778" y="1378"/>
      <point x="778" y="1378"/>
      <point x="778" y="1378" type="qcurve"/>
      <point x="887" y="1378" type="line"/>
      <point x="887" y="1378"/>
      <point x="887" y="1378"/>
      <point x="887" y="1378" type="qcurve"/>
      <point x="887" y="1022" type="line"/>
      <point x="1322" y="1076" type="line"/>
      <point x="1322" y="1139" type="line" smooth="yes"/>
      <point x="1322" y="1272"/>
      <point x="1146" y="1414"/>
      <point x="981" y="1414" type="qcurve" smooth="yes"/>
      <point x="623" y="1414" type="line" smooth="yes"/>
      <point x="469" y="1414"/>
      <point x="309" y="1258"/>
      <point x="309" y="1109" type="qcurve" smooth="yes"/>
      <point x="309" y="1071" type="line" smooth="yes"/>
      <point x="309" y="1019"/>
      <point x="323" y="935"/>
      <point x="356" y="857"/>
      <point x="408" y="776"/>
      <point x="447" y="727" type="qcurve"/>
      <point x="126" y="475" type="line" smooth="yes"/>
      <point x="67" y="428"/>
      <point x="20" y="329"/>
      <point x="20" y="251" type="qcurve" smooth="yes"/>
      <point x="20" y="213" type="line" smooth="yes"/>
      <point x="20" y="159"/>
      <point x="49" y="75"/>
      <point x="105" y="19"/>
      <point x="187" y="-10"/>
    </contour>
    <contour>
      <point x="466" y="26" type="line"/>
      <point x="466" y="26"/>
      <point x="466" y="26"/>
      <point x="466" y="26" type="qcurve"/>
      <point x="466" y="698" type="line"/>
      <point x="466" y="698"/>
      <point x="466" y="698"/>
      <point x="466" y="698" type="qcurve"/>
      <point x="466" y="698" type="line"/>
      <point x="864" y="195" type="line"/>
      <point x="834" y="168" type="line" smooth="yes"/>
      <point x="733" y="77"/>
      <point x="592" y="26"/>
      <point x="520" y="26" type="qcurve" smooth="yes"/>
    </contour>
  </outline>
</glyph>
<glyph name="parenleft" format="2">
  <advance width="655"/>
  <unicode hex="0028"/>
  <outline>
    <contour>
      <point x="651" y="-256" type="line"/>
      <point x="603" y="-256" type="line"/>
      <point x="478" y="-182"/>
      <point x="273" y="3"/>
      <point x="128" y="223"/>
      <point x="48" y="478"/>
      <point x="48" y="622" type="qcurve" smooth="yes"/>
      <point x="48" y="766"/>
      <point x="128" y="1021"/>
      <point x="273" y="1242"/>
      <point x="478" y="1426"/>
      <point x="603" y="1500" type="qcurve"/>
      <point x="651" y="1500" type="line"/>
      <point x="606" y="1467"/>
      <point x="544" y="1412"/>
      <point x="504" y="1340"/>
      <point x="482" y="1232"/>
      <point x="472" y="1060"/>
      <point x="470" y="806"/>
      <point x="470" y="622" type="qcurve" smooth="yes"/>
      <point x="470" y="439"/>
      <point x="472" y="184"/>
      <point x="482" y="12"/>
      <point x="504" y="-96"/>
      <point x="544" y="-168"/>
      <point x="606" y="-222"/>
      <point x="651" y="-256" type="qcurve"/>
    </contour>
  </outline>
</glyph>
<glyph name="parenright" format="2">
  <advance width="655"/>
  <unicode hex="0029"/>
  <outline>
    <contour>
      <point x="48" y="1500" type="line"/>
      <point x="115.875" y="1449.75"/>
      <point x="189.406" y="1369.25"/>
      <point x="223.344" y="1202.75"/>
      <point x="229" y="897.25"/>
      <point x="229" y="622" type="qcurve" smooth="yes"/>
      <point x="229" y="346.75"/>
      <point x="223.344" y="41.25"/>
      <point x="189.406" y="-125.25"/>
      <point x="115.875" y="-205.75"/>
      <point x="48" y="-256" type="qcurve"/>
      <point x="96" y="-256" type="line"/>
      <point x="220.875" y="-182.125"/>
      <point x="425.531" y="2.4375"/>
      <point x="571.219" y="222.562"/>
      <point x="651" y="477.625"/>
      <point x="651" y="622" type="qcurve" smooth="yes"/>
      <point x="651" y="912.521"/>
      <point x="347.282" y="1350.59"/>
      <point x="96" y="1500" type="qcurve"/>
    </contour>
  </outline>
</glyph>
<glyph name="asterisk" format="2">
  <advance width="744"/>
  <unicode hex="002A"/>
  <outline>
    <contour>
      <point x="284" y="903" type="line"/>
      <point x="460" y="903" type="line"/>
      <point x="389" y="1159" type="line"/>
      <point x="580" y="964" type="line"/>
      <point x="672" y="1100" type="line"/>
      <point x="401" y="1188" type="line"/>
      <point x="672" y="1278" type="line"/>
      <point x="583" y="1411" type="line"/>
      <point x="389" y="1217" type="line"/>
      <point x="460" y="1472" type="line"/>
      <point x="284" y="1472" type="line"/>
      <point x="355" y="1217" type="line"/>
      <point x="164" y="1411" type="line"/>
      <point x="72" y="1275" type="line"/>
      <point x="343" y="1188" type="line"/>
      <point x="72" y="1096" type="line"/>
      <point x="161" y="964" type="line"/>
      <point x="355" y="1159" type="line"/>
    </contour>
  </outline>
</glyph>
<glyph name="plus" format="2">
  <advance width="590"/>
  <unicode hex="002B"/>
  <outline>
    <contour>
      <point x="538" y="605" type="line"/>
      <point x="315" y="605" type="line"/>
      <point x="315" y="927" type="line"/>
      <point x="275" y="927" type="line"/>
      <point x="275" y="605" type="line"/>
      <point x="52" y="605" type="line"/>
      <point x="52" y="569" type="line"/>
      <point x="275" y="569" type="line"/>
      <point x="275" y="241" type="line"/>
      <point x="315" y="241" type="line"/>
      <point x="315" y="569" type="line"/>
      <point x="538" y="569" type="line"/>
    </contour>
  </outline>
</glyph>
<glyph name="hyphen" format="2">
  <advance width="692"/>
  <unicode hex="002D"/>
  <outline>
    <contour>
      <point x="56" y="628" type="line"/>
      <point x="56" y="596" type="line"/>
      <point x="636" y="596" type="line"/>
      <point x="636" y="628" type="line"/>
    </contour>
  </outline>
  <guideline angle="0" x="0" y="612"/>
</glyph>
<glyph name="period" format="2">
  <advance width="674"/>
  <unicode hex="002E"/>
  <outline>
    <contour>
      <point x="72" y="135" type="line" smooth="yes"/>
      <point x="72" y="44.448"/>
      <point x="122.448" y="-6"/>
      <point x="213" y="-6" type="qcurve" smooth="yes"/>
      <point x="461" y="-6" type="line" smooth="yes"/>
      <point x="551" y="-6"/>
      <point x="602" y="45"/>
      <point x="602" y="135" type="qcurve" smooth="yes"/>
      <point x="602" y="384" type="line" smooth="yes"/>
      <point x="602" y="473.797"/>
      <point x="550.552" y="524"/>
      <point x="460" y="524" type="qcurve" smooth="yes"/>
      <point x="213" y="524" type="line" smooth="yes"/>
      <point x="123" y="524"/>
      <point x="72" y="473.75"/>
      <point x="72" y="386" type="qcurve" smooth="yes"/>
    </contour>
  </outline>
</glyph>
<glyph name="zero" format="2">
  <advance width="1404"/>
  <unicode hex="0030"/>
  <outline>
    <contour>
      <point x="492" y="-10" type="qcurve" smooth="yes"/>
      <point x="910" y="-10" type="line" smooth="yes"/>
      <point x="1109.21" y="-10"/>
      <point x="1324" y="127.73"/>
      <point x="1324" y="336" type="qcurve" smooth="yes"/>
      <point x="1324" y="1076" type="line" smooth="yes"/>
      <point x="1324" y="1277"/>
      <point x="1099" y="1410"/>
      <point x="910" y="1410" type="qcurve" smooth="yes"/>
      <point x="492" y="1410" type="line" smooth="yes"/>
      <point x="303" y="1410"/>
      <point x="80" y="1277"/>
      <point x="80" y="1076" type="qcurve" smooth="yes"/>
      <point x="80" y="336" type="line" smooth="yes"/>
      <point x="80" y="129.24"/>
      <point x="292.786" y="-10"/>
    </contour>
    <contour>
      <point x="652" y="26" type="line"/>
      <point x="652" y="26"/>
      <point x="652" y="26"/>
      <point x="652" y="26" type="qcurve"/>
      <point x="652" y="1374" type="line"/>
      <point x="652" y="1374"/>
      <point x="652" y="1374"/>
      <point x="652" y="1374" type="qcurve"/>
      <point x="752" y="1374" type="line"/>
      <point x="752" y="1374"/>
      <point x="752" y="1374"/>
      <point x="752" y="1374" type="qcurve"/>
      <point x="752" y="26" type="line"/>
      <point x="752" y="26"/>
      <point x="752" y="26"/>
      <point x="752" y="26" type="qcurve"/>
    </contour>
  </outline>
</glyph>
<glyph name="two" format="2">
  <advance width="1369"/>
  <unicode hex="0032"/>
  <outline>
    <contour>
      <point x="80" y="0" type="line"/>
      <point x="895" y="0" type="line" smooth="yes"/>
      <point x="1085.5" y="0"/>
      <point x="1305" y="130.5"/>
      <point x="1305" y="342" type="qcurve" smooth="yes"/>
      <point x="1305" y="402" type="line"/>
      <point x="759" y="498" type="line"/>
      <point x="759" y="32" type="line"/>
      <point x="759" y="32"/>
      <point x="759" y="32"/>
      <point x="759" y="32" type="qcurve"/>
      <point x="617" y="32" type="line"/>
      <point x="617" y="639" type="line"/>
      <point x="617" y="639"/>
      <point x="617" y="639"/>
      <point x="617" y="639" type="qcurve"/>
      <point x="865" y="703" type="line" smooth="yes"/>
      <point x="990.25" y="735.25"/>
      <point x="1149.69" y="805.656"/>
      <point x="1240.81" y="895.094"/>
      <point x="1275" y="1010.12"/>
      <point x="1275" y="1087" type="qcurve" smooth="yes"/>
      <point x="1275" y="1108" type="line" smooth="yes"/>
      <point x="1275" y="1196.5"/>
      <point x="1213.62" y="1313"/>
      <point x="1103.38" y="1382"/>
      <point x="950.5" y="1410"/>
      <point x="859" y="1410" type="qcurve" smooth="yes"/>
      <point x="499" y="1410" type="line" smooth="yes"/>
      <point x="407.5" y="1410"/>
      <point x="256.5" y="1384.56"/>
      <point x="148.5" y="1312.94"/>
      <point x="89" y="1184.75"/>
      <point x="89" y="1082" type="qcurve" smooth="yes"/>
      <point x="89" y="998" type="line"/>
      <point x="610" y="902" type="line"/>
      <point x="610" y="1374" type="line"/>
      <point x="610" y="1374"/>
      <point x="610" y="1374"/>
      <point x="610" y="1374" type="qcurve"/>
      <point x="754" y="1374" type="line"/>
      <point x="754" y="1374"/>
      <point x="754" y="1374"/>
      <point x="754" y="1374" type="qcurve"/>
      <point x="754" y="711" type="line"/>
      <point x="754" y="711"/>
      <point x="753" y="711"/>
      <point x="753" y="711" type="qcurve"/>
      <point x="364" y="611" type="line" smooth="yes"/>
      <point x="232.75" y="577.25"/>
      <point x="80" y="374.5"/>
      <point x="80" y="205" type="qcurve" smooth="yes"/>
    </contour>
  </outline>
</glyph>
<glyph name="three" format="2">
  <advance width="1382"/>
  <unicode hex="0033"/>
  <outline>
    <contour>
      <point x="80" y="391" type="line"/>
      <point x="80" y="310" type="line" smooth="yes"/>
      <point x="80" y="120"/>
      <point x="287" y="-10"/>
      <point x="468" y="-10" type="qcurve" smooth="yes"/>
      <point x="894" y="-10" type="line" smooth="yes"/>
      <point x="986" y="-10"/>
      <point x="1136" y="22"/>
      <point x="1243" y="98"/>
      <point x="1302" y="225"/>
      <point x="1302" y="320" type="qcurve" smooth="yes"/>
      <point x="1302" y="408" type="line" smooth="yes"/>
      <point x="1302" y="566"/>
      <point x="1183" y="708"/>
      <point x="1056" y="720" type="qcurve"/>
      <point x="1175" y="741"/>
      <point x="1282" y="877"/>
      <point x="1282" y="1014" type="qcurve" smooth="yes"/>
      <point x="1282" y="1092" type="line" smooth="yes"/>
      <point x="1282" y="1169"/>
      <point x="1234" y="1287"/>
      <point x="1138" y="1368"/>
      <point x="992" y="1410"/>
      <point x="894" y="1410" type="qcurve" smooth="yes"/>
      <point x="470" y="1410" type="line" smooth="yes"/>
      <point x="372" y="1410"/>
      <point x="226" y="1371"/>
      <point x="130" y="1294"/>
      <point x="82" y="1179"/>
      <point x="82" y="1102" type="qcurve" smooth="yes"/>
      <point x="82" y="1031" type="line"/>
      <point x="614" y="940" type="line"/>
      <point x="614" y="1374" type="line"/>
      <point x="614" y="1374"/>
      <point x="614" y="1374"/>
      <point x="614" y="1374" type="qcurve"/>
      <point x="664" y="1374" type="line" smooth="yes"/>
      <point x="700" y="1374"/>
      <point x="750" y="1335"/>
      <point x="750" y="1283" type="qcurve" smooth="yes"/>
      <point x="750" y="811" type="line" smooth="yes"/>
      <point x="750" y="769"/>
      <point x="719" y="736"/>
      <point x="695" y="736" type="qcurve" smooth="yes"/>
      <point x="622" y="736" type="line"/>
      <point x="622" y="700" type="line"/>
      <point x="695" y="700" type="line" smooth="yes"/>
      <point x="722" y="700"/>
      <point x="768" y="654"/>
      <point x="768" y="594" type="qcurve" smooth="yes"/>
      <point x="768" y="112" type="line" smooth="yes"/>
      <point x="768" y="55"/>
      <point x="713" y="26"/>
      <point x="672" y="26" type="qcurve" smooth="yes"/>
      <point x="612" y="26" type="line"/>
      <point x="612" y="26"/>
      <point x="612" y="26"/>
      <point x="612" y="26" type="qcurve"/>
      <point x="612" y="482" type="line"/>
    </contour>
  </outline>
</glyph>
<glyph name="five" format="2">
  <advance width="1072"/>
  <unicode hex="0035"/>
  <outline>
    <contour>
      <point x="404" y="-12" type="line"/>
      <point x="328" y="-12"/>
      <point x="208" y="0"/>
      <point x="115" y="18"/>
      <point x="49" y="38"/>
      <point x="28" y="46" type="qcurve"/>
      <point x="14" y="92" type="line"/>
      <point x="35" y="82"/>
      <point x="87" y="64"/>
      <point x="144" y="49"/>
      <point x="203" y="37"/>
      <point x="258" y="29"/>
      <point x="305" y="24"/>
      <point x="322" y="24" type="qcurve" smooth="yes"/>
      <point x="359" y="24"/>
      <point x="419" y="56"/>
      <point x="462" y="143"/>
      <point x="486" y="295"/>
      <point x="486" y="414" type="qcurve" smooth="yes"/>
      <point x="486" y="514"/>
      <point x="473" y="647"/>
      <point x="441" y="726"/>
      <point x="386" y="759"/>
      <point x="345" y="759" type="qcurve" smooth="yes"/>
      <point x="313" y="759"/>
      <point x="231" y="745"/>
      <point x="144" y="720"/>
      <point x="56" y="685"/>
      <point x="18" y="664" type="qcurve"/>
      <point x="78" y="1400" type="line"/>
      <point x="900" y="1400" type="line"/>
      <point x="816" y="974" type="line"/>
      <point x="80" y="974" type="line"/>
      <point x="60" y="726" type="line"/>
      <point x="105" y="744"/>
      <point x="197" y="774"/>
      <point x="297" y="796"/>
      <point x="408" y="808"/>
      <point x="471" y="808" type="qcurve" smooth="yes"/>
      <point x="532" y="808"/>
      <point x="667" y="803"/>
      <point x="797" y="778"/>
      <point x="915" y="729"/>
      <point x="1005" y="640"/>
      <point x="1058" y="505"/>
      <point x="1058" y="408" type="qcurve" smooth="yes"/>
      <point x="1058" y="304"/>
      <point x="1001" y="161"/>
      <point x="903" y="68"/>
      <point x="773" y="17"/>
      <point x="628" y="-7"/>
      <point x="476" y="-12"/>
      <point x="404" y="-12" type="qcurve"/>
    </contour>
  </outline>
</glyph>
<glyph name="six" format="2">
  <advance width="1324"/>
  <unicode hex="0036"/>
  <outline>
    <contour>
      <point x="646" y="-10" type="qcurve" smooth="yes"/>
      <point x="839" y="-10"/>
      <point x="1080" y="9"/>
      <point x="1215" y="81"/>
      <point x="1264" y="224"/>
      <point x="1264" y="349" type="qcurve" smooth="yes"/>
      <point x="1264" y="483"/>
      <point x="1216" y="635"/>
      <point x="1087" y="710"/>
      <point x="862" y="727"/>
      <point x="684" y="727" type="qcurve" smooth="yes"/>
      <point x="599" y="727"/>
      <point x="465" y="712"/>
      <point x="365" y="691"/>
      <point x="298" y="666"/>
      <point x="280" y="655" type="qcurve"/>
      <point x="280" y="615" type="line"/>
      <point x="312" y="630"/>
      <point x="379" y="658"/>
      <point x="458" y="679"/>
      <point x="555" y="691"/>
      <point x="618" y="691" type="qcurve" smooth="yes"/>
      <point x="653" y="691"/>
      <point x="694" y="679"/>
      <point x="715" y="636"/>
      <point x="720" y="551"/>
      <point x="720" y="478" type="qcurve" smooth="yes"/>
      <point x="720" y="314"/>
      <point x="716" y="131"/>
      <point x="702" y="44"/>
      <point x="679" y="26"/>
      <point x="659" y="26" type="qcurve" smooth="yes"/>
      <point x="640" y="26"/>
      <point x="617" y="47"/>
      <point x="604" y="140"/>
      <point x="600" y="331"/>
      <point x="600" y="500" type="qcurve" smooth="yes"/>
      <point x="600" y="778"/>
      <point x="628" y="1120"/>
      <point x="702" y="1309"/>
      <point x="832" y="1374"/>
      <point x="934" y="1374" type="qcurve" smooth="yes"/>
      <point x="943" y="1374"/>
      <point x="963" y="1373"/>
      <point x="984" y="1370"/>
      <point x="1006" y="1366"/>
      <point x="1015" y="1364" type="qcurve"/>
      <point x="999" y="1404" type="line"/>
      <point x="989" y="1406"/>
      <point x="954" y="1410"/>
      <point x="937" y="1410" type="qcurve" smooth="yes"/>
      <point x="708" y="1410"/>
      <point x="377" y="1312"/>
      <point x="163" y="1105"/>
      <point x="60" y="784"/>
      <point x="60" y="561" type="qcurve" smooth="yes"/>
      <point x="60" y="365"/>
      <point x="94" y="138"/>
      <point x="214" y="22"/>
      <point x="447" y="-10"/>
    </contour>
  </outline>
</glyph>
<glyph name="seven" format="2">
  <advance width="1275"/>
  <unicode hex="0037"/>
  <outline>
    <contour>
      <point x="21" y="1083" type="line"/>
      <point x="533" y="984" type="line"/>
      <point x="533" y="1364" type="line"/>
      <point x="840" y="1364" type="line"/>
      <point x="376" y="0" type="line"/>
      <point x="894" y="0" type="line"/>
      <point x="1265" y="1163" type="line"/>
      <point x="1265" y="1400" type="line"/>
      <point x="21" y="1400" type="line"/>
    </contour>
  </outline>
  <guideline angle="90" color="0.4,0.4,0.4,1" name="halfwidth" x="637.5" y="0"/>
</glyph>
<glyph name="eight" format="2">
  <advance width="1436"/>
  <unicode hex="0038"/>
  <outline>
    <contour>
      <point x="633" y="90" type="qcurve" smooth="yes"/>
      <point x="633" y="625" type="line" smooth="yes"/>
      <point x="633" y="640"/>
      <point x="644" y="664"/>
      <point x="662" y="680"/>
      <point x="687" y="689"/>
      <point x="702" y="689" type="qcurve" smooth="yes"/>
      <point x="734" y="689" type="line" smooth="yes"/>
      <point x="752" y="689"/>
      <point x="779" y="680"/>
      <point x="795" y="664"/>
      <point x="803" y="640"/>
      <point x="803" y="625" type="qcurve" smooth="yes"/>
      <point x="803" y="90" type="line" smooth="yes"/>
      <point x="803" y="60"/>
      <point x="771" y="26"/>
      <point x="734" y="26" type="qcurve" smooth="yes"/>
      <point x="702" y="26" type="line" smooth="yes"/>
      <point x="665" y="26"/>
      <point x="633" y="60"/>
    </contour>
    <contour>
      <point x="800" y="1311" type="qcurve" smooth="yes"/>
      <point x="800" y="788" type="line" smooth="yes"/>
      <point x="800" y="759"/>
      <point x="760" y="725"/>
      <point x="731" y="725" type="qcurve" smooth="yes"/>
      <point x="705" y="725" type="line" smooth="yes"/>
      <point x="668" y="725"/>
      <point x="636" y="759"/>
      <point x="636" y="788" type="qcurve" smooth="yes"/>
      <point x="636" y="1311" type="line" smooth="yes"/>
      <point x="636" y="1340"/>
      <point x="676" y="1374"/>
      <point x="705" y="1374" type="qcurve" smooth="yes"/>
      <point x="731" y="1374" type="line" smooth="yes"/>
      <point x="760" y="1374"/>
      <point x="800" y="1340"/>
    </contour>
    <contour>
      <point x="72" y="343" type="line" smooth="yes"/>
      <point x="72" y="242"/>
      <point x="137" y="106"/>
      <point x="251" y="24"/>
      <point x="407" y="-10"/>
      <point x="497" y="-10" type="qcurve" smooth="yes"/>
      <point x="938" y="-10" type="line" smooth="yes"/>
      <point x="1121" y="-10"/>
      <point x="1364" y="142"/>
      <point x="1364" y="344" type="qcurve" smooth="yes"/>
      <point x="1364" y="396" type="line" smooth="yes"/>
      <point x="1364" y="566"/>
      <point x="1241" y="696"/>
      <point x="1168" y="712" type="qcurve"/>
      <point x="1236" y="729"/>
      <point x="1334" y="868"/>
      <point x="1334" y="977" type="qcurve" smooth="yes"/>
      <point x="1334" y="1072" type="line" smooth="yes"/>
      <point x="1334" y="1228"/>
      <point x="1135" y="1410"/>
      <point x="933" y="1410" type="qcurve" smooth="yes"/>
      <point x="504" y="1410" type="line" smooth="yes"/>
      <point x="302" y="1410"/>
      <point x="102" y="1228"/>
      <point x="102" y="1071" type="qcurve" smooth="yes"/>
      <point x="102" y="977" type="line" smooth="yes"/>
      <point x="102" y="868"/>
      <point x="198" y="729"/>
      <point x="269" y="712" type="qcurve"/>
      <point x="195" y="695"/>
      <point x="72" y="563"/>
      <point x="72" y="392" type="qcurve" smooth="yes"/>
    </contour>
  </outline>
</glyph>
<glyph name="nine" format="2">
  <advance width="1316"/>
  <unicode hex="0039"/>
  <outline>
    <contour>
      <point x="666" y="1410" type="qcurve" smooth="yes"/>
      <point x="473" y="1410"/>
      <point x="232" y="1390"/>
      <point x="97" y="1313"/>
      <point x="48" y="1160"/>
      <point x="48" y="1026" type="qcurve" smooth="yes"/>
      <point x="48" y="890"/>
      <point x="96" y="736"/>
      <point x="225" y="661"/>
      <point x="450" y="643"/>
      <point x="628" y="643" type="qcurve" smooth="yes"/>
      <point x="713" y="643"/>
      <point x="847" y="658"/>
      <point x="947" y="679"/>
      <point x="1014" y="705"/>
      <point x="1032" y="715" type="qcurve"/>
      <point x="1032" y="755" type="line"/>
      <point x="1000" y="740"/>
      <point x="933" y="713"/>
      <point x="854" y="692"/>
      <point x="757" y="679"/>
      <point x="694" y="679" type="qcurve" smooth="yes"/>
      <point x="659" y="679"/>
      <point x="618" y="691"/>
      <point x="597" y="734"/>
      <point x="592" y="819"/>
      <point x="592" y="892" type="qcurve" smooth="yes"/>
      <point x="592" y="1068"/>
      <point x="596" y="1262"/>
      <point x="610" y="1355"/>
      <point x="634" y="1374"/>
      <point x="653" y="1374" type="qcurve" smooth="yes"/>
      <point x="672" y="1374"/>
      <point x="695" y="1350"/>
      <point x="708" y="1253"/>
      <point x="712" y="1060"/>
      <point x="712" y="890" type="qcurve" smooth="yes"/>
      <point x="712" y="611"/>
      <point x="684" y="270"/>
      <point x="610" y="84"/>
      <point x="480" y="22"/>
      <point x="378" y="22" type="qcurve" smooth="yes"/>
      <point x="369" y="22"/>
      <point x="349" y="23"/>
      <point x="328" y="26"/>
      <point x="306" y="30"/>
      <point x="297" y="32" type="qcurve"/>
      <point x="313" y="-8" type="line"/>
      <point x="323" y="-10"/>
      <point x="358" y="-14"/>
      <point x="375" y="-14" type="qcurve" smooth="yes"/>
      <point x="604" y="-14"/>
      <point x="935" y="79"/>
      <point x="1150" y="280"/>
      <point x="1252" y="596"/>
      <point x="1252" y="819" type="qcurve" smooth="yes"/>
      <point x="1252" y="1015"/>
      <point x="1219" y="1248"/>
      <point x="1099" y="1372"/>
      <point x="866" y="1410"/>
    </contour>
  </outline>
</glyph>
<glyph name="colon" format="2">
  <advance width="674"/>
  <unicode hex="003A"/>
  <outline>
    <contour>
      <point x="72" y="135" type="line" smooth="yes"/>
      <point x="72" y="82.875"/>
      <point x="76.9688" y="25.7812"/>
      <point x="103.781" y="-1.03125"/>
      <point x="160.875" y="-6"/>
      <point x="213" y="-6" type="qcurve" smooth="yes"/>
      <point x="461" y="-6" type="line" smooth="yes"/>
      <point x="513.125" y="-6"/>
      <point x="570.219" y="-1.03125"/>
      <point x="597.031" y="25.7812"/>
      <point x="602" y="82.875"/>
      <point x="602" y="135" type="qcurve" smooth="yes"/>
      <point x="602" y="314" type="line" smooth="yes"/>
      <point x="602" y="365.75"/>
      <point x="596.719" y="422.438"/>
      <point x="569.531" y="449.062"/>
      <point x="512.125" y="454"/>
      <point x="460" y="454" type="qcurve" smooth="yes"/>
      <point x="213" y="454" type="line" smooth="yes"/>
      <point x="160.875" y="454"/>
      <point x="103.781" y="449.125"/>
      <point x="76.9688" y="422.875"/>
      <point x="72" y="367"/>
      <point x="72" y="316" type="qcurve" smooth="yes"/>
    </contour>
    <contour>
      <point x="72" y="715" type="line" smooth="yes"/>
      <point x="72" y="662.875"/>
      <point x="76.9688" y="605.781"/>
      <point x="103.781" y="578.969"/>
      <point x="160.875" y="574"/>
      <point x="213" y="574" type="qcurve" smooth="yes"/>
      <point x="461" y="574" type="line" smooth="yes"/>
      <point x="513.125" y="574"/>
      <point x="570.219" y="578.969"/>
      <point x="597.031" y="605.781"/>
      <point x="602" y="662.875"/>
      <point x="602" y="715" type="qcurve" smooth="yes"/>
      <point x="602" y="894" type="line" smooth="yes"/>
      <point x="602" y="945.75"/>
      <point x="596.719" y="1002.44"/>
      <point x="569.531" y="1029.06"/>
      <point x="512.125" y="1034"/>
      <point x="460" y="1034" type="qcurve" smooth="yes"/>
      <point x="213" y="1034" type="line" smooth="yes"/>
      <point x="160.875" y="1034"/>
      <point x="103.781" y="1029.12"/>
      <point x="76.9688" y="1002.88"/>
      <point x="72" y="947"/>
      <point x="72" y="896" type="qcurve" smooth="yes"/>
    </contour>
  </outline>
</glyph>
<glyph name="equal" format="2">
  <advance width="590"/>
  <unicode hex="003D"/>
  <outline>
    <contour>
      <point x="-152" y="699" type="line"/>
      <point x="742" y="699" type="line"/>
      <point x="742" y="735" type="line"/>
      <point x="-152" y="735" type="line"/>
    </contour>
    <contour>
      <point x="-152" y="439" type="line"/>
      <point x="742" y="439" type="line"/>
      <point x="742" y="475" type="line"/>
      <point x="-152" y="475" type="line"/>
    </contour>
  </outline>
</glyph>
<glyph name="greater" format="2">
  <advance width="590"/>
  <unicode hex="003E"/>
  <outline>
    <contour>
      <point x="52" y="927" type="line"/>
      <point x="52" y="887" type="line"/>
      <point x="501" y="584" type="line"/>
      <point x="52" y="281" type="line"/>
      <point x="52" y="241" type="line"/>
      <point x="538" y="567" type="line"/>
      <point x="538" y="603" type="line"/>
    </contour>
  </outline>
</glyph>
<glyph name="question" format="2">
  <advance width="1099"/>
  <unicode hex="003F"/>
  <outline>
    <contour>
      <point x="490" y="462" type="line"/>
      <point x="490" y="725" type="line"/>
      <point x="490" y="725"/>
      <point x="490" y="725"/>
      <point x="490" y="725"/>
      <point x="490" y="725"/>
      <point x="490" y="725" type="qcurve"/>
      <point x="529" y="725" type="line" smooth="yes"/>
      <point x="548" y="725"/>
      <point x="569" y="733"/>
      <point x="578" y="752"/>
      <point x="580" y="782"/>
      <point x="580" y="804" type="qcurve" smooth="yes"/>
      <point x="580" y="1374" type="line"/>
      <point x="580" y="1374"/>
      <point x="580" y="1374"/>
      <point x="580" y="1374"/>
      <point x="580" y="1374"/>
      <point x="580" y="1374" type="qcurve"/>
      <point x="495" y="1374" type="line"/>
      <point x="495" y="1374"/>
      <point x="495" y="1374"/>
      <point x="495" y="1374"/>
      <point x="495" y="1374"/>
      <point x="495" y="1374" type="qcurve"/>
      <point x="495" y="935" type="line"/>
      <point x="40" y="1008" type="line"/>
      <point x="40" y="1113" type="line" smooth="yes"/>
      <point x="40" y="1192"/>
      <point x="76" y="1305"/>
      <point x="154" y="1377"/>
      <point x="276" y="1410"/>
      <point x="361" y="1410" type="qcurve" smooth="yes"/>
      <point x="717" y="1410" type="line" smooth="yes"/>
      <point x="803" y="1410"/>
      <point x="923" y="1377"/>
      <point x="1000" y="1307"/>
      <point x="1035" y="1195"/>
      <point x="1035" y="1115" type="qcurve" smooth="yes"/>
      <point x="1035" y="987" type="line" smooth="yes"/>
      <point x="1035" y="928"/>
      <point x="1010" y="820"/>
      <point x="954" y="738"/>
      <point x="867" y="689"/>
      <point x="804" y="689" type="qcurve" smooth="yes"/>
      <point x="530" y="689" type="line"/>
      <point x="530" y="689"/>
      <point x="530" y="689"/>
      <point x="530" y="689"/>
      <point x="530" y="689"/>
      <point x="530" y="689" type="qcurve"/>
      <point x="530" y="462" type="line"/>
    </contour>
    <contour>
      <point x="245" y="135" type="line"/>
      <point x="245" y="226" type="line" smooth="yes"/>
      <point x="245" y="270"/>
      <point x="255" y="324"/>
      <point x="286" y="354"/>
      <point x="341" y="364"/>
      <point x="386" y="364" type="qcurve" smooth="yes"/>
      <point x="633" y="364" type="line" smooth="yes"/>
      <point x="678" y="364"/>
      <point x="734" y="354"/>
      <point x="764" y="324"/>
      <point x="775" y="269"/>
      <point x="775" y="224" type="qcurve" smooth="yes"/>
      <point x="775" y="135" type="line" smooth="yes"/>
      <point x="775" y="90"/>
      <point x="765" y="35"/>
      <point x="734" y="4"/>
      <point x="679" y="-6"/>
      <point x="634" y="-6" type="qcurve" smooth="yes"/>
      <point x="386" y="-6" type="line" smooth="yes"/>
      <point x="341" y="-6"/>
      <point x="286" y="4"/>
      <point x="255" y="35"/>
      <point x="245" y="90"/>
      <point x="245" y="135" type="qcurve"/>
    </contour>
  </outline>
</glyph>
<glyph name="at" format="2">
  <advance width="1780" height="1020.84"/>
  <unicode hex="0040"/>
  <outline>
    <contour>
      <point x="64" y="194" type="line"/>
      <point x="64" y="859" type="line" smooth="yes"/>
      <point x="64" y="947"/>
      <point x="115" y="1057"/>
      <point x="208" y="1118"/>
      <point x="337" y="1140"/>
      <point x="415" y="1140" type="qcurve" smooth="yes"/>
      <point x="1363" y="1140" type="line" smooth="yes"/>
      <point x="1441" y="1140"/>
      <point x="1570" y="1118"/>
      <point x="1664" y="1057"/>
      <point x="1716" y="947"/>
      <point x="1716" y="859" type="qcurve" smooth="yes"/>
      <point x="1716" y="426" type="line" smooth="yes"/>
      <point x="1716" y="335"/>
      <point x="1669" y="228"/>
      <point x="1590" y="171"/>
      <point x="1485" y="154"/>
      <point x="1427" y="154" type="qcurve" smooth="yes"/>
      <point x="1105" y="154" type="line" smooth="yes"/>
      <point x="1079" y="154"/>
      <point x="1033" y="164"/>
      <point x="993" y="180"/>
      <point x="961" y="202"/>
      <point x="950" y="214" type="qcurve"/>
      <point x="944" y="200"/>
      <point x="926" y="178"/>
      <point x="899" y="162"/>
      <point x="863" y="154"/>
      <point x="841" y="154" type="qcurve" smooth="yes"/>
      <point x="702" y="154" type="line" smooth="yes"/>
      <point x="646" y="154"/>
      <point x="565" y="176"/>
      <point x="513" y="221"/>
      <point x="488" y="291"/>
      <point x="488" y="339" type="qcurve" smooth="yes"/>
      <point x="488" y="704" type="line" smooth="yes"/>
      <point x="488" y="750"/>
      <point x="513" y="817"/>
      <point x="566" y="861"/>
      <point x="647" y="882"/>
      <point x="702" y="882" type="qcurve" smooth="yes"/>
      <point x="875" y="882" type="line" smooth="yes"/>
      <point x="886" y="882"/>
      <point x="915" y="876"/>
      <point x="925" y="865" type="qcurve"/>
      <point x="925" y="878" type="line"/>
      <point x="1281" y="878" type="line"/>
      <point x="1281" y="228" type="line" smooth="yes"/>
      <point x="1281" y="217"/>
      <point x="1286" y="200"/>
      <point x="1298" y="188"/>
      <point x="1317" y="182"/>
      <point x="1330" y="182" type="qcurve" smooth="yes"/>
      <point x="1355" y="182" type="line" smooth="yes"/>
      <point x="1372" y="182"/>
      <point x="1392" y="192"/>
      <point x="1403" y="213"/>
      <point x="1407" y="244"/>
      <point x="1407" y="265" type="qcurve" smooth="yes"/>
      <point x="1407" y="1001" type="line" smooth="yes"/>
      <point x="1407" y="1024"/>
      <point x="1392" y="1062"/>
      <point x="1356" y="1089"/>
      <point x="1295" y="1104"/>
      <point x="1248" y="1104" type="qcurve" smooth="yes"/>
      <point x="520" y="1104" type="line" smooth="yes"/>
      <point x="487" y="1104"/>
      <point x="433" y="1096"/>
      <point x="394" y="1073"/>
      <point x="373" y="1033"/>
      <point x="373" y="1001" type="qcurve" smooth="yes"/>
      <point x="373" y="51" type="line" smooth="yes"/>
      <point x="373" y="25"/>
      <point x="385" y="-17"/>
      <point x="417" y="-47"/>
      <point x="474" y="-64"/>
      <point x="520" y="-64" type="qcurve" smooth="yes"/>
      <point x="1420" y="-64" type="line"/>
      <point x="1420" y="-100" type="line"/>
      <point x="415" y="-100" type="line" smooth="yes"/>
      <point x="333" y="-100"/>
      <point x="203" y="-76"/>
      <point x="112" y="-11"/>
      <point x="64" y="104"/>
      <point x="64" y="194" type="qcurve"/>
    </contour>
    <contour>
      <point x="855" y="186" type="line"/>
      <point x="855" y="186"/>
      <point x="855" y="186"/>
      <point x="855" y="186" type="qcurve"/>
      <point x="859" y="186" type="line" smooth="yes"/>
      <point x="895" y="186"/>
      <point x="925" y="232"/>
      <point x="925" y="277" type="qcurve" smooth="yes"/>
      <point x="925" y="850" type="line"/>
      <point x="855" y="850" type="line"/>
      <point x="855" y="850"/>
      <point x="855" y="850"/>
      <point x="855" y="850" type="qcurve"/>
    </contour>
  </outline>
</glyph>
<glyph name="B" format="2">
  <advance width="1381"/>
  <unicode hex="0042"/>
  <anchor x="691" y="1550" name="top"/>
  <anchor x="691" y="-150" name="bottom"/>
  <outline>
    <contour>
      <point x="80" y="0" type="line"/>
      <point x="947" y="0" type="line" smooth="yes"/>
      <point x="1057" y="0"/>
      <point x="1213" y="38"/>
      <point x="1314" y="119"/>
      <point x="1361" y="246"/>
      <point x="1361" y="334" type="qcurve" smooth="yes"/>
      <point x="1361" y="384" type="line" smooth="yes"/>
      <point x="1361" y="524"/>
      <point x="1259" y="686"/>
      <point x="1145" y="712" type="qcurve"/>
      <point x="1253" y="752"/>
      <point x="1345" y="897"/>
      <point x="1345" y="1026" type="qcurve" smooth="yes"/>
      <point x="1345" y="1066" type="line" smooth="yes"/>
      <point x="1345" y="1155"/>
      <point x="1298" y="1281"/>
      <point x="1197" y="1362"/>
      <point x="1041" y="1400"/>
      <point x="931" y="1400" type="qcurve" smooth="yes"/>
      <point x="80" y="1400" type="line"/>
    </contour>
    <contour>
      <point x="652" y="36" type="line"/>
      <point x="652" y="692" type="line"/>
      <point x="713" y="692" type="line" smooth="yes"/>
      <point x="752" y="692"/>
      <point x="789" y="659"/>
      <point x="789" y="632" type="qcurve" smooth="yes"/>
      <point x="789" y="96" type="line" smooth="yes"/>
      <point x="789" y="69"/>
      <point x="752" y="36"/>
      <point x="713" y="36" type="qcurve" smooth="yes"/>
    </contour>
    <contour>
      <point x="652" y="728" type="line"/>
      <point x="652" y="1364" type="line"/>
      <point x="697" y="1364" type="line" smooth="yes"/>
      <point x="736" y="1364"/>
      <point x="773" y="1331"/>
      <point x="773" y="1304" type="qcurve" smooth="yes"/>
      <point x="773" y="788" type="line" smooth="yes"/>
      <point x="773" y="761"/>
      <point x="736" y="728"/>
      <point x="697" y="728" type="qcurve" smooth="yes"/>
    </contour>
  </outline>
</glyph>
<glyph name="C" format="2">
  <advance width="1322" height="1448"/>
  <unicode hex="0043"/>
  <anchor x="686" y="1550" name="top"/>
  <anchor x="686" y="-150" name="bottom"/>
  <outline>
    <contour>
      <point x="64" y="1076" type="line"/>
      <point x="64" y="336" type="line" smooth="yes"/>
      <point x="64" y="233"/>
      <point x="119" y="99"/>
      <point x="224" y="21"/>
      <point x="377" y="-10"/>
      <point x="476" y="-10" type="qcurve" smooth="yes"/>
      <point x="894" y="-10" type="line" smooth="yes"/>
      <point x="993" y="-10"/>
      <point x="1147" y="21"/>
      <point x="1253" y="99"/>
      <point x="1308" y="233"/>
      <point x="1308" y="336" type="qcurve" smooth="yes"/>
      <point x="1308" y="530" type="line"/>
      <point x="736" y="640" type="line"/>
      <point x="736" y="26" type="line"/>
      <point x="736" y="26"/>
      <point x="736" y="26"/>
      <point x="736" y="26"/>
      <point x="736" y="26"/>
      <point x="736" y="26" type="qcurve"/>
      <point x="636" y="26" type="line"/>
      <point x="636" y="26"/>
      <point x="636" y="26"/>
      <point x="636" y="26"/>
      <point x="636" y="26"/>
      <point x="636" y="26" type="qcurve"/>
      <point x="636" y="1374" type="line"/>
      <point x="636" y="1374"/>
      <point x="636" y="1374"/>
      <point x="636" y="1374"/>
      <point x="636" y="1374"/>
      <point x="636" y="1374" type="qcurve"/>
      <point x="730" y="1374" type="line"/>
      <point x="730" y="1374"/>
      <point x="730" y="1374"/>
      <point x="730" y="1374"/>
      <point x="730" y="1374"/>
      <point x="730" y="1374" type="qcurve"/>
      <point x="730" y="786" type="line"/>
      <point x="1302" y="890" type="line"/>
      <point x="1302" y="1076" type="line" smooth="yes"/>
      <point x="1302" y="1177"/>
      <point x="1244" y="1306"/>
      <point x="1136" y="1381"/>
      <point x="983" y="1410"/>
      <point x="888" y="1410" type="qcurve" smooth="yes"/>
      <point x="476" y="1410" type="line" smooth="yes"/>
      <point x="382" y="1410"/>
      <point x="229" y="1381"/>
      <point x="122" y="1306"/>
      <point x="64" y="1177"/>
      <point x="64" y="1076" type="qcurve"/>
    </contour>
  </outline>
</glyph>
<glyph name="E" format="2">
  <advance width="1100"/>
  <unicode hex="0045"/>
  <anchor x="585" y="1550" name="top"/>
  <anchor x="585" y="-150" name="bottom"/>
  <anchor x="711" y="0" name="ogonek"/>
  <outline>
    <contour>
      <point x="80" y="0" type="line"/>
      <point x="1090" y="0" type="line"/>
      <point x="1090" y="36" type="line"/>
      <point x="652" y="36" type="line"/>
      <point x="652" y="700" type="line"/>
      <point x="1036" y="700" type="line"/>
      <point x="1036" y="736" type="line"/>
      <point x="652" y="736" type="line"/>
      <point x="652" y="1364" type="line"/>
      <point x="1076" y="1364" type="line"/>
      <point x="1076" y="1400" type="line"/>
      <point x="80" y="1400" type="line"/>
    </contour>
  </outline>
  <guideline angle="90" x="-18" y="0"/>
</glyph>
<glyph name="I" format="2">
  <advance width="732" height="1448"/>
  <unicode hex="0049"/>
  <anchor x="366" y="1550" name="top"/>
  <anchor x="366" y="-150" name="bottom"/>
  <anchor x="121" y="0" name="ogonek"/>
  <outline>
    <contour>
      <point x="80" y="0" type="line"/>
      <point x="80" y="1400" type="line"/>
      <point x="652" y="1400" type="line"/>
      <point x="652" y="0" type="line"/>
    </contour>
  </outline>
</glyph>
<glyph name="J" format="2">
  <advance width="1336"/>
  <unicode hex="004A"/>
  <anchor x="978" y="1550" name="top"/>
  <anchor x="652" y="-150" name="bottom"/>
  <outline>
    <contour>
      <point x="1264" y="1400" type="line"/>
      <point x="692" y="1400" type="line"/>
      <point x="692" y="26" type="line"/>
      <point x="692" y="26"/>
      <point x="692" y="26"/>
      <point x="692" y="26" type="qcurve"/>
      <point x="616" y="26" type="line"/>
      <point x="616" y="26"/>
      <point x="616" y="26"/>
      <point x="616" y="26" type="qcurve"/>
      <point x="616" y="740" type="line"/>
      <point x="44" y="636" type="line"/>
      <point x="44" y="324" type="line" smooth="yes"/>
      <point x="44" y="123"/>
      <point x="269" y="-10"/>
      <point x="458" y="-10" type="qcurve" smooth="yes"/>
      <point x="852" y="-10" type="line" smooth="yes"/>
      <point x="1041" y="-10"/>
      <point x="1264" y="123"/>
      <point x="1264" y="324" type="qcurve" smooth="yes"/>
    </contour>
  </outline>
</glyph>
<glyph name="K" format="2">
  <advance width="1527"/>
  <unicode hex="004B"/>
  <anchor x="776" y="1550" name="top"/>
  <anchor x="782" y="-150" name="bottom"/>
  <outline>
    <contour>
      <point x="1471" y="1400" type="line"/>
      <point x="1413" y="1400" type="line"/>
      <point x="643" y="776" type="line"/>
      <point x="652" y="776" type="line"/>
      <point x="652" y="1400" type="line"/>
      <point x="80" y="1400" type="line"/>
      <point x="80" y="0" type="line"/>
      <point x="652" y="0" type="line"/>
      <point x="652" y="761" type="line"/>
      <point x="582" y="761" type="line"/>
      <point x="880" y="0" type="line"/>
      <point x="1537" y="0" type="line"/>
      <point x="1043" y="1073" type="line"/>
      <point x="696" y="780" type="line"/>
    </contour>
  </outline>
</glyph>
<glyph name="N" format="2">
  <advance width="1144"/>
  <unicode hex="004E"/>
  <anchor x="572" y="1550" name="top"/>
  <anchor x="572" y="-150" name="bottom"/>
  <outline>
    <contour>
      <point x="80" y="0" type="line"/>
      <point x="116" y="0" type="line"/>
      <point x="116" y="732" type="line"/>
      <point x="882" y="0" type="line"/>
      <point x="1064" y="0" type="line"/>
      <point x="1064" y="1400" type="line"/>
      <point x="1028" y="1400" type="line"/>
      <point x="1028" y="659" type="line"/>
      <point x="258" y="1400" type="line"/>
      <point x="80" y="1400" type="line"/>
    </contour>
  </outline>
</glyph>
<glyph name="O" format="2">
  <advance width="1372"/>
  <unicode hex="004F"/>
  <anchor x="685" y="1560" name="top"/>
  <anchor x="685" y="-160" name="bottom"/>
  <anchor x="1294" y="1076" name="horn"/>
  <anchor x="691" y="0" name="ogonek"/>
  <outline>
    <contour>
      <point x="64" y="1076" type="qcurve" smooth="yes"/>
      <point x="64" y="336" type="line" smooth="yes"/>
      <point x="64" y="129.24"/>
      <point x="276.786" y="-10"/>
      <point x="476" y="-10" type="qcurve" smooth="yes"/>
      <point x="894" y="-10" type="line" smooth="yes"/>
      <point x="1093.21" y="-10"/>
      <point x="1308" y="127.73"/>
      <point x="1308" y="336" type="qcurve" smooth="yes"/>
      <point x="1308" y="1076" type="line" smooth="yes"/>
      <point x="1308" y="1277"/>
      <point x="1083" y="1410"/>
      <point x="894" y="1410" type="qcurve" smooth="yes"/>
      <point x="476" y="1410" type="line" smooth="yes"/>
      <point x="287" y="1410"/>
      <point x="64" y="1277"/>
    </contour>
    <contour>
      <point x="636" y="1374" type="line"/>
      <point x="636" y="1374"/>
      <point x="636" y="1374"/>
      <point x="636" y="1374" type="qcurve"/>
      <point x="736" y="1374" type="line"/>
      <point x="736" y="1374"/>
      <point x="736" y="1374"/>
      <point x="736" y="1374" type="qcurve"/>
      <point x="736" y="26" type="line"/>
      <point x="736" y="26"/>
      <point x="736" y="26"/>
      <point x="736" y="26" type="qcurve"/>
      <point x="636" y="26" type="line"/>
      <point x="636" y="26"/>
      <point x="636" y="26"/>
      <point x="636" y="26" type="qcurve"/>
    </contour>
  </outline>
</glyph>
<glyph name="P" format="2">
  <advance width="1350"/>
  <unicode hex="0050"/>
  <outline>
    <contour>
      <point x="80" y="0" type="line"/>
      <point x="652" y="0" type="line"/>
      <point x="652" y="440" type="line"/>
      <point x="920" y="440" type="line" smooth="yes"/>
      <point x="1015" y="440"/>
      <point x="1168" y="469"/>
      <point x="1276" y="544"/>
      <point x="1334" y="674"/>
      <point x="1334" y="774" type="qcurve" smooth="yes"/>
      <point x="1334" y="1066" type="line" smooth="yes"/>
      <point x="1334" y="1267"/>
      <point x="1109" y="1400"/>
      <point x="920" y="1400" type="qcurve" smooth="yes"/>
      <point x="80" y="1400" type="line"/>
    </contour>
    <contour>
      <point x="652" y="476" type="line"/>
      <point x="652" y="1364" type="line"/>
      <point x="686" y="1364" type="line" smooth="yes"/>
      <point x="725" y="1364"/>
      <point x="762" y="1331"/>
      <point x="762" y="1304" type="qcurve" smooth="yes"/>
      <point x="762" y="536" type="line" smooth="yes"/>
      <point x="762" y="509"/>
      <point x="725" y="476"/>
      <point x="686" y="476" type="qcurve" smooth="yes"/>
    </contour>
  </outline>
  <guideline angle="90" color="0.4,0.4,0.4,1" name="halfwidth" x="675" y="0"/>
</glyph>
<glyph name="R" format="2">
  <advance width="1482"/>
  <unicode hex="0052"/>
  <anchor x="781" y="-150" name="bottom"/>
  <anchor x="707" y="1550" name="top"/>
  <outline>
    <contour>
      <point x="80" y="0" type="line"/>
      <point x="652" y="0" type="line"/>
      <point x="652" y="530" type="line"/>
      <point x="652" y="530" type="line"/>
      <point x="850" y="0" type="line"/>
      <point x="1482" y="0" type="line"/>
      <point x="1174" y="603" type="line"/>
      <point x="1174" y="603" type="line"/>
      <point x="1249.75" y="636"/>
      <point x="1334" y="779"/>
      <point x="1334" y="908" type="qcurve" smooth="yes"/>
      <point x="1334" y="1036" type="line" smooth="yes"/>
      <point x="1334" y="1237"/>
      <point x="1089" y="1400"/>
      <point x="900" y="1400" type="qcurve" smooth="yes"/>
      <point x="80" y="1400" type="line"/>
    </contour>
    <contour>
      <point x="652" y="570" type="line"/>
      <point x="652" y="1364" type="line"/>
      <point x="686" y="1364" type="line" smooth="yes"/>
      <point x="725.239" y="1364"/>
      <point x="762" y="1331.17"/>
      <point x="762" y="1304" type="qcurve" smooth="yes"/>
      <point x="762" y="630" type="line" smooth="yes"/>
      <point x="762" y="602.834"/>
      <point x="725.239" y="570"/>
      <point x="686" y="570" type="qcurve" smooth="yes"/>
    </contour>
  </outline>
</glyph>
<glyph name="S" format="2">
  <advance width="1272"/>
  <unicode hex="0053"/>
  <anchor x="634" y="1560" name="top"/>
  <anchor x="633" y="-160" name="bottom"/>
  <outline>
    <contour>
      <point x="34" y="410" type="line"/>
      <point x="34" y="332" type="line" smooth="yes"/>
      <point x="34" y="226.25"/>
      <point x="90.6875" y="92.9375"/>
      <point x="196.812" y="17.5625"/>
      <point x="348.75" y="-10"/>
      <point x="444" y="-10" type="qcurve" smooth="yes"/>
      <point x="820" y="-10" type="line" smooth="yes"/>
      <point x="1012" y="-10"/>
      <point x="1232" y="121"/>
      <point x="1232" y="334" type="qcurve" smooth="yes"/>
      <point x="1232" y="398" type="line" smooth="yes"/>
      <point x="1232" y="501.5"/>
      <point x="1171.88" y="629.875"/>
      <point x="1063.12" y="701.125"/>
      <point x="911.5" y="726"/>
      <point x="820" y="726" type="qcurve" smooth="yes"/>
      <point x="580" y="726" type="line"/>
      <point x="580" y="726"/>
      <point x="580" y="726"/>
      <point x="580" y="726" type="qcurve"/>
      <point x="580" y="1374" type="line"/>
      <point x="580" y="1374"/>
      <point x="580" y="1374"/>
      <point x="580" y="1374" type="qcurve"/>
      <point x="686" y="1374" type="line"/>
      <point x="686" y="1374"/>
      <point x="686" y="1374"/>
      <point x="686" y="1374" type="qcurve"/>
      <point x="686" y="958" type="line"/>
      <point x="1212" y="1006" type="line"/>
      <point x="1212" y="1082" type="line" smooth="yes"/>
      <point x="1212" y="1184.75"/>
      <point x="1152.5" y="1312.94"/>
      <point x="1044.5" y="1384.56"/>
      <point x="893.5" y="1410"/>
      <point x="802" y="1410" type="qcurve" smooth="yes"/>
      <point x="470" y="1410" type="line" smooth="yes"/>
      <point x="378.5" y="1410"/>
      <point x="225.625" y="1383.88"/>
      <point x="115.375" y="1311.12"/>
      <point x="54" y="1181.5"/>
      <point x="54" y="1078" type="qcurve" smooth="yes"/>
      <point x="54" y="1034" type="line" smooth="yes"/>
      <point x="54" y="928.25"/>
      <point x="110.062" y="794.312"/>
      <point x="215.438" y="718.188"/>
      <point x="366.75" y="690"/>
      <point x="462" y="690" type="qcurve" smooth="yes"/>
      <point x="686" y="690" type="line"/>
      <point x="686" y="690"/>
      <point x="686" y="690"/>
      <point x="686" y="690" type="qcurve"/>
      <point x="686" y="26" type="line"/>
      <point x="686" y="26"/>
      <point x="686" y="26"/>
      <point x="686" y="26" type="qcurve"/>
      <point x="580" y="26" type="line"/>
      <point x="580" y="26"/>
      <point x="580" y="26"/>
      <point x="580" y="26" type="qcurve"/>
      <point x="580" y="462" type="line"/>
    </contour>
  </outline>
</glyph>
<glyph name="U" format="2">
  <advance width="1373"/>
  <unicode hex="0055"/>
  <anchor x="687" y="1550" name="top"/>
  <anchor x="686" y="-150" name="bottom"/>
  <anchor x="707" y="0" name="ogonek"/>
  <anchor x="1301" y="1400" name="horn"/>
  <outline>
    <contour>
      <point x="72" y="1400" type="line"/>
      <point x="72" y="333" type="line" smooth="yes"/>
      <point x="72" y="226.875"/>
      <point x="128.688" y="93.1562"/>
      <point x="234.812" y="17.5938"/>
      <point x="386.75" y="-10"/>
      <point x="482" y="-10" type="qcurve" smooth="yes"/>
      <point x="889" y="-10" type="line" smooth="yes"/>
      <point x="1081.75" y="-10"/>
      <point x="1301" y="120.75"/>
      <point x="1301" y="333" type="qcurve" smooth="yes"/>
      <point x="1301" y="1400" type="line"/>
      <point x="729" y="1400" type="line"/>
      <point x="729" y="26" type="line"/>
      <point x="729" y="26"/>
      <point x="729" y="26"/>
      <point x="729" y="26" type="qcurve"/>
      <point x="644" y="26" type="line"/>
      <point x="644" y="26"/>
      <point x="644" y="26"/>
      <point x="644" y="26" type="qcurve"/>
      <point x="644" y="1400" type="line"/>
    </contour>
  </outline>
</glyph>
<glyph name="V" format="2">
  <advance width="1194"/>
  <unicode hex="0056"/>
  <anchor x="772" y="1550" name="top"/>
  <anchor x="637" y="-150" name="bottom"/>
  <outline>
    <contour>
      <point x="500" y="0" type="line"/>
      <point x="774" y="0" type="line"/>
      <point x="1204" y="1400" type="line"/>
      <point x="1166" y="1400" type="line"/>
      <point x="894" y="517" type="line"/>
      <point x="599" y="1400" type="line"/>
      <point x="-10" y="1400" type="line"/>
    </contour>
  </outline>
</glyph>
<glyph name="Y" format="2">
  <advance width="1316"/>
  <unicode hex="0059"/>
  <anchor x="693" y="1550" name="top"/>
  <anchor x="653" y="-150" name="bottom"/>
  <outline>
    <contour>
      <point x="371" y="0" type="line"/>
      <point x="943" y="0" type="line"/>
      <point x="943" y="543" type="line"/>
      <point x="1326" y="1400" type="line"/>
      <point x="1287" y="1400" type="line"/>
      <point x="923" y="585" type="line"/>
      <point x="568" y="1400" type="line"/>
      <point x="-10" y="1400" type="line"/>
      <point x="371" y="560" type="line"/>
    </contour>
  </outline>
  <guideline angle="90" color="1,0,0,1" x="653" y="0"/>
</glyph>
<glyph name="Z" format="2">
  <advance width="1299"/>
  <unicode hex="005A"/>
  <anchor x="698" y="1550" name="top"/>
  <anchor x="642" y="-150" name="bottom"/>
  <outline>
    <contour>
      <point x="60" y="0" type="line"/>
      <point x="1224" y="0" type="line"/>
      <point x="1224" y="36" type="line"/>
      <point x="639" y="36" type="line"/>
      <point x="646" y="25" type="line"/>
      <point x="1214" y="1382" type="line"/>
      <point x="1214" y="1400" type="line"/>
      <point x="130" y="1400" type="line"/>
      <point x="130" y="1364" type="line"/>
      <point x="635" y="1364" type="line"/>
      <point x="628" y="1375" type="line"/>
      <point x="60" y="18" type="line"/>
    </contour>
  </outline>
</glyph>
<glyph name="bracketleft" format="2">
  <advance width="752"/>
  <unicode hex="005B"/>
  <outline>
    <contour>
      <point x="80" y="-256" type="line"/>
      <point x="80" y="1448" type="line"/>
      <point x="742" y="1448" type="line"/>
      <point x="742" y="1416" type="line"/>
      <point x="520" y="1416" type="line"/>
      <point x="520" y="-224" type="line"/>
      <point x="742" y="-224" type="line"/>
      <point x="742" y="-256" type="line"/>
    </contour>
  </outline>
</glyph>
<glyph name="bracketright" format="2">
  <advance width="752"/>
  <unicode hex="005D"/>
  <outline>
    <contour>
      <point x="672" y="1448" type="line"/>
      <point x="10" y="1448" type="line"/>
      <point x="10" y="1416" type="line"/>
      <point x="232" y="1416" type="line"/>
      <point x="232" y="-224" type="line"/>
      <point x="10" y="-224" type="line"/>
      <point x="10" y="-256" type="line"/>
      <point x="672" y="-256" type="line"/>
    </contour>
  </outline>
</glyph>
<glyph name="asciicircum" format="2">
  <advance width="759"/>
  <unicode hex="005E"/>
  <outline>
    <contour>
      <point x="0" y="850" type="line"/>
      <point x="192" y="1448" type="line"/>
      <point x="510" y="1448" type="line"/>
      <point x="759" y="850" type="line"/>
      <point x="405" y="850" type="line"/>
      <point x="214" y="1411" type="line"/>
      <point x="38" y="850" type="line"/>
    </contour>
  </outline>
  <guideline angle="0" x="0" y="850"/>
</glyph>
<glyph name="underscore" format="2">
  <advance width="580"/>
  <unicode hex="005F"/>
  <outline>
    <contour>
      <point x="0" y="-209" type="line"/>
      <point x="580" y="-209" type="line"/>
      <point x="580" y="-173" type="line"/>
      <point x="0" y="-173" type="line"/>
    </contour>
  </outline>
</glyph>
<glyph name="b" format="2">
  <advance width="1276"/>
  <unicode hex="0062"/>
  <anchor x="646" y="1598" name="top"/>
  <anchor x="646" y="-162" name="bottom"/>
  <outline>
    <contour>
      <point x="72" y="0" type="line"/>
      <point x="596" y="0" type="line"/>
      <point x="596" y="28" type="line"/>
      <point x="607" y="14"/>
      <point x="645" y="0"/>
      <point x="672" y="0" type="qcurve" smooth="yes"/>
      <point x="914" y="0" type="line" smooth="yes"/>
      <point x="1057" y="0"/>
      <point x="1220" y="109"/>
      <point x="1220" y="264" type="qcurve" smooth="yes"/>
      <point x="1220" y="776" type="line" smooth="yes"/>
      <point x="1220" y="928"/>
      <point x="1051" y="1030"/>
      <point x="914" y="1030" type="qcurve" smooth="yes"/>
      <point x="672" y="1030" type="line" smooth="yes"/>
      <point x="640" y="1030"/>
      <point x="602" y="1018"/>
      <point x="596" y="1006" type="qcurve"/>
      <point x="596" y="1472" type="line"/>
      <point x="72" y="1472" type="line"/>
    </contour>
    <contour>
      <point x="596" y="32" type="line"/>
      <point x="596" y="998" type="line"/>
      <point x="696" y="998" type="line"/>
      <point x="696" y="998"/>
      <point x="696" y="998"/>
      <point x="696" y="998" type="qcurve"/>
      <point x="696" y="32" type="line"/>
      <point x="696" y="32"/>
      <point x="696" y="32"/>
      <point x="696" y="32" type="qcurve"/>
    </contour>
  </outline>
</glyph>
<glyph name="d" format="2">
  <advance width="1276"/>
  <unicode hex="0064"/>
  <anchor x="630" y="1598" name="top"/>
  <anchor x="630" y="-162" name="bottom"/>
  <anchor x="1204" y="1472" name="right"/>
  <outline>
    <contour>
      <point x="56" y="264" type="line" smooth="yes"/>
      <point x="56" y="125"/>
      <point x="201" y="0"/>
      <point x="362" y="0" type="qcurve" smooth="yes"/>
      <point x="604" y="0" type="line" smooth="yes"/>
      <point x="631" y="0"/>
      <point x="669" y="14"/>
      <point x="680" y="28" type="qcurve"/>
      <point x="680" y="0" type="line"/>
      <point x="1204" y="0" type="line"/>
      <point x="1204" y="1472" type="line"/>
      <point x="680" y="1472" type="line"/>
      <point x="680" y="1006" type="line"/>
      <point x="674" y="1018"/>
      <point x="636" y="1030"/>
      <point x="604" y="1030" type="qcurve" smooth="yes"/>
      <point x="362" y="1030" type="line" smooth="yes"/>
      <point x="202" y="1030"/>
      <point x="56" y="907"/>
      <point x="56" y="776" type="qcurve" smooth="yes"/>
    </contour>
    <contour>
      <point x="680" y="998" type="line"/>
      <point x="680" y="32" type="line"/>
      <point x="580" y="32" type="line"/>
      <point x="580" y="32"/>
      <point x="580" y="32"/>
      <point x="580" y="32" type="qcurve"/>
      <point x="580" y="998" type="line"/>
      <point x="580" y="998"/>
      <point x="580" y="998"/>
      <point x="580" y="998" type="qcurve"/>
    </contour>
  </outline>
</glyph>
<glyph name="f" format="2">
  <advance width="861"/>
  <unicode hex="0066"/>
  <outline>
    <contour>
      <point x="80" y="1024" type="line"/>
      <point x="32" y="1024" type="line"/>
      <point x="32" y="992" type="line"/>
      <point x="80" y="992" type="line"/>
      <point x="80" y="0" type="line"/>
      <point x="604" y="0" type="line"/>
      <point x="604" y="992" type="line"/>
      <point x="841" y="992" type="line"/>
      <point x="841" y="1024" type="line"/>
      <point x="604" y="1024" type="line"/>
      <point x="604" y="1440" type="line"/>
      <point x="604" y="1440"/>
      <point x="604" y="1440"/>
      <point x="604" y="1440" type="qcurve"/>
      <point x="861" y="1440" type="line"/>
      <point x="871" y="1472" type="line"/>
      <point x="394" y="1472" type="line" smooth="yes"/>
      <point x="238.552" y="1472"/>
      <point x="80" y="1332.96"/>
      <point x="80" y="1176" type="qcurve" smooth="yes"/>
    </contour>
  </outline>
</glyph>
<glyph name="h" format="2">
  <advance width="1284"/>
  <unicode hex="0068"/>
  <anchor x="334" y="1622" name="top"/>
  <anchor x="646" y="-150" name="bottom"/>
  <outline>
    <contour>
      <point x="72" y="0" type="line"/>
      <point x="596" y="0" type="line"/>
      <point x="596" y="992" type="line"/>
      <point x="696" y="992" type="line"/>
      <point x="696" y="992"/>
      <point x="696" y="992"/>
      <point x="696" y="992" type="qcurve"/>
      <point x="696" y="0" type="line"/>
      <point x="1220" y="0" type="line"/>
      <point x="1220" y="724" type="line" smooth="yes"/>
      <point x="1220" y="879"/>
      <point x="1049" y="1024"/>
      <point x="854" y="1024" type="qcurve" smooth="yes"/>
      <point x="672" y="1024" type="line" smooth="yes"/>
      <point x="645" y="1024"/>
      <point x="607" y="1010"/>
      <point x="596" y="996" type="qcurve"/>
      <point x="596" y="1472" type="line"/>
      <point x="72" y="1472" type="line"/>
    </contour>
  </outline>
  <guideline angle="0" x="0" y="988"/>
  <guideline angle="0" x="0" y="870"/>
</glyph>
<glyph name="n" format="2">
  <advance width="1284"/>
  <unicode hex="006E"/>
  <anchor x="646" y="1174" name="top"/>
  <anchor x="646" y="-150" name="bottom"/>
  <outline>
    <contour>
      <point x="72" y="0" type="line"/>
      <point x="596" y="0" type="line"/>
      <point x="596" y="992" type="line"/>
      <point x="696" y="992" type="line"/>
      <point x="696" y="992"/>
      <point x="696" y="992"/>
      <point x="696" y="992" type="qcurve"/>
      <point x="696" y="0" type="line"/>
      <point x="1220" y="0" type="line"/>
      <point x="1220" y="724" type="line" smooth="yes"/>
      <point x="1220" y="879"/>
      <point x="1049" y="1024"/>
      <point x="854" y="1024" type="qcurve" smooth="yes"/>
      <point x="672" y="1024" type="line" smooth="yes"/>
      <point x="645" y="1024"/>
      <point x="607" y="1010"/>
      <point x="596" y="996" type="qcurve"/>
      <point x="596" y="1024" type="line"/>
      <point x="72" y="1024" type="line"/>
    </contour>
  </outline>
  <guideline angle="0" x="0" y="988"/>
  <guideline angle="0" x="0" y="870"/>
</glyph>
<glyph name="r" format="2">
  <advance width="1231"/>
  <unicode hex="0072"/>
  <anchor x="641" y="1174" name="top"/>
  <anchor x="334" y="-150" name="bottom"/>
  <anchor x="-28" y="512" name="left"/>
  <outline>
    <contour>
      <point x="72" y="0" type="line"/>
      <point x="596" y="0" type="line"/>
      <point x="596" y="992" type="line"/>
      <point x="686" y="992" type="line"/>
      <point x="686" y="992"/>
      <point x="686" y="992"/>
      <point x="686" y="992" type="qcurve"/>
      <point x="686" y="546" type="line"/>
      <point x="1210" y="644" type="line"/>
      <point x="1210" y="724" type="line" smooth="yes"/>
      <point x="1210" y="801"/>
      <point x="1169" y="914"/>
      <point x="1080" y="988"/>
      <point x="942" y="1024"/>
      <point x="844" y="1024" type="qcurve" smooth="yes"/>
      <point x="672" y="1024" type="line" smooth="yes"/>
      <point x="645" y="1024"/>
      <point x="607" y="1010"/>
      <point x="596" y="996" type="qcurve"/>
      <point x="596" y="1024" type="line"/>
      <point x="72" y="1024" type="line"/>
    </contour>
  </outline>
  <guideline angle="0" x="0" y="988"/>
  <guideline angle="0" x="0" y="870"/>
</glyph>
<glyph name="t" format="2">
  <advance width="829"/>
  <unicode hex="0074"/>
  <anchor x="361" y="1394" name="top"/>
  <anchor x="361" y="-156" name="bottom"/>
  <anchor x="635" y="1400" name="right"/>
  <outline>
    <contour>
      <point x="417" y="-6" type="qcurve" smooth="yes"/>
      <point x="774" y="-6" type="line"/>
      <point x="784" y="26" type="line"/>
      <point x="635" y="26" type="line"/>
      <point x="635" y="26"/>
      <point x="635" y="26"/>
      <point x="635" y="26" type="qcurve"/>
      <point x="635" y="992" type="line"/>
      <point x="804" y="992" type="line"/>
      <point x="804" y="1024" type="line"/>
      <point x="635" y="1024" type="line"/>
      <point x="635" y="1244" type="line"/>
      <point x="111" y="1244" type="line"/>
      <point x="111" y="1024" type="line"/>
      <point x="28" y="1024" type="line"/>
      <point x="28" y="992" type="line"/>
      <point x="111" y="992" type="line"/>
      <point x="111" y="250" type="line" smooth="yes"/>
      <point x="111" y="111"/>
      <point x="251" y="-6"/>
    </contour>
  </outline>
</glyph>
<glyph name="u" format="2">
  <advance width="1268"/>
  <unicode hex="0075"/>
  <anchor x="634" y="1174" name="top"/>
  <anchor x="634" y="-150" name="bottom"/>
  <anchor x="633" y="0" name="ogonek"/>
  <anchor x="942" y="1024" name="horn"/>
  <outline>
    <contour>
      <point x="64" y="204" type="line" smooth="yes"/>
      <point x="64" y="77"/>
      <point x="193" y="0"/>
      <point x="308" y="0" type="qcurve" smooth="yes"/>
      <point x="958" y="0" type="line" smooth="yes"/>
      <point x="1073" y="0"/>
      <point x="1204" y="77"/>
      <point x="1204" y="204" type="qcurve" smooth="yes"/>
      <point x="1204" y="1024" type="line"/>
      <point x="680" y="1024" type="line"/>
      <point x="680" y="32" type="line"/>
      <point x="680" y="32"/>
      <point x="680" y="32"/>
      <point x="680" y="32" type="qcurve"/>
      <point x="588" y="32" type="line"/>
      <point x="588" y="32"/>
      <point x="588" y="32"/>
      <point x="588" y="32" type="qcurve"/>
      <point x="588" y="1024" type="line"/>
      <point x="64" y="1024" type="line"/>
    </contour>
  </outline>
</glyph>
<glyph name="w" format="2">
  <advance width="1755"/>
  <unicode hex="0077"/>
  <anchor x="904" y="1174" name="top"/>
  <anchor x="888" y="-150" name="bottom"/>
  <outline>
    <contour>
      <point x="299" y="0" type="line"/>
      <point x="681" y="0" type="line"/>
      <point x="885" y="744" type="line"/>
      <point x="1078" y="0" type="line"/>
      <point x="1476" y="0" type="line"/>
      <point x="1755" y="1024" type="line"/>
      <point x="1722" y="1024" type="line"/>
      <point x="1526" y="304" type="line"/>
      <point x="1344" y="1024" type="line"/>
      <point x="928" y="1024" type="line"/>
      <point x="733" y="305" type="line"/>
      <point x="551" y="1024" type="line"/>
      <point x="0" y="1024" type="line"/>
    </contour>
  </outline>
</glyph>
<glyph name="x" format="2">
  <advance width="1206"/>
  <unicode hex="0078"/>
  <anchor x="603" y="1174" name="top"/>
  <anchor x="603" y="-150" name="bottom"/>
  <outline>
    <contour>
      <point x="10" y="0" type="line"/>
      <point x="54" y="0" type="line"/>
      <point x="406" y="357" type="line"/>
      <point x="624" y="0" type="line"/>
      <point x="1206" y="0" type="line"/>
      <point x="783" y="693" type="line"/>
      <point x="1100" y="1024" type="line"/>
      <point x="1056" y="1024" type="line"/>
      <point x="766" y="721" type="line"/>
      <point x="582" y="1024" type="line"/>
      <point x="0" y="1024" type="line"/>
      <point x="389" y="385" type="line"/>
    </contour>
  </outline>
</glyph>
<glyph name="z" format="2">
  <advance width="1092"/>
  <unicode hex="007A"/>
  <anchor x="546" y="1174" name="top"/>
  <anchor x="546" y="-150" name="bottom"/>
  <outline>
    <contour>
      <point x="28" y="0" type="line"/>
      <point x="1064" y="0" type="line"/>
      <point x="1064" y="32" type="line"/>
      <point x="617" y="32" type="line"/>
      <point x="624" y="21" type="line"/>
      <point x="1054" y="1006" type="line"/>
      <point x="1054" y="1024" type="line"/>
      <point x="79" y="1024" type="line"/>
      <point x="79" y="992" type="line"/>
      <point x="469" y="992" type="line"/>
      <point x="462" y="1003" type="line"/>
      <point x="28" y="18" type="line"/>
    </contour>
  </outline>
</glyph>
<glyph name="braceleft" format="2">
  <advance width="870"/>
  <unicode hex="007B"/>
  <outline>
    <contour>
      <point x="229" y="18" type="line" smooth="yes"/>
      <point x="229" y="-110.282"/>
      <point x="391.172" y="-256"/>
      <point x="527" y="-256" type="qcurve" smooth="yes"/>
      <point x="860" y="-256" type="line"/>
      <point x="860" y="-224" type="line"/>
      <point x="791" y="-224" type="line" smooth="yes"/>
      <point x="725.35" y="-224"/>
      <point x="669" y="-170.104"/>
      <point x="669" y="-112" type="qcurve" smooth="yes"/>
      <point x="669" y="317" type="line" smooth="yes"/>
      <point x="669" y="428.681"/>
      <point x="565.589" y="569.834"/>
      <point x="469" y="597" type="qcurve"/>
      <point x="565.589" y="624.166"/>
      <point x="669" y="765.319"/>
      <point x="669" y="877" type="qcurve" smooth="yes"/>
      <point x="669" y="1304" type="line" smooth="yes"/>
      <point x="669" y="1362.1"/>
      <point x="725.35" y="1416"/>
      <point x="791" y="1416" type="qcurve" smooth="yes"/>
      <point x="860" y="1416" type="line"/>
      <point x="860" y="1448" type="line"/>
      <point x="527" y="1448" type="line" smooth="yes"/>
      <point x="391.172" y="1448"/>
      <point x="229" y="1299.83"/>
      <point x="229" y="1164" type="qcurve" smooth="yes"/>
      <point x="229" y="791" type="line" smooth="yes"/>
      <point x="229" y="709.503"/>
      <point x="146.153" y="613"/>
      <point x="39" y="613" type="qcurve"/>
      <point x="39" y="581" type="line"/>
      <point x="146.153" y="581"/>
      <point x="229" y="485.251"/>
      <point x="229" y="403" type="qcurve" smooth="yes"/>
    </contour>
  </outline>
</glyph>
<glyph name="bar" format="2">
  <advance width="560"/>
  <unicode hex="007C"/>
  <outline>
    <contour>
      <point x="80" y="1520" type="line"/>
      <point x="80" y="-480" type="line"/>
      <point x="480" y="-480" type="line"/>
      <point x="480" y="1520" type="line"/>
    </contour>
  </outline>
</glyph>
<glyph name="braceright" format="2">
  <advance width="870"/>
  <unicode hex="007D"/>
  <outline>
    <contour>
      <point x="670" y="1174" type="line" smooth="yes"/>
      <point x="670" y="1302"/>
      <point x="508" y="1448"/>
      <point x="372" y="1448" type="qcurve" smooth="yes"/>
      <point x="39" y="1448" type="line"/>
      <point x="39" y="1416" type="line"/>
      <point x="108" y="1416" type="line" smooth="yes"/>
      <point x="174" y="1416"/>
      <point x="230" y="1362"/>
      <point x="230" y="1304" type="qcurve" smooth="yes"/>
      <point x="230" y="875" type="line" smooth="yes"/>
      <point x="230" y="763"/>
      <point x="333" y="622"/>
      <point x="430" y="595" type="qcurve"/>
      <point x="333" y="568"/>
      <point x="230" y="427"/>
      <point x="230" y="315" type="qcurve" smooth="yes"/>
      <point x="230" y="-112" type="line" smooth="yes"/>
      <point x="230" y="-170"/>
      <point x="174" y="-224"/>
      <point x="108" y="-224" type="qcurve" smooth="yes"/>
      <point x="39" y="-224" type="line"/>
      <point x="39" y="-256" type="line"/>
      <point x="372" y="-256" type="line" smooth="yes"/>
      <point x="508" y="-256"/>
      <point x="670" y="-108"/>
      <point x="670" y="28" type="qcurve" smooth="yes"/>
      <point x="670" y="401" type="line" smooth="yes"/>
      <point x="670" y="482"/>
      <point x="753" y="579"/>
      <point x="860" y="579" type="qcurve"/>
      <point x="860" y="611" type="line"/>
      <point x="753" y="611"/>
      <point x="670" y="707"/>
      <point x="670" y="789" type="qcurve" smooth="yes"/>
    </contour>
  </outline>
</glyph>
<glyph name="asciitilde" format="2">
  <advance width="590"/>
  <unicode hex="007E"/>
  <outline>
    <contour>
      <point x="-32" y="425" type="qcurve"/>
      <point x="3" y="419" type="line"/>
      <point x="5.625" y="440"/>
      <point x="18.625" y="469.938"/>
      <point x="38.875" y="489.062"/>
      <point x="66.125" y="498"/>
      <point x="83" y="498" type="qcurve" smooth="yes"/>
      <point x="120.125" y="498"/>
      <point x="200.25" y="469.562"/>
      <point x="287.25" y="435.438"/>
      <point x="381.625" y="407"/>
      <point x="433" y="407" type="qcurve" smooth="yes"/>
      <point x="488.5" y="407"/>
      <point x="554.125" y="459.906"/>
      <point x="592.375" y="552.344"/>
      <point x="612.25" y="677.625"/>
      <point x="622" y="750" type="qcurve"/>
      <point x="587" y="756" type="line"/>
      <point x="584.375" y="735"/>
      <point x="571.375" y="705.062"/>
      <point x="551.125" y="685.938"/>
      <point x="523.875" y="677"/>
      <point x="507" y="677" type="qcurve" smooth="yes"/>
      <point x="469.875" y="677"/>
      <point x="390.031" y="705.438"/>
      <point x="303.219" y="739.562"/>
      <point x="208.75" y="768"/>
      <point x="157" y="768" type="qcurve" smooth="yes"/>
      <point x="101.5" y="768"/>
      <point x="35.875" y="719.594"/>
      <point x="-2.375" y="630.156"/>
      <point x="-22.25" y="503.375"/>
    </contour>
  </outline>
</glyph>
<glyph name="cent" format="2">
  <advance width="1374"/>
  <unicode hex="00A2"/>
  <outline>
    <contour>
      <point x="660" y="-100" type="line"/>
      <point x="722" y="-100" type="line"/>
      <point x="722" y="144" type="line"/>
      <point x="1008" y="144" type="line" smooth="yes"/>
      <point x="1186.09" y="144"/>
      <point x="1332" y="267.608"/>
      <point x="1332" y="414" type="qcurve" smooth="yes"/>
      <point x="1332" y="516" type="line"/>
      <point x="808" y="624" type="line"/>
      <point x="808" y="176" type="line"/>
      <point x="808" y="176"/>
      <point x="808" y="176"/>
      <point x="808" y="176" type="qcurve"/>
      <point x="722" y="176" type="line"/>
      <point x="722" y="1148" type="line"/>
      <point x="804" y="1148" type="line"/>
      <point x="804" y="1148"/>
      <point x="804" y="1148"/>
      <point x="804" y="1148" type="qcurve"/>
      <point x="804" y="702" type="line"/>
      <point x="1328" y="800" type="line"/>
      <point x="1328" y="924" type="line" smooth="yes"/>
      <point x="1328" y="1062.85"/>
      <point x="1181.07" y="1180"/>
      <point x="1006" y="1180" type="qcurve" smooth="yes"/>
      <point x="722" y="1180" type="line"/>
      <point x="722" y="1400" type="line"/>
      <point x="660" y="1400" type="line"/>
      <point x="660" y="1180" type="line"/>
      <point x="382" y="1180" type="line" smooth="yes"/>
      <point x="206.933" y="1180"/>
      <point x="56" y="1060.36"/>
      <point x="56" y="920" type="qcurve" smooth="yes"/>
      <point x="56" y="414" type="line" smooth="yes"/>
      <point x="56" y="267.608"/>
      <point x="201.914" y="144"/>
      <point x="380" y="144" type="qcurve" smooth="yes"/>
      <point x="660" y="144" type="line"/>
    </contour>
    <contour>
      <point x="660" y="1148" type="line"/>
      <point x="660" y="176" type="line"/>
      <point x="580" y="176" type="line"/>
      <point x="580" y="176"/>
      <point x="580" y="176"/>
      <point x="580" y="176" type="qcurve"/>
      <point x="580" y="1148" type="line"/>
      <point x="580" y="1148"/>
      <point x="580" y="1148"/>
      <point x="580" y="1148" type="qcurve"/>
    </contour>
  </outline>
</glyph>
<glyph name="currency" format="2">
  <advance width="1456"/>
  <unicode hex="00A4"/>
  <outline>
    <contour>
      <point x="-19" y="-33" type="line"/>
      <point x="244" y="230" type="line"/>
      <point x="282" y="205"/>
      <point x="387" y="182"/>
      <point x="458" y="182" type="qcurve" smooth="yes"/>
      <point x="994" y="182" type="line" smooth="yes"/>
      <point x="1066" y="182"/>
      <point x="1173" y="206"/>
      <point x="1210" y="232" type="qcurve"/>
      <point x="1475" y="-33" type="line"/>
      <point x="1500" y="-8" type="line"/>
      <point x="1238" y="254" type="line"/>
      <point x="1270" y="286"/>
      <point x="1300" y="381"/>
      <point x="1300" y="446" type="qcurve" smooth="yes"/>
      <point x="1300" y="964" type="line" smooth="yes"/>
      <point x="1300" y="1024"/>
      <point x="1270" y="1114"/>
      <point x="1238" y="1146" type="qcurve"/>
      <point x="1500" y="1408" type="line"/>
      <point x="1475" y="1433" type="line"/>
      <point x="1210" y="1168" type="line"/>
      <point x="1173" y="1194"/>
      <point x="1066" y="1218"/>
      <point x="994" y="1218" type="qcurve" smooth="yes"/>
      <point x="458" y="1218" type="line" smooth="yes"/>
      <point x="387" y="1218"/>
      <point x="282" y="1194"/>
      <point x="244" y="1170" type="qcurve"/>
      <point x="-19" y="1433" type="line"/>
      <point x="-44" y="1408" type="line"/>
      <point x="216" y="1148" type="line"/>
      <point x="184" y="1116"/>
      <point x="152" y="1025"/>
      <point x="152" y="964" type="qcurve" smooth="yes"/>
      <point x="152" y="446" type="line" smooth="yes"/>
      <point x="152" y="380"/>
      <point x="183" y="285"/>
      <point x="217" y="253" type="qcurve"/>
      <point x="-44" y="-8" type="line"/>
    </contour>
    <contour>
      <point x="676" y="214" type="line"/>
      <point x="676" y="214"/>
      <point x="676" y="214"/>
      <point x="676" y="214" type="qcurve"/>
      <point x="676" y="1186" type="line"/>
      <point x="676" y="1186"/>
      <point x="676" y="1186"/>
      <point x="676" y="1186" type="qcurve"/>
      <point x="776" y="1186" type="line"/>
      <point x="776" y="1186"/>
      <point x="776" y="1186"/>
      <point x="776" y="1186" type="qcurve"/>
      <point x="776" y="214" type="line"/>
      <point x="776" y="214"/>
      <point x="776" y="214"/>
      <point x="776" y="214" type="qcurve"/>
    </contour>
  </outline>
</glyph>
<glyph name="section" format="2">
  <advance width="1190"/>
  <unicode hex="00A7"/>
  <outline>
    <contour>
      <point x="380" y="-136" type="qcurve" smooth="yes"/>
      <point x="794" y="-136" type="line" smooth="yes"/>
      <point x="925" y="-136"/>
      <point x="1072" y="-49"/>
      <point x="1072" y="96" type="qcurve" smooth="yes"/>
      <point x="1072" y="179" type="line" smooth="yes"/>
      <point x="1072" y="263"/>
      <point x="1017" y="354"/>
      <point x="967" y="376" type="qcurve"/>
      <point x="1009" y="382"/>
      <point x="1074" y="412"/>
      <point x="1119" y="465"/>
      <point x="1142" y="544"/>
      <point x="1142" y="601" type="qcurve" smooth="yes"/>
      <point x="1142" y="684" type="line" smooth="yes"/>
      <point x="1142" y="826"/>
      <point x="989" y="906"/>
      <point x="864" y="906" type="qcurve" smooth="yes"/>
      <point x="550" y="906" type="line"/>
      <point x="550" y="906"/>
      <point x="550" y="906"/>
      <point x="550" y="906" type="qcurve"/>
      <point x="550" y="1373" type="line"/>
      <point x="550" y="1373"/>
      <point x="550" y="1373"/>
      <point x="550" y="1373" type="qcurve"/>
      <point x="630" y="1373" type="line"/>
      <point x="630" y="1373"/>
      <point x="630" y="1373"/>
      <point x="630" y="1373" type="qcurve"/>
      <point x="630" y="1071" type="line"/>
      <point x="1058" y="1137" type="line"/>
      <point x="1058" y="1183" type="line" smooth="yes"/>
      <point x="1058" y="1322"/>
      <point x="905" y="1405"/>
      <point x="780" y="1405" type="qcurve" smooth="yes"/>
      <point x="408" y="1405" type="line" smooth="yes"/>
      <point x="283" y="1405"/>
      <point x="126" y="1319"/>
      <point x="126" y="1179" type="qcurve" smooth="yes"/>
      <point x="126" y="1132" type="line" smooth="yes"/>
      <point x="126" y="1039"/>
      <point x="192" y="928"/>
      <point x="252" y="901" type="qcurve"/>
      <point x="207" y="895"/>
      <point x="135" y="868"/>
      <point x="84" y="816"/>
      <point x="56" y="737"/>
      <point x="56" y="680" type="qcurve" smooth="yes"/>
      <point x="56" y="627" type="line" smooth="yes"/>
      <point x="56" y="484"/>
      <point x="202" y="369"/>
      <point x="332" y="369" type="qcurve" smooth="yes"/>
      <point x="628" y="369" type="line"/>
      <point x="628" y="369"/>
      <point x="628" y="369"/>
      <point x="628" y="369" type="qcurve"/>
      <point x="628" y="-104" type="line"/>
      <point x="628" y="-104"/>
      <point x="628" y="-104"/>
      <point x="628" y="-104" type="qcurve"/>
      <point x="548" y="-104" type="line"/>
      <point x="548" y="-104"/>
      <point x="548" y="-104"/>
      <point x="548" y="-104" type="qcurve"/>
      <point x="548" y="206" type="line"/>
      <point x="104" y="138" type="line"/>
      <point x="104" y="96" type="line" smooth="yes"/>
      <point x="104" y="-49"/>
      <point x="250" y="-136"/>
    </contour>
    <contour>
      <point x="480" y="401" type="line"/>
      <point x="480" y="401"/>
      <point x="480" y="401"/>
      <point x="480" y="401" type="qcurve"/>
      <point x="480" y="874" type="line"/>
      <point x="480" y="874"/>
      <point x="480" y="874"/>
      <point x="480" y="874" type="qcurve"/>
      <point x="698" y="874" type="line"/>
      <point x="698" y="874"/>
      <point x="698" y="874"/>
      <point x="698" y="874" type="qcurve"/>
      <point x="698" y="401" type="line"/>
      <point x="698" y="401"/>
      <point x="698" y="401"/>
      <point x="698" y="401" type="qcurve"/>
    </contour>
  </outline>
</glyph>
<glyph name="dieresis" format="2">
  <advance width="892"/>
  <unicode hex="00A8"/>
  <outline>
    <contour>
      <point x="120" y="1110" type="qcurve" smooth="yes"/>
      <point x="252" y="1110" type="line" smooth="yes"/>
      <point x="333" y="1110"/>
      <point x="362" y="1139"/>
      <point x="362" y="1220" type="qcurve" smooth="yes"/>
      <point x="362" y="1342" type="line" smooth="yes"/>
      <point x="362" y="1422"/>
      <point x="333" y="1450"/>
      <point x="252" y="1450" type="qcurve" smooth="yes"/>
      <point x="120" y="1450" type="line" smooth="yes"/>
      <point x="39" y="1450"/>
      <point x="10" y="1422"/>
      <point x="10" y="1342" type="qcurve" smooth="yes"/>
      <point x="10" y="1220" type="line" smooth="yes"/>
      <point x="10" y="1139"/>
      <point x="39" y="1110"/>
    </contour>
    <contour>
      <point x="640" y="1110" type="qcurve" smooth="yes"/>
      <point x="772" y="1110" type="line" smooth="yes"/>
      <point x="853" y="1110"/>
      <point x="882" y="1139"/>
      <point x="882" y="1220" type="qcurve" smooth="yes"/>
      <point x="882" y="1342" type="line" smooth="yes"/>
      <point x="882" y="1422"/>
      <point x="853" y="1450"/>
      <point x="772" y="1450" type="qcurve" smooth="yes"/>
      <point x="640" y="1450" type="line" smooth="yes"/>
      <point x="559" y="1450"/>
      <point x="530" y="1422"/>
      <point x="530" y="1342" type="qcurve" smooth="yes"/>
      <point x="530" y="1220" type="line" smooth="yes"/>
      <point x="530" y="1139"/>
      <point x="559" y="1110"/>
    </contour>
  </outline>
</glyph>
<glyph name="copyright" format="2">
  <advance width="1656"/>
  <unicode hex="00A9"/>
  <outline>
    <contour>
      <point x="356" y="548" type="line" smooth="yes"/>
      <point x="356" y="402"/>
      <point x="502" y="278"/>
      <point x="680" y="278" type="qcurve" smooth="yes"/>
      <point x="976" y="278" type="line" smooth="yes"/>
      <point x="1154" y="278"/>
      <point x="1300" y="402"/>
      <point x="1300" y="548" type="qcurve" smooth="yes"/>
      <point x="1300" y="575" type="line"/>
      <point x="866" y="662" type="line"/>
      <point x="866" y="310" type="line"/>
      <point x="866" y="310"/>
      <point x="866" y="310"/>
      <point x="866" y="310" type="qcurve"/>
      <point x="790" y="310" type="line"/>
      <point x="790" y="310"/>
      <point x="790" y="310"/>
      <point x="790" y="310" type="qcurve"/>
      <point x="790" y="1090" type="line"/>
      <point x="790" y="1090"/>
      <point x="790" y="1090"/>
      <point x="790" y="1090" type="qcurve"/>
      <point x="862" y="1090" type="line"/>
      <point x="862" y="1090"/>
      <point x="862" y="1090"/>
      <point x="862" y="1090" type="qcurve"/>
      <point x="862" y="745" type="line"/>
      <point x="1296" y="832" type="line"/>
      <point x="1296" y="866" type="line" smooth="yes"/>
      <point x="1296" y="1005"/>
      <point x="1149" y="1122"/>
      <point x="974" y="1122" type="qcurve" smooth="yes"/>
      <point x="682" y="1122" type="line" smooth="yes"/>
      <point x="507" y="1122"/>
      <point x="356" y="1002"/>
      <point x="356" y="862" type="qcurve" smooth="yes"/>
    </contour>
    <contour>
      <point x="64" y="904" type="qcurve" smooth="yes"/>
      <point x="64" y="508" type="line" smooth="yes"/>
      <point x="64" y="300"/>
      <point x="278" y="162"/>
      <point x="476" y="162" type="qcurve" smooth="yes"/>
      <point x="1172" y="162" type="line" smooth="yes"/>
      <point x="1371" y="162"/>
      <point x="1586" y="300"/>
      <point x="1586" y="508" type="qcurve" smooth="yes"/>
      <point x="1586" y="904" type="line" smooth="yes"/>
      <point x="1586" y="1111"/>
      <point x="1370" y="1238"/>
      <point x="1172" y="1238" type="qcurve" smooth="yes"/>
      <point x="476" y="1238" type="line" smooth="yes"/>
      <point x="279" y="1238"/>
      <point x="64" y="1104"/>
    </contour>
    <contour>
      <point x="258" y="1048" type="line" smooth="yes"/>
      <point x="258" y="1144"/>
      <point x="371" y="1206"/>
      <point x="476" y="1206" type="qcurve" smooth="yes"/>
      <point x="1172" y="1206" type="line" smooth="yes"/>
      <point x="1278" y="1206"/>
      <point x="1392" y="1144"/>
      <point x="1392" y="1049" type="qcurve" smooth="yes"/>
      <point x="1392" y="368" type="line" smooth="yes"/>
      <point x="1392" y="262"/>
      <point x="1278" y="194"/>
      <point x="1172" y="194" type="qcurve" smooth="yes"/>
      <point x="476" y="194" type="line" smooth="yes"/>
      <point x="370" y="194"/>
      <point x="258" y="263"/>
      <point x="258" y="369" type="qcurve" smooth="yes"/>
    </contour>
  </outline>
</glyph>
<glyph name="ordfeminine" format="2">
  <advance width="859"/>
  <unicode hex="00AA"/>
  <outline>
    <contour>
      <point x="227" y="784" type="qcurve" smooth="yes"/>
      <point x="351" y="784" type="line" smooth="yes"/>
      <point x="389" y="784"/>
      <point x="439" y="798"/>
      <point x="453" y="812" type="qcurve"/>
      <point x="453" y="793" type="line"/>
      <point x="793" y="793" type="line"/>
      <point x="793" y="1292" type="line" smooth="yes"/>
      <point x="793" y="1402"/>
      <point x="687" y="1472"/>
      <point x="600" y="1472" type="qcurve" smooth="yes"/>
      <point x="244" y="1472" type="line" smooth="yes"/>
      <point x="157" y="1472"/>
      <point x="51" y="1401"/>
      <point x="51" y="1294" type="qcurve" smooth="yes"/>
      <point x="51" y="1276" type="line"/>
      <point x="391" y="1215" type="line"/>
      <point x="391" y="1440" type="line"/>
      <point x="391" y="1440"/>
      <point x="391" y="1440"/>
      <point x="391" y="1440" type="qcurve"/>
      <point x="453" y="1440" type="line"/>
      <point x="453" y="1440"/>
      <point x="453" y="1440"/>
      <point x="453" y="1440" type="qcurve"/>
      <point x="453" y="1147" type="line"/>
      <point x="227" y="1147" type="line" smooth="yes"/>
      <point x="146" y="1147"/>
      <point x="34" y="1084"/>
      <point x="34" y="988" type="qcurve" smooth="yes"/>
      <point x="34" y="950" type="line" smooth="yes"/>
      <point x="34" y="853"/>
      <point x="146" y="784"/>
    </contour>
    <contour>
      <point x="374" y="816" type="qcurve"/>
      <point x="374" y="1115" type="line"/>
      <point x="374" y="1115"/>
      <point x="374" y="1115"/>
      <point x="374" y="1115" type="qcurve"/>
      <point x="453" y="1115" type="line"/>
      <point x="453" y="816" type="line"/>
      <point x="374" y="816" type="line"/>
      <point x="374" y="816"/>
      <point x="374" y="816"/>
    </contour>
  </outline>
  <guideline angle="0" x="0" y="36"/>
  <guideline angle="0" x="0" y="272"/>
  <guideline angle="0" x="0" y="36"/>
  <guideline angle="0" x="0" y="272"/>
</glyph>
<glyph name="guillemotleft" format="2">
  <advance width="877"/>
  <unicode hex="00AB"/>
  <outline>
    <contour>
      <point x="384" y="130" type="line"/>
      <point x="415" y="130" type="line"/>
      <point x="289" y="512" type="line"/>
      <point x="415" y="894" type="line"/>
      <point x="384" y="894" type="line"/>
      <point x="0" y="512" type="line"/>
    </contour>
    <contour>
      <point x="821" y="130" type="line"/>
      <point x="852" y="130" type="line"/>
      <point x="726" y="512" type="line"/>
      <point x="852" y="894" type="line"/>
      <point x="821" y="894" type="line"/>
      <point x="437" y="512" type="line"/>
    </contour>
  </outline>
</glyph>
<glyph name="logicalnot" format="2">
  <advance width="590"/>
  <unicode hex="00AC"/>
  <outline>
    <contour>
      <point x="538" y="380" type="line"/>
      <point x="538" y="735" type="line"/>
      <point x="52" y="735" type="line"/>
      <point x="52" y="699" type="line"/>
      <point x="498" y="699" type="line"/>
      <point x="498" y="380" type="line"/>
    </contour>
  </outline>
</glyph>
<glyph name="registered" format="2">
  <advance width="680"/>
  <unicode hex="00AE"/>
  <outline>
    <contour>
      <point x="28" y="1058" type="line" smooth="yes"/>
      <point x="28" y="988.577"/>
      <point x="103.331" y="915"/>
      <point x="172" y="915" type="qcurve" smooth="yes"/>
      <point x="507" y="915" type="line" smooth="yes"/>
      <point x="576.423" y="915"/>
      <point x="652" y="988.577"/>
      <point x="652" y="1058" type="qcurve" smooth="yes"/>
      <point x="652" y="1408" type="line" smooth="yes"/>
      <point x="652" y="1476.67"/>
      <point x="576.423" y="1550"/>
      <point x="507" y="1550" type="qcurve" smooth="yes"/>
      <point x="172" y="1550" type="line" smooth="yes"/>
      <point x="103.331" y="1550"/>
      <point x="28" y="1476.67"/>
      <point x="28" y="1408" type="qcurve" smooth="yes"/>
    </contour>
    <contour>
      <point x="115" y="1393" type="line" smooth="yes"/>
      <point x="115" y="1432.99"/>
      <point x="152.761" y="1474"/>
      <point x="192" y="1474" type="qcurve" smooth="yes"/>
      <point x="487" y="1474" type="line" smooth="yes"/>
      <point x="526.994" y="1474"/>
      <point x="565" y="1432.99"/>
      <point x="565" y="1393" type="qcurve" smooth="yes"/>
      <point x="565" y="1073" type="line" smooth="yes"/>
      <point x="565" y="1033.01"/>
      <point x="540.994" y="991"/>
      <point x="501" y="991" type="qcurve" smooth="yes"/>
      <point x="192" y="991" type="line" smooth="yes"/>
      <point x="152.761" y="991"/>
      <point x="115" y="1033.01"/>
      <point x="115" y="1073" type="qcurve" smooth="yes"/>
    </contour>
    <contour>
      <point x="195" y="1400" type="line"/>
      <point x="195" y="1060" type="line"/>
      <point x="322" y="1060" type="line"/>
      <point x="322" y="1181" type="line"/>
      <point x="323" y="1181" type="line"/>
      <point x="383" y="1060" type="line"/>
      <point x="525" y="1060" type="line"/>
      <point x="449" y="1189" type="line"/>
      <point x="449" y="1189" type="line"/>
      <point x="469.374" y="1196.55"/>
      <point x="492" y="1229.82"/>
      <point x="492" y="1260" type="qcurve" smooth="yes"/>
      <point x="492" y="1321" type="line" smooth="yes"/>
      <point x="492" y="1369.29"/>
      <point x="439.276" y="1400"/>
      <point x="394" y="1400" type="qcurve" smooth="yes"/>
    </contour>
    <contour>
      <point x="322" y="1213" type="line"/>
      <point x="322" y="1368" type="line"/>
      <point x="352" y="1368" type="line" smooth="yes"/>
      <point x="360.301" y="1368"/>
      <point x="367" y="1359.79"/>
      <point x="367" y="1353" type="qcurve" smooth="yes"/>
      <point x="367" y="1228" type="line" smooth="yes"/>
      <point x="367" y="1220.45"/>
      <point x="360.301" y="1213"/>
      <point x="352" y="1213" type="qcurve" smooth="yes"/>
    </contour>
  </outline>
</glyph>
<glyph name="macron" format="2">
  <advance width="600"/>
  <unicode hex="00AF"/>
  <outline>
    <contour>
      <point x="10" y="1212" type="line"/>
      <point x="590" y="1212" type="line"/>
      <point x="590" y="1244" type="line"/>
      <point x="10" y="1244" type="line"/>
    </contour>
  </outline>
</glyph>
<glyph name="degree" format="2">
  <advance width="596"/>
  <unicode hex="00B0"/>
  <outline>
    <contour>
      <point x="28" y="1169" type="line" smooth="yes"/>
      <point x="28" y="1078.45"/>
      <point x="121.356" y="996"/>
      <point x="227" y="996" type="qcurve" smooth="yes"/>
      <point x="368" y="996" type="line" smooth="yes"/>
      <point x="475.153" y="996"/>
      <point x="568" y="1078.45"/>
      <point x="568" y="1169" type="qcurve" smooth="yes"/>
      <point x="568" y="1364" type="line" smooth="yes"/>
      <point x="568" y="1450.02"/>
      <point x="472.889" y="1530"/>
      <point x="368" y="1530" type="qcurve" smooth="yes"/>
      <point x="227" y="1530" type="line" smooth="yes"/>
      <point x="122.865" y="1530"/>
      <point x="28" y="1450.02"/>
      <point x="28" y="1364" type="qcurve" smooth="yes"/>
    </contour>
    <contour>
      <point x="253" y="1028" type="qcurve"/>
      <point x="253" y="1498" type="line"/>
      <point x="253" y="1498"/>
      <point x="253" y="1498"/>
      <point x="253" y="1498" type="qcurve"/>
      <point x="343" y="1498" type="line"/>
      <point x="343" y="1498"/>
      <point x="343" y="1498"/>
      <point x="343" y="1498" type="qcurve"/>
      <point x="343" y="1028" type="line"/>
      <point x="343" y="1028"/>
      <point x="343" y="1028"/>
      <point x="343" y="1028" type="qcurve"/>
      <point x="253" y="1028" type="line"/>
      <point x="253" y="1028"/>
      <point x="253" y="1028"/>
    </contour>
  </outline>
</glyph>
<glyph name="plusminus" format="2">
  <advance width="590"/>
  <unicode hex="00B1"/>
  <outline>
    <contour>
      <point x="538" y="605" type="line"/>
      <point x="315" y="605" type="line"/>
      <point x="315" y="877" type="line"/>
      <point x="275" y="877" type="line"/>
      <point x="275" y="605" type="line"/>
      <point x="52" y="605" type="line"/>
      <point x="52" y="569" type="line"/>
      <point x="275" y="569" type="line"/>
      <point x="275" y="291" type="line"/>
      <point x="315" y="291" type="line"/>
      <point x="315" y="569" type="line"/>
      <point x="538" y="569" type="line"/>
    </contour>
    <contour>
      <point x="52" y="0" type="line"/>
      <point x="538" y="0" type="line"/>
      <point x="538" y="36" type="line"/>
      <point x="52" y="36" type="line"/>
    </contour>
  </outline>
</glyph>
<glyph name="uni00B5" format="2">
  <advance width="1310"/>
  <unicode hex="00B5"/>
  <outline>
    <contour>
      <point x="72" y="-428" type="line"/>
      <point x="596" y="-378" type="line"/>
      <point x="596" y="22" type="line"/>
      <point x="604.301" y="7.6626"/>
      <point x="626.153" y="-6"/>
      <point x="642" y="-6" type="qcurve"/>
      <point x="642" y="-6" type="line"/>
      <point x="657.092" y="-6"/>
      <point x="679.699" y="7.6626"/>
      <point x="688" y="22" type="qcurve"/>
      <point x="688" y="0" type="line"/>
      <point x="1238" y="0" type="line"/>
      <point x="1238" y="1024" type="line"/>
      <point x="688" y="1024" type="line"/>
      <point x="688" y="114" type="line" smooth="yes"/>
      <point x="688" y="70.9878"/>
      <point x="666.902" y="26"/>
      <point x="642" y="26" type="qcurve"/>
      <point x="642" y="26" type="line"/>
      <point x="617.098" y="26"/>
      <point x="596" y="70.9878"/>
      <point x="596" y="114" type="qcurve" smooth="yes"/>
      <point x="596" y="1024" type="line"/>
      <point x="72" y="1024" type="line"/>
    </contour>
  </outline>
</glyph>
<glyph name="paragraph" format="2">
  <advance width="1007"/>
  <unicode hex="00B6"/>
  <outline>
    <contour>
      <point x="927" y="0" type="line"/>
      <point x="927" y="1400" type="line"/>
      <point x="430" y="1400" type="line" smooth="yes"/>
      <point x="241" y="1400"/>
      <point x="16" y="1267"/>
      <point x="16" y="1066" type="qcurve" smooth="yes"/>
      <point x="16" y="686" type="line" smooth="yes"/>
      <point x="16" y="585.5"/>
      <point x="74.5" y="458.5"/>
      <point x="182.5" y="386.5"/>
      <point x="335.5" y="360"/>
      <point x="430" y="360" type="qcurve" smooth="yes"/>
      <point x="455" y="360" type="line"/>
      <point x="455" y="0" type="line"/>
      <point x="647" y="0" type="line"/>
      <point x="647" y="1364" type="line"/>
      <point x="735" y="1364" type="line"/>
      <point x="735" y="0" type="line"/>
    </contour>
  </outline>
  <guideline angle="90" color="0.4,0.4,0.4,1" name="halfwidth" x="503.5" y="0"/>
</glyph>
<glyph name="cedilla" format="2">
  <advance width="378"/>
  <unicode hex="00B8"/>
  <outline>
    <contour>
      <point x="146" y="-438" type="qcurve" smooth="yes"/>
      <point x="188" y="-438"/>
      <point x="268" y="-414"/>
      <point x="330" y="-366"/>
      <point x="368" y="-293"/>
      <point x="368" y="-245" type="qcurve" smooth="yes"/>
      <point x="368" y="-208"/>
      <point x="344" y="-149"/>
      <point x="297" y="-106"/>
      <point x="227" y="-81"/>
      <point x="180" y="-78" type="qcurve"/>
      <point x="208" y="0" type="line"/>
      <point x="106" y="0" type="line"/>
      <point x="69" y="-104" type="line"/>
      <point x="77" y="-101"/>
      <point x="88" y="-99"/>
      <point x="96" y="-99" type="qcurve" smooth="yes"/>
      <point x="125" y="-99"/>
      <point x="157" y="-172"/>
      <point x="157" y="-245" type="qcurve" smooth="yes"/>
      <point x="157" y="-319"/>
      <point x="125" y="-403"/>
      <point x="95" y="-403" type="qcurve" smooth="yes"/>
      <point x="80" y="-403"/>
      <point x="49" y="-383"/>
      <point x="37" y="-366" type="qcurve"/>
      <point x="10" y="-387" type="line"/>
      <point x="40" y="-416"/>
      <point x="95" y="-438"/>
    </contour>
  </outline>
</glyph>
<glyph name="onesuperior" format="2">
  <advance width="484"/>
  <unicode hex="00B9"/>
  <outline>
    <contour>
      <point x="126" y="950" type="line"/>
      <point x="420" y="950" type="line"/>
      <point x="420" y="1744" type="line"/>
      <point x="19" y="1689" type="line"/>
      <point x="19" y="1659" type="line"/>
      <point x="126" y="1672" type="line"/>
    </contour>
  </outline>
  <guideline angle="90" color="0.4,0.4,0.4,1" name="halfwidth" x="242" y="0"/>
</glyph>
<glyph name="ordmasculine" format="2">
  <advance width="838"/>
  <unicode hex="00BA"/>
  <outline>
    <contour>
      <point x="42" y="956" type="line" smooth="yes"/>
      <point x="42" y="865.448"/>
      <point x="136.356" y="784"/>
      <point x="242" y="784" type="qcurve" smooth="yes"/>
      <point x="596" y="784" type="line" smooth="yes"/>
      <point x="702.399" y="784"/>
      <point x="796" y="865.448"/>
      <point x="796" y="956" type="qcurve" smooth="yes"/>
      <point x="796" y="1307" type="line" smooth="yes"/>
      <point x="796" y="1392.27"/>
      <point x="700.889" y="1472"/>
      <point x="596" y="1472" type="qcurve" smooth="yes"/>
      <point x="242" y="1472" type="line" smooth="yes"/>
      <point x="137.111" y="1472"/>
      <point x="42" y="1392.27"/>
      <point x="42" y="1307" type="qcurve" smooth="yes"/>
    </contour>
    <contour>
      <point x="382" y="816" type="qcurve"/>
      <point x="382" y="1440" type="line"/>
      <point x="382" y="1440"/>
      <point x="382" y="1440"/>
      <point x="382" y="1440" type="qcurve"/>
      <point x="456" y="1440" type="line"/>
      <point x="456" y="1440"/>
      <point x="456" y="1440"/>
      <point x="456" y="1440" type="qcurve"/>
      <point x="456" y="816" type="line"/>
      <point x="456" y="816"/>
      <point x="456" y="816"/>
      <point x="456" y="816" type="qcurve"/>
      <point x="382" y="816" type="line"/>
      <point x="382" y="816"/>
      <point x="382" y="816"/>
    </contour>
  </outline>
</glyph>
<glyph name="guillemotright" format="2">
  <advance width="877"/>
  <unicode hex="00BB"/>
  <outline>
    <contour>
      <point x="468" y="894" type="line"/>
      <point x="437" y="894" type="line"/>
      <point x="563" y="512" type="line"/>
      <point x="437" y="130" type="line"/>
      <point x="468" y="130" type="line"/>
      <point x="852" y="512" type="line"/>
    </contour>
    <contour>
      <point x="31" y="894" type="line"/>
      <point x="0" y="894" type="line"/>
      <point x="126" y="512" type="line"/>
      <point x="0" y="130" type="line"/>
      <point x="31" y="130" type="line"/>
      <point x="415" y="512" type="line"/>
    </contour>
  </outline>
</glyph>
<glyph name="onequarter" format="2">
  <advance width="1345"/>
  <unicode hex="00BC"/>
  <outline>
    <contour>
      <point x="126" y="614" type="line"/>
      <point x="420" y="614" type="line"/>
      <point x="420" y="1408" type="line"/>
      <point x="19" y="1353" type="line"/>
      <point x="19" y="1323" type="line"/>
      <point x="126" y="1336" type="line"/>
    </contour>
    <contour>
      <point x="226" y="0" type="line"/>
      <point x="259" y="0" type="line"/>
      <point x="863" y="1400" type="line"/>
      <point x="830" y="1400" type="line"/>
    </contour>
    <contour>
      <point x="613" y="195" type="line"/>
      <point x="950" y="195" type="line"/>
      <point x="950" y="0" type="line"/>
      <point x="1244" y="0" type="line"/>
      <point x="1244" y="195" type="line"/>
      <point x="1304" y="195" type="line"/>
      <point x="1304" y="225" type="line"/>
      <point x="1244" y="225" type="line"/>
      <point x="1244" y="784" type="line"/>
      <point x="1071" y="784" type="line"/>
      <point x="613" y="220" type="line"/>
    </contour>
    <contour>
      <point x="656" y="225" type="line"/>
      <point x="950" y="587" type="line"/>
      <point x="950" y="225" type="line"/>
    </contour>
  </outline>
  <guideline angle="90" color="0.4,0.4,0.4,1" name="halfwidth" x="672.5" y="0"/>
</glyph>
<glyph name="onehalf" format="2">
  <advance width="1373"/>
  <unicode hex="00BD"/>
  <outline>
    <contour>
      <point x="126" y="614" type="line"/>
      <point x="420" y="614" type="line"/>
      <point x="420" y="1408" type="line"/>
      <point x="19" y="1353" type="line"/>
      <point x="19" y="1323" type="line"/>
      <point x="126" y="1336" type="line"/>
    </contour>
    <contour>
      <point x="830" y="1400" type="line"/>
      <point x="226" y="0" type="line"/>
      <point x="259" y="0" type="line"/>
      <point x="863" y="1400" type="line"/>
    </contour>
    <contour>
      <point x="669" y="0" type="line"/>
      <point x="1101" y="0" type="line" smooth="yes"/>
      <point x="1202" y="0"/>
      <point x="1322" y="73"/>
      <point x="1322" y="192" type="qcurve" smooth="yes"/>
      <point x="1322" y="225" type="line"/>
      <point x="1042" y="279" type="line"/>
      <point x="1042" y="30" type="line"/>
      <point x="1042" y="30"/>
      <point x="1042" y="30"/>
      <point x="1042" y="30" type="qcurve"/>
      <point x="946" y="30" type="line"/>
      <point x="946" y="348" type="line"/>
      <point x="946" y="348"/>
      <point x="946" y="348"/>
      <point x="946" y="348" type="qcurve"/>
      <point x="1103" y="390" type="line" smooth="yes"/>
      <point x="1231" y="424"/>
      <point x="1306" y="518"/>
      <point x="1306" y="605" type="qcurve" smooth="yes"/>
      <point x="1306" y="620" type="line" smooth="yes"/>
      <point x="1306" y="720"/>
      <point x="1180" y="790"/>
      <point x="1080" y="790" type="qcurve" smooth="yes"/>
      <point x="896" y="790" type="line" smooth="yes"/>
      <point x="796" y="790"/>
      <point x="674" y="721"/>
      <point x="674" y="606" type="qcurve" smooth="yes"/>
      <point x="674" y="559" type="line"/>
      <point x="943" y="505" type="line"/>
      <point x="943" y="760" type="line"/>
      <point x="943" y="760"/>
      <point x="943" y="760"/>
      <point x="943" y="760" type="qcurve"/>
      <point x="1036" y="760" type="line"/>
      <point x="1036" y="760"/>
      <point x="1036" y="760"/>
      <point x="1036" y="760" type="qcurve"/>
      <point x="1036" y="403" type="line"/>
      <point x="1036" y="403"/>
      <point x="1036" y="403"/>
      <point x="1036" y="403" type="qcurve"/>
      <point x="819" y="345" type="line" smooth="yes"/>
      <point x="747" y="325"/>
      <point x="669" y="213"/>
      <point x="669" y="118" type="qcurve" smooth="yes"/>
    </contour>
  </outline>
  <guideline angle="90" color="0.4,0.4,0.4,1" name="halfwidth" x="686.5" y="0"/>
</glyph>
<glyph name="threequarters" format="2">
  <advance width="1634"/>
  <unicode hex="00BE"/>
  <outline>
    <contour>
      <point x="64" y="839" type="line"/>
      <point x="64" y="794" type="line" smooth="yes"/>
      <point x="64" y="686.092"/>
      <point x="180.129" y="614"/>
      <point x="282" y="614" type="qcurve" smooth="yes"/>
      <point x="481" y="614" type="line" smooth="yes"/>
      <point x="583.626" y="614"/>
      <point x="709" y="691.847"/>
      <point x="709" y="799" type="qcurve" smooth="yes"/>
      <point x="709" y="848" type="line" smooth="yes"/>
      <point x="709" y="937.043"/>
      <point x="637.932" y="1016.21"/>
      <point x="567" y="1023" type="qcurve"/>
      <point x="636.423" y="1035.07"/>
      <point x="699" y="1111.03"/>
      <point x="699" y="1188" type="qcurve" smooth="yes"/>
      <point x="699" y="1232" type="line" smooth="yes"/>
      <point x="699" y="1318.02"/>
      <point x="592.417" y="1410"/>
      <point x="483" y="1410" type="qcurve" smooth="yes"/>
      <point x="288" y="1410" type="line" smooth="yes"/>
      <point x="233.25" y="1410"/>
      <point x="150.188" y="1388"/>
      <point x="94.3125" y="1344.5"/>
      <point x="66" y="1279.75"/>
      <point x="66" y="1237" type="qcurve" smooth="yes"/>
      <point x="66" y="1197" type="line"/>
      <point x="342" y="1146" type="line"/>
      <point x="342" y="1389" type="line"/>
      <point x="342" y="1389"/>
      <point x="342" y="1389"/>
      <point x="342" y="1389" type="qcurve"/>
      <point x="373" y="1389" type="line" smooth="yes"/>
      <point x="394.883" y="1389"/>
      <point x="423" y="1359.88"/>
      <point x="423" y="1338" type="qcurve" smooth="yes"/>
      <point x="423" y="1074" type="line" smooth="yes"/>
      <point x="423" y="1056.64"/>
      <point x="404.601" y="1032"/>
      <point x="388" y="1032" type="qcurve" smooth="yes"/>
      <point x="346" y="1032" type="line"/>
      <point x="346" y="1012" type="line"/>
      <point x="389" y="1012" type="line" smooth="yes"/>
      <point x="410.883" y="1012"/>
      <point x="433" y="977.147"/>
      <point x="433" y="953" type="qcurve" smooth="yes"/>
      <point x="433" y="683" type="line" smooth="yes"/>
      <point x="433" y="661.117"/>
      <point x="400.393" y="635"/>
      <point x="377" y="635" type="qcurve" smooth="yes"/>
      <point x="340" y="635" type="line"/>
      <point x="340" y="635"/>
      <point x="340" y="635"/>
      <point x="340" y="635" type="qcurve"/>
      <point x="340" y="890" type="line"/>
    </contour>
    <contour>
      <point x="1119" y="1400" type="line"/>
      <point x="515" y="0" type="line"/>
      <point x="548" y="0" type="line"/>
      <point x="1152" y="1400" type="line"/>
    </contour>
    <contour>
      <point x="902" y="195" type="line"/>
      <point x="1239" y="195" type="line"/>
      <point x="1239" y="0" type="line"/>
      <point x="1533" y="0" type="line"/>
      <point x="1533" y="195" type="line"/>
      <point x="1593" y="195" type="line"/>
      <point x="1593" y="225" type="line"/>
      <point x="1533" y="225" type="line"/>
      <point x="1533" y="784" type="line"/>
      <point x="1360" y="784" type="line"/>
      <point x="902" y="220" type="line"/>
    </contour>
    <contour>
      <point x="945" y="225" type="line"/>
      <point x="1239" y="587" type="line"/>
      <point x="1239" y="225" type="line"/>
    </contour>
  </outline>
</glyph>
<glyph name="questiondown" format="2">
  <advance width="1099"/>
  <unicode hex="00BF"/>
  <outline>
    <contour>
      <point x="609" y="566" type="line"/>
      <point x="569" y="566" type="line"/>
      <point x="569" y="339" type="line"/>
      <point x="569" y="339"/>
      <point x="569" y="339"/>
      <point x="569" y="339" type="qcurve"/>
      <point x="295" y="339" type="line" smooth="yes"/>
      <point x="168.982" y="339"/>
      <point x="64" y="159.472"/>
      <point x="64" y="41" type="qcurve" smooth="yes"/>
      <point x="64" y="-87" type="line" smooth="yes"/>
      <point x="64" y="-246.975"/>
      <point x="209.951" y="-382"/>
      <point x="382" y="-382" type="qcurve" smooth="yes"/>
      <point x="738" y="-382" type="line" smooth="yes"/>
      <point x="910.049" y="-382"/>
      <point x="1059" y="-244.221"/>
      <point x="1059" y="-85" type="qcurve" smooth="yes"/>
      <point x="1059" y="20" type="line"/>
      <point x="604" y="93" type="line"/>
      <point x="604" y="-346" type="line"/>
      <point x="604" y="-346"/>
      <point x="604" y="-346"/>
      <point x="604" y="-346" type="qcurve"/>
      <point x="519" y="-346" type="line"/>
      <point x="519" y="-346"/>
      <point x="519" y="-346"/>
      <point x="519" y="-346" type="qcurve"/>
      <point x="519" y="224" type="line" smooth="yes"/>
      <point x="519" y="267.767"/>
      <point x="531.515" y="303"/>
      <point x="570" y="303" type="qcurve" smooth="yes"/>
      <point x="609" y="303" type="line"/>
      <point x="609" y="303"/>
      <point x="609" y="303"/>
      <point x="609" y="303" type="qcurve"/>
    </contour>
    <contour>
      <point x="854" y="893" type="line" smooth="yes"/>
      <point x="854" y="983.552"/>
      <point x="803.552" y="1034"/>
      <point x="713" y="1034" type="qcurve" smooth="yes"/>
      <point x="465" y="1034" type="line" smooth="yes"/>
      <point x="375" y="1034"/>
      <point x="324" y="983"/>
      <point x="324" y="893" type="qcurve" smooth="yes"/>
      <point x="324" y="804" type="line" smooth="yes"/>
      <point x="324" y="714.203"/>
      <point x="375.448" y="664"/>
      <point x="466" y="664" type="qcurve" smooth="yes"/>
      <point x="713" y="664" type="line" smooth="yes"/>
      <point x="803" y="664"/>
      <point x="854" y="714.25"/>
      <point x="854" y="802" type="qcurve" smooth="yes"/>
    </contour>
  </outline>
</glyph>
<glyph name="Agrave" format="2">
  <advance width="1234"/>
  <unicode hex="00C0"/>
  <anchor x="608" y="1550" name="top"/>
  <anchor x="578" y="-150" name="bottom"/>
  <anchor x="641" y="0" name="ogonek_in"/>
  <anchor x="671" y="1500" name="topright"/>
  <outline>
    <contour>
      <point x="-10" y="0" type="line"/>
      <point x="29" y="0" type="line"/>
      <point x="122" y="298" type="line"/>
      <point x="552" y="298" type="line"/>
      <point x="641" y="0" type="line"/>
      <point x="1244" y="0" type="line"/>
      <point x="803" y="1400" type="line"/>
      <point x="430" y="1400" type="line"/>
    </contour>
    <contour>
      <point x="134" y="334" type="line"/>
      <point x="343" y="1002" type="line"/>
      <point x="542" y="334" type="line"/>
    </contour>
    <contour>
      <point x="711" y="1500" type="line"/>
      <point x="672" y="1800" type="line"/>
      <point x="81" y="1800" type="line"/>
      <point x="671" y="1500" type="line"/>
    </contour>
  </outline>
</glyph>
<glyph name="Atilde" format="2">
  <advance width="1234"/>
  <unicode hex="00C3"/>
  <anchor x="608" y="1982" name="top"/>
  <anchor x="578" y="-150" name="bottom"/>
  <anchor x="641" y="0" name="ogonek_in"/>
  <outline>
    <contour>
      <point x="-10" y="0" type="line"/>
      <point x="29" y="0" type="line"/>
      <point x="122" y="298" type="line"/>
      <point x="552" y="298" type="line"/>
      <point x="641" y="0" type="line"/>
      <point x="1244" y="0" type="line"/>
      <point x="803" y="1400" type="line"/>
      <point x="430" y="1400" type="line"/>
    </contour>
    <contour>
      <point x="134" y="334" type="line"/>
      <point x="343" y="1002" type="line"/>
      <point x="542" y="334" type="line"/>
    </contour>
    <contour>
      <point x="268" y="1505" type="qcurve"/>
      <point x="298" y="1500" type="line"/>
      <point x="303" y="1520"/>
      <point x="335" y="1571"/>
      <point x="386" y="1571" type="qcurve" smooth="yes"/>
      <point x="419" y="1571"/>
      <point x="496" y="1545"/>
      <point x="580" y="1513"/>
      <point x="671" y="1487"/>
      <point x="719" y="1487" type="qcurve" smooth="yes"/>
      <point x="775" y="1487"/>
      <point x="853" y="1547"/>
      <point x="906" y="1649"/>
      <point x="938" y="1782"/>
      <point x="948" y="1854" type="qcurve"/>
      <point x="918" y="1859" type="line"/>
      <point x="913" y="1839"/>
      <point x="881" y="1788"/>
      <point x="830" y="1788" type="qcurve" smooth="yes"/>
      <point x="797" y="1788"/>
      <point x="720" y="1814"/>
      <point x="636" y="1846"/>
      <point x="545" y="1872"/>
      <point x="497" y="1872" type="qcurve" smooth="yes"/>
      <point x="442" y="1872"/>
      <point x="363" y="1816"/>
      <point x="310" y="1718"/>
      <point x="278" y="1583"/>
    </contour>
  </outline>
  <guideline angle="90" x="268" y="0"/>
  <guideline angle="90" x="948" y="0"/>
  <guideline angle="90" x="298" y="0"/>
  <guideline angle="90" x="918" y="0"/>
</glyph>
<glyph name="Adieresis" format="2">
  <advance width="1234"/>
  <unicode hex="00C4"/>
  <anchor x="608" y="1938" name="top"/>
  <anchor x="578" y="-150" name="bottom"/>
  <anchor x="641" y="0" name="ogonek_in"/>
  <outline>
    <contour>
      <point x="-10" y="0" type="line"/>
      <point x="29" y="0" type="line"/>
      <point x="122" y="298" type="line"/>
      <point x="552" y="298" type="line"/>
      <point x="641" y="0" type="line"/>
      <point x="1244" y="0" type="line"/>
      <point x="803" y="1400" type="line"/>
      <point x="430" y="1400" type="line"/>
    </contour>
    <contour>
      <point x="134" y="334" type="line"/>
      <point x="343" y="1002" type="line"/>
      <point x="542" y="334" type="line"/>
    </contour>
    <contour>
      <point x="252" y="1498" type="qcurve" smooth="yes"/>
      <point x="404" y="1498" type="line" smooth="yes"/>
      <point x="485.497" y="1498"/>
      <point x="514" y="1526.5"/>
      <point x="514" y="1608" type="qcurve" smooth="yes"/>
      <point x="514" y="1750" type="line" smooth="yes"/>
      <point x="514" y="1829.99"/>
      <point x="485.497" y="1858"/>
      <point x="404" y="1858" type="qcurve" smooth="yes"/>
      <point x="252" y="1858" type="line" smooth="yes"/>
      <point x="170.503" y="1858"/>
      <point x="142" y="1829.99"/>
      <point x="142" y="1750" type="qcurve" smooth="yes"/>
      <point x="142" y="1608" type="line" smooth="yes"/>
      <point x="142" y="1526.5"/>
      <point x="170.503" y="1498"/>
    </contour>
    <contour>
      <point x="812" y="1498" type="qcurve" smooth="yes"/>
      <point x="964" y="1498" type="line" smooth="yes"/>
      <point x="1045.5" y="1498"/>
      <point x="1074" y="1526.5"/>
      <point x="1074" y="1608" type="qcurve" smooth="yes"/>
      <point x="1074" y="1750" type="line" smooth="yes"/>
      <point x="1074" y="1829.99"/>
      <point x="1045.5" y="1858"/>
      <point x="964" y="1858" type="qcurve" smooth="yes"/>
      <point x="812" y="1858" type="line" smooth="yes"/>
      <point x="730.503" y="1858"/>
      <point x="702" y="1829.99"/>
      <point x="702" y="1750" type="qcurve" smooth="yes"/>
      <point x="702" y="1608" type="line" smooth="yes"/>
      <point x="702" y="1526.5"/>
      <point x="730.503" y="1498"/>
    </contour>
  </outline>
</glyph>
<glyph name="Aring" format="2">
  <advance width="1234"/>
  <unicode hex="00C5"/>
  <anchor x="608" y="1970" name="top"/>
  <anchor x="578" y="-150" name="bottom"/>
  <anchor x="641" y="0" name="ogonek_in"/>
  <outline>
    <contour>
      <point x="-10" y="0" type="line"/>
      <point x="29" y="0" type="line"/>
      <point x="122" y="298" type="line"/>
      <point x="552" y="298" type="line"/>
      <point x="641" y="0" type="line"/>
      <point x="1244" y="0" type="line"/>
      <point x="803" y="1400" type="line"/>
      <point x="430" y="1400" type="line"/>
    </contour>
    <contour>
      <point x="134" y="334" type="line"/>
      <point x="343" y="1002" type="line"/>
      <point x="542" y="334" type="line"/>
    </contour>
    <contour>
      <point x="608" y="1474" type="qcurve" smooth="yes"/>
      <point x="701" y="1474"/>
      <point x="815" y="1485"/>
      <point x="877" y="1524"/>
      <point x="897" y="1601"/>
      <point x="897" y="1667" type="qcurve" smooth="yes"/>
      <point x="897" y="1733"/>
      <point x="877" y="1810"/>
      <point x="815" y="1849"/>
      <point x="701" y="1860"/>
      <point x="608" y="1860" type="qcurve" smooth="yes"/>
      <point x="515" y="1860"/>
      <point x="401" y="1849"/>
      <point x="339" y="1810"/>
      <point x="319" y="1733"/>
      <point x="319" y="1667" type="qcurve" smooth="yes"/>
      <point x="319" y="1601"/>
      <point x="339" y="1524"/>
      <point x="401" y="1485"/>
      <point x="515" y="1474"/>
    </contour>
    <contour>
      <point x="608" y="1502" type="qcurve" smooth="yes"/>
      <point x="575" y="1502"/>
      <point x="558" y="1556"/>
      <point x="558" y="1667" type="qcurve" smooth="yes"/>
      <point x="558" y="1779"/>
      <point x="575" y="1832"/>
      <point x="608" y="1832" type="qcurve" smooth="yes"/>
      <point x="641" y="1832"/>
      <point x="658" y="1779"/>
      <point x="658" y="1667" type="qcurve" smooth="yes"/>
      <point x="658" y="1556"/>
      <point x="641" y="1502"/>
    </contour>
  </outline>
</glyph>
<glyph name="Ccedilla" format="2">
  <advance width="1322"/>
  <unicode hex="00C7"/>
  <anchor x="682" y="1550" name="top"/>
  <anchor x="685" y="-150" name="bottom"/>
  <anchor x="685" y="0" name="ogrev"/>
  <outline>
    <contour>
      <point x="64" y="1076" type="qcurve" smooth="yes"/>
      <point x="64" y="336" type="line" smooth="yes"/>
      <point x="64" y="129.24"/>
      <point x="276.786" y="-10"/>
      <point x="476" y="-10" type="qcurve" smooth="yes"/>
      <point x="894" y="-10" type="line" smooth="yes"/>
      <point x="1093.21" y="-10"/>
      <point x="1308" y="127.73"/>
      <point x="1308" y="336" type="qcurve" smooth="yes"/>
      <point x="1308" y="530" type="line"/>
      <point x="736" y="640" type="line"/>
      <point x="736" y="26" type="line"/>
      <point x="736" y="26"/>
      <point x="736" y="26"/>
      <point x="736" y="26" type="qcurve"/>
      <point x="636" y="26" type="line"/>
      <point x="636" y="26"/>
      <point x="636" y="26"/>
      <point x="636" y="26" type="qcurve"/>
      <point x="636" y="1374" type="line"/>
      <point x="636" y="1374"/>
      <point x="636" y="1374"/>
      <point x="636" y="1374" type="qcurve"/>
      <point x="730" y="1374" type="line"/>
      <point x="730" y="1374"/>
      <point x="730" y="1374"/>
      <point x="730" y="1374" type="qcurve"/>
      <point x="730" y="786" type="line"/>
      <point x="1302" y="890" type="line"/>
      <point x="1302" y="1076" type="line" smooth="yes"/>
      <point x="1302" y="1277"/>
      <point x="1077" y="1410"/>
      <point x="888" y="1410" type="qcurve" smooth="yes"/>
      <point x="476" y="1410" type="line" smooth="yes"/>
      <point x="287" y="1410"/>
      <point x="64" y="1277"/>
    </contour>
    <contour>
      <point x="695" y="-438" type="qcurve" smooth="yes"/>
      <point x="791.589" y="-438"/>
      <point x="883" y="-354.779"/>
      <point x="883" y="-268" type="qcurve" smooth="yes"/>
      <point x="883" y="-171.411"/>
      <point x="768.208" y="-78"/>
      <point x="652" y="-78" type="qcurve"/>
      <point x="701" y="15" type="line"/>
      <point x="669" y="15" type="line"/>
      <point x="602" y="-112" type="line"/>
      <point x="606.528" y="-110.491"/>
      <point x="619.209" y="-108"/>
      <point x="626" y="-108" type="qcurve" smooth="yes"/>
      <point x="663.73" y="-108"/>
      <point x="701" y="-177.822"/>
      <point x="701" y="-248" type="qcurve" smooth="yes"/>
      <point x="701" y="-321.951"/>
      <point x="661.04" y="-397"/>
      <point x="621.186" y="-397" type="qcurve" smooth="yes"/>
      <point x="604.445" y="-397"/>
      <point x="565.62" y="-384.319"/>
      <point x="546" y="-373" type="qcurve"/>
      <point x="534" y="-398" type="line"/>
      <point x="563.429" y="-417.62"/>
      <point x="645.951" y="-438"/>
    </contour>
  </outline>
  <guideline angle="0" x="0" y="25"/>
</glyph>
<glyph name="Ecircumflex" format="2">
  <advance width="1100"/>
  <unicode hex="00CA"/>
  <anchor x="585" y="1856" name="top"/>
  <anchor x="585" y="-150" name="bottom"/>
  <anchor x="781" y="0" name="ogonek"/>
  <anchor x="1090" y="0" name="ogonek_out"/>
  <anchor x="1024" y="1576" name="topright"/>
  <outline>
    <contour>
      <point x="80" y="0" type="line"/>
      <point x="1090" y="0" type="line"/>
      <point x="1090" y="36" type="line"/>
      <point x="652" y="36" type="line"/>
      <point x="652" y="700" type="line"/>
      <point x="1036" y="700" type="line"/>
      <point x="1036" y="736" type="line"/>
      <point x="652" y="736" type="line"/>
      <point x="652" y="1364" type="line"/>
      <point x="1076" y="1364" type="line"/>
      <point x="1076" y="1400" type="line"/>
      <point x="80" y="1400" type="line"/>
    </contour>
    <contour>
      <point x="343" y="1476" type="line"/>
      <point x="384" y="1476" type="line"/>
      <point x="488" y="1700" type="line"/>
      <point x="596" y="1476" type="line"/>
      <point x="1024" y="1476" type="line"/>
      <point x="781" y="1776" type="line"/>
      <point x="489" y="1776" type="line"/>
    </contour>
  </outline>
  <guideline angle="90" x="-18" y="0"/>
</glyph>
<glyph name="Edieresis" format="2">
  <advance width="1100"/>
  <unicode hex="00CB"/>
  <anchor x="585" y="1938" name="top"/>
  <anchor x="585" y="-150" name="bottom"/>
  <anchor x="781" y="0" name="ogonek"/>
  <anchor x="1090" y="0" name="ogonek_out"/>
  <outline>
    <contour>
      <point x="80" y="0" type="line"/>
      <point x="1090" y="0" type="line"/>
      <point x="1090" y="36" type="line"/>
      <point x="652" y="36" type="line"/>
      <point x="652" y="700" type="line"/>
      <point x="1036" y="700" type="line"/>
      <point x="1036" y="736" type="line"/>
      <point x="652" y="736" type="line"/>
      <point x="652" y="1364" type="line"/>
      <point x="1076" y="1364" type="line"/>
      <point x="1076" y="1400" type="line"/>
      <point x="80" y="1400" type="line"/>
    </contour>
    <contour>
      <point x="229" y="1498" type="qcurve" smooth="yes"/>
      <point x="381" y="1498" type="line" smooth="yes"/>
      <point x="462.497" y="1498"/>
      <point x="491" y="1526.5"/>
      <point x="491" y="1608" type="qcurve" smooth="yes"/>
      <point x="491" y="1750" type="line" smooth="yes"/>
      <point x="491" y="1829.99"/>
      <point x="462.497" y="1858"/>
      <point x="381" y="1858" type="qcurve" smooth="yes"/>
      <point x="229" y="1858" type="line" smooth="yes"/>
      <point x="147.503" y="1858"/>
      <point x="119" y="1829.99"/>
      <point x="119" y="1750" type="qcurve" smooth="yes"/>
      <point x="119" y="1608" type="line" smooth="yes"/>
      <point x="119" y="1526.5"/>
      <point x="147.503" y="1498"/>
    </contour>
    <contour>
      <point x="789" y="1498" type="qcurve" smooth="yes"/>
      <point x="941" y="1498" type="line" smooth="yes"/>
      <point x="1022.5" y="1498"/>
      <point x="1051" y="1526.5"/>
      <point x="1051" y="1608" type="qcurve" smooth="yes"/>
      <point x="1051" y="1750" type="line" smooth="yes"/>
      <point x="1051" y="1829.99"/>
      <point x="1022.5" y="1858"/>
      <point x="941" y="1858" type="qcurve" smooth="yes"/>
      <point x="789" y="1858" type="line" smooth="yes"/>
      <point x="707.503" y="1858"/>
      <point x="679" y="1829.99"/>
      <point x="679" y="1750" type="qcurve" smooth="yes"/>
      <point x="679" y="1608" type="line" smooth="yes"/>
      <point x="679" y="1526.5"/>
      <point x="707.503" y="1498"/>
    </contour>
  </outline>
  <guideline angle="90" x="-18" y="0"/>
</glyph>
<glyph name="Iacute" format="2">
  <advance width="732"/>
  <unicode hex="00CD"/>
  <anchor x="366" y="1550" name="top"/>
  <anchor x="366" y="-150" name="bottom"/>
  <anchor x="80" y="0" name="ogonek"/>
  <anchor x="303" y="1500" name="topright"/>
  <outline>
    <contour>
      <point x="80" y="0" type="line"/>
      <point x="652" y="0" type="line"/>
      <point x="652" y="1400" type="line"/>
      <point x="80" y="1400" type="line"/>
    </contour>
    <contour>
      <point x="263" y="1500" type="line"/>
      <point x="303" y="1500" type="line"/>
      <point x="893" y="1800" type="line"/>
      <point x="302" y="1800" type="line"/>
    </contour>
  </outline>
</glyph>
<glyph name="Icircumflex" format="2">
  <advance width="732"/>
  <unicode hex="00CE"/>
  <anchor x="366" y="1856" name="top"/>
  <anchor x="366" y="-150" name="bottom"/>
  <anchor x="121" y="0" name="ogonek"/>
  <anchor x="805" y="1576" name="topright"/>
  <outline>
    <contour>
      <point x="80" y="0" type="line"/>
      <point x="652" y="0" type="line"/>
      <point x="652" y="1400" type="line"/>
      <point x="80" y="1400" type="line"/>
    </contour>
    <contour>
      <point x="124" y="1476" type="line"/>
      <point x="165" y="1476" type="line"/>
      <point x="269" y="1700" type="line"/>
      <point x="377" y="1476" type="line"/>
      <point x="805" y="1476" type="line"/>
      <point x="562" y="1776" type="line"/>
      <point x="270" y="1776" type="line"/>
    </contour>
  </outline>
</glyph>
<glyph name="Idieresis" format="2">
  <advance width="732"/>
  <unicode hex="00CF"/>
  <anchor x="366" y="1938" name="top"/>
  <anchor x="366" y="-150" name="bottom"/>
  <anchor x="121" y="0" name="ogonek"/>
  <outline>
    <contour>
      <point x="80" y="0" type="line"/>
      <point x="652" y="0" type="line"/>
      <point x="652" y="1400" type="line"/>
      <point x="80" y="1400" type="line"/>
    </contour>
    <contour>
      <point x="10" y="1498" type="qcurve" smooth="yes"/>
      <point x="162" y="1498" type="line" smooth="yes"/>
      <point x="243.497" y="1498"/>
      <point x="272" y="1526.5"/>
      <point x="272" y="1608" type="qcurve" smooth="yes"/>
      <point x="272" y="1750" type="line" smooth="yes"/>
      <point x="272" y="1829.99"/>
      <point x="243.497" y="1858"/>
      <point x="162" y="1858" type="qcurve" smooth="yes"/>
      <point x="10" y="1858" type="line" smooth="yes"/>
      <point x="-71.4968" y="1858"/>
      <point x="-100" y="1829.99"/>
      <point x="-100" y="1750" type="qcurve" smooth="yes"/>
      <point x="-100" y="1608" type="line" smooth="yes"/>
      <point x="-100" y="1526.5"/>
      <point x="-71.4968" y="1498"/>
    </contour>
    <contour>
      <point x="570" y="1498" type="qcurve" smooth="yes"/>
      <point x="722" y="1498" type="line" smooth="yes"/>
      <point x="803.497" y="1498"/>
      <point x="832" y="1526.5"/>
      <point x="832" y="1608" type="qcurve" smooth="yes"/>
      <point x="832" y="1750" type="line" smooth="yes"/>
      <point x="832" y="1829.99"/>
      <point x="803.497" y="1858"/>
      <point x="722" y="1858" type="qcurve" smooth="yes"/>
      <point x="570" y="1858" type="line" smooth="yes"/>
      <point x="488.503" y="1858"/>
      <point x="460" y="1829.99"/>
      <point x="460" y="1750" type="qcurve" smooth="yes"/>
      <point x="460" y="1608" type="line" smooth="yes"/>
      <point x="460" y="1526.5"/>
      <point x="488.503" y="1498"/>
    </contour>
  </outline>
</glyph>
<glyph name="Ntilde" format="2">
  <advance width="1144"/>
  <unicode hex="00D1"/>
  <anchor x="572" y="1982" name="top"/>
  <anchor x="572" y="-150" name="bottom"/>
  <outline>
    <contour>
      <point x="80" y="0" type="line"/>
      <point x="116" y="0" type="line"/>
      <point x="116" y="732" type="line"/>
      <point x="882" y="0" type="line"/>
      <point x="1064" y="0" type="line"/>
      <point x="1064" y="1400" type="line"/>
      <point x="1028" y="1400" type="line"/>
      <point x="1028" y="659" type="line"/>
      <point x="258" y="1400" type="line"/>
      <point x="80" y="1400" type="line"/>
    </contour>
    <contour>
      <point x="232" y="1505" type="qcurve"/>
      <point x="262" y="1500" type="line"/>
      <point x="267" y="1520"/>
      <point x="299" y="1571"/>
      <point x="350" y="1571" type="qcurve" smooth="yes"/>
      <point x="383" y="1571"/>
      <point x="460" y="1545"/>
      <point x="544" y="1513"/>
      <point x="635" y="1487"/>
      <point x="683" y="1487" type="qcurve" smooth="yes"/>
      <point x="739" y="1487"/>
      <point x="817" y="1547"/>
      <point x="870" y="1649"/>
      <point x="902" y="1782"/>
      <point x="912" y="1854" type="qcurve"/>
      <point x="882" y="1859" type="line"/>
      <point x="877" y="1839"/>
      <point x="845" y="1788"/>
      <point x="794" y="1788" type="qcurve" smooth="yes"/>
      <point x="761" y="1788"/>
      <point x="684" y="1814"/>
      <point x="600" y="1846"/>
      <point x="509" y="1872"/>
      <point x="461" y="1872" type="qcurve" smooth="yes"/>
      <point x="406" y="1872"/>
      <point x="327" y="1816"/>
      <point x="274" y="1718"/>
      <point x="242" y="1583"/>
    </contour>
  </outline>
  <guideline angle="90" x="232" y="0"/>
  <guideline angle="90" x="912" y="0"/>
  <guideline angle="90" x="262" y="0"/>
  <guideline angle="90" x="882" y="0"/>
</glyph>
<glyph name="Ocircumflex" format="2">
  <advance width="1372"/>
  <unicode hex="00D4"/>
  <anchor x="685" y="1866" name="top"/>
  <anchor x="685" y="-160" name="bottom"/>
  <anchor x="1294" y="1076" name="horn"/>
  <anchor x="691" y="0" name="ogonek"/>
  <anchor x="1124" y="1586" name="topright"/>
  <outline>
    <contour>
      <point x="64" y="1076" type="qcurve" smooth="yes"/>
      <point x="64" y="336" type="line" smooth="yes"/>
      <point x="64" y="129.24"/>
      <point x="276.786" y="-10"/>
      <point x="476" y="-10" type="qcurve" smooth="yes"/>
      <point x="894" y="-10" type="line" smooth="yes"/>
      <point x="1093.21" y="-10"/>
      <point x="1308" y="127.73"/>
      <point x="1308" y="336" type="qcurve" smooth="yes"/>
      <point x="1308" y="1076" type="line" smooth="yes"/>
      <point x="1308" y="1277"/>
      <point x="1083" y="1410"/>
      <point x="894" y="1410" type="qcurve" smooth="yes"/>
      <point x="476" y="1410" type="line" smooth="yes"/>
      <point x="287" y="1410"/>
      <point x="64" y="1277"/>
    </contour>
    <contour>
      <point x="636" y="1374" type="line"/>
      <point x="636" y="1374"/>
      <point x="636" y="1374"/>
      <point x="636" y="1374" type="qcurve"/>
      <point x="736" y="1374" type="line"/>
      <point x="736" y="1374"/>
      <point x="736" y="1374"/>
      <point x="736" y="1374" type="qcurve"/>
      <point x="736" y="26" type="line"/>
      <point x="736" y="26"/>
      <point x="736" y="26"/>
      <point x="736" y="26" type="qcurve"/>
      <point x="636" y="26" type="line"/>
      <point x="636" y="26"/>
      <point x="636" y="26"/>
      <point x="636" y="26" type="qcurve"/>
    </contour>
    <contour>
      <point x="443" y="1486" type="line"/>
      <point x="484" y="1486" type="line"/>
      <point x="588" y="1710" type="line"/>
      <point x="696" y="1486" type="line"/>
      <point x="1124" y="1486" type="line"/>
      <point x="881" y="1786" type="line"/>
      <point x="589" y="1786" type="line"/>
    </contour>
  </outline>
</glyph>
<glyph name="Otilde" format="2">
  <advance width="1372"/>
  <unicode hex="00D5"/>
  <anchor x="672" y="1992" name="top"/>
  <anchor x="672" y="-160" name="bottom"/>
  <anchor x="1294" y="1076" name="horn"/>
  <anchor x="691" y="0" name="ogonek"/>
  <outline>
    <contour>
      <point x="64" y="1076" type="qcurve" smooth="yes"/>
      <point x="64" y="336" type="line" smooth="yes"/>
      <point x="64" y="129.24"/>
      <point x="276.786" y="-10"/>
      <point x="476" y="-10" type="qcurve" smooth="yes"/>
      <point x="894" y="-10" type="line" smooth="yes"/>
      <point x="1093.21" y="-10"/>
      <point x="1308" y="127.73"/>
      <point x="1308" y="336" type="qcurve" smooth="yes"/>
      <point x="1308" y="1076" type="line" smooth="yes"/>
      <point x="1308" y="1277"/>
      <point x="1083" y="1410"/>
      <point x="894" y="1410" type="qcurve" smooth="yes"/>
      <point x="476" y="1410" type="line" smooth="yes"/>
      <point x="287" y="1410"/>
      <point x="64" y="1277"/>
    </contour>
    <contour>
      <point x="636" y="1374" type="line"/>
      <point x="636" y="1374"/>
      <point x="636" y="1374"/>
      <point x="636" y="1374" type="qcurve"/>
      <point x="736" y="1374" type="line"/>
      <point x="736" y="1374"/>
      <point x="736" y="1374"/>
      <point x="736" y="1374" type="qcurve"/>
      <point x="736" y="26" type="line"/>
      <point x="736" y="26"/>
      <point x="736" y="26"/>
      <point x="736" y="26" type="qcurve"/>
      <point x="636" y="26" type="line"/>
      <point x="636" y="26"/>
      <point x="636" y="26"/>
      <point x="636" y="26" type="qcurve"/>
    </contour>
    <contour>
      <point x="332" y="1515" type="qcurve"/>
      <point x="362" y="1510" type="line"/>
      <point x="367.282" y="1529.62"/>
      <point x="398.687" y="1581"/>
      <point x="450" y="1581" type="qcurve" smooth="yes"/>
      <point x="483.375" y="1581"/>
      <point x="559.781" y="1554.75"/>
      <point x="643.969" y="1523.25"/>
      <point x="735" y="1497"/>
      <point x="783" y="1497" type="qcurve" smooth="yes"/>
      <point x="838.5" y="1497"/>
      <point x="916.625" y="1557.41"/>
      <point x="969.875" y="1658.84"/>
      <point x="1002.25" y="1791.62"/>
      <point x="1012" y="1864" type="qcurve"/>
      <point x="982" y="1869" type="line"/>
      <point x="976.718" y="1849.38"/>
      <point x="945.313" y="1798"/>
      <point x="894" y="1798" type="qcurve" smooth="yes"/>
      <point x="860.625" y="1798"/>
      <point x="784.219" y="1824.25"/>
      <point x="700.031" y="1855.75"/>
      <point x="609" y="1882"/>
      <point x="561" y="1882" type="qcurve" smooth="yes"/>
      <point x="505.5" y="1882"/>
      <point x="427.375" y="1826.09"/>
      <point x="374.125" y="1727.66"/>
      <point x="341.75" y="1593.38"/>
    </contour>
  </outline>
  <guideline angle="90" x="332" y="0"/>
  <guideline angle="90" x="1012" y="0"/>
  <guideline angle="90" x="362" y="0"/>
  <guideline angle="90" x="982" y="0"/>
</glyph>
<glyph name="Odieresis" format="2">
  <advance width="1372"/>
  <unicode hex="00D6"/>
  <anchor x="672" y="1948" name="top"/>
  <anchor x="672" y="-160" name="bottom"/>
  <anchor x="1294" y="1076" name="horn"/>
  <anchor x="691" y="0" name="ogonek"/>
  <outline>
    <contour>
      <point x="64" y="1076" type="qcurve" smooth="yes"/>
      <point x="64" y="336" type="line" smooth="yes"/>
      <point x="64" y="129"/>
      <point x="277" y="-10"/>
      <point x="476" y="-10" type="qcurve" smooth="yes"/>
      <point x="894" y="-10" type="line" smooth="yes"/>
      <point x="1093" y="-10"/>
      <point x="1308" y="128"/>
      <point x="1308" y="336" type="qcurve" smooth="yes"/>
      <point x="1308" y="1076" type="line" smooth="yes"/>
      <point x="1308" y="1277"/>
      <point x="1083" y="1410"/>
      <point x="894" y="1410" type="qcurve" smooth="yes"/>
      <point x="476" y="1410" type="line" smooth="yes"/>
      <point x="287" y="1410"/>
      <point x="64" y="1277"/>
    </contour>
    <contour>
      <point x="636" y="1374" type="line"/>
      <point x="636" y="1374"/>
      <point x="636" y="1374"/>
      <point x="636" y="1374" type="qcurve"/>
      <point x="736" y="1374" type="line"/>
      <point x="736" y="1374"/>
      <point x="736" y="1374"/>
      <point x="736" y="1374" type="qcurve"/>
      <point x="736" y="26" type="line"/>
      <point x="736" y="26"/>
      <point x="736" y="26"/>
      <point x="736" y="26" type="qcurve"/>
      <point x="636" y="26" type="line"/>
      <point x="636" y="26"/>
      <point x="636" y="26"/>
      <point x="636" y="26" type="qcurve"/>
    </contour>
    <contour>
      <point x="316" y="1508" type="qcurve" smooth="yes"/>
      <point x="468" y="1508" type="line" smooth="yes"/>
      <point x="549" y="1508"/>
      <point x="578" y="1537"/>
      <point x="578" y="1618" type="qcurve" smooth="yes"/>
      <point x="578" y="1760" type="line" smooth="yes"/>
      <point x="578" y="1840"/>
      <point x="549" y="1868"/>
      <point x="468" y="1868" type="qcurve" smooth="yes"/>
      <point x="316" y="1868" type="line" smooth="yes"/>
      <point x="235" y="1868"/>
      <point x="206" y="1840"/>
      <point x="206" y="1760" type="qcurve" smooth="yes"/>
      <point x="206" y="1618" type="line" smooth="yes"/>
      <point x="206" y="1537"/>
      <point x="235" y="1508"/>
    </contour>
    <contour>
      <point x="876" y="1508" type="qcurve" smooth="yes"/>
      <point x="1028" y="1508" type="line" smooth="yes"/>
      <point x="1109" y="1508"/>
      <point x="1138" y="1537"/>
      <point x="1138" y="1618" type="qcurve" smooth="yes"/>
      <point x="1138" y="1760" type="line" smooth="yes"/>
      <point x="1138" y="1840"/>
      <point x="1109" y="1868"/>
      <point x="1028" y="1868" type="qcurve" smooth="yes"/>
      <point x="876" y="1868" type="line" smooth="yes"/>
      <point x="795" y="1868"/>
      <point x="766" y="1840"/>
      <point x="766" y="1760" type="qcurve" smooth="yes"/>
      <point x="766" y="1618" type="line" smooth="yes"/>
      <point x="766" y="1537"/>
      <point x="795" y="1508"/>
    </contour>
  </outline>
</glyph>
<glyph name="Oslash" format="2">
  <advance width="1432"/>
  <unicode hex="00D8"/>
  <anchor x="716" y="1580" name="top"/>
  <outline>
    <contour>
      <point x="94" y="1076" type="qcurve" smooth="yes"/>
      <point x="94" y="336" type="line" smooth="yes"/>
      <point x="94" y="129"/>
      <point x="307" y="-10"/>
      <point x="506" y="-10" type="qcurve" smooth="yes"/>
      <point x="924" y="-10" type="line" smooth="yes"/>
      <point x="1123" y="-10"/>
      <point x="1338" y="128"/>
      <point x="1338" y="336" type="qcurve" smooth="yes"/>
      <point x="1338" y="1076" type="line" smooth="yes"/>
      <point x="1338" y="1277"/>
      <point x="1113" y="1410"/>
      <point x="924" y="1410" type="qcurve" smooth="yes"/>
      <point x="506" y="1410" type="line" smooth="yes"/>
      <point x="317" y="1410"/>
      <point x="94" y="1277"/>
    </contour>
    <contour>
      <point x="666" y="1374" type="line"/>
      <point x="666" y="1374"/>
      <point x="666" y="1374"/>
      <point x="666" y="1374" type="qcurve"/>
      <point x="766" y="1374" type="line"/>
      <point x="766" y="1374"/>
      <point x="766" y="1374"/>
      <point x="766" y="1374" type="qcurve"/>
      <point x="766" y="26" type="line"/>
      <point x="766" y="26"/>
      <point x="766" y="26"/>
      <point x="766" y="26" type="qcurve"/>
      <point x="666" y="26" type="line"/>
      <point x="666" y="26"/>
      <point x="666" y="26"/>
      <point x="666" y="26" type="qcurve"/>
    </contour>
    <contour>
      <point x="91" y="-30" type="line"/>
      <point x="1368" y="1405" type="line"/>
      <point x="1341" y="1430" type="line"/>
      <point x="64" y="-6" type="line"/>
    </contour>
  </outline>
  <guideline angle="0" x="0" y="-30"/>
  <guideline angle="0" x="0" y="-30"/>
  <guideline angle="0" x="0" y="1430"/>
</glyph>
<glyph name="Ugrave" format="2">
  <advance width="1373"/>
  <unicode hex="00D9"/>
  <anchor x="687" y="1550" name="top"/>
  <anchor x="686" y="-150" name="bottom"/>
  <anchor x="707" y="0" name="ogonek"/>
  <anchor x="1301" y="1400" name="horn"/>
  <anchor x="750" y="1500" name="topright"/>
  <outline>
    <contour>
      <point x="72" y="1400" type="line"/>
      <point x="72" y="333" type="line" smooth="yes"/>
      <point x="72" y="226.875"/>
      <point x="128.688" y="93.1562"/>
      <point x="234.812" y="17.5938"/>
      <point x="386.75" y="-10"/>
      <point x="482" y="-10" type="qcurve" smooth="yes"/>
      <point x="889" y="-10" type="line" smooth="yes"/>
      <point x="1081.75" y="-10"/>
      <point x="1301" y="120.75"/>
      <point x="1301" y="333" type="qcurve" smooth="yes"/>
      <point x="1301" y="1400" type="line"/>
      <point x="729" y="1400" type="line"/>
      <point x="729" y="26" type="line"/>
      <point x="729" y="26"/>
      <point x="729" y="26"/>
      <point x="729" y="26" type="qcurve"/>
      <point x="644" y="26" type="line"/>
      <point x="644" y="26"/>
      <point x="644" y="26"/>
      <point x="644" y="26" type="qcurve"/>
      <point x="644" y="1400" type="line"/>
    </contour>
    <contour>
      <point x="750" y="1500" type="line"/>
      <point x="790" y="1500" type="line"/>
      <point x="751" y="1800" type="line"/>
      <point x="160" y="1800" type="line"/>
    </contour>
  </outline>
</glyph>
<glyph name="Ucircumflex" format="2">
  <advance width="1373"/>
  <unicode hex="00DB"/>
  <anchor x="687" y="1856" name="top"/>
  <anchor x="686" y="-150" name="bottom"/>
  <anchor x="686" y="-0" name="ogonek"/>
  <anchor x="1015" y="1400" name="horn"/>
  <anchor x="1126" y="1576" name="topright"/>
  <outline>
    <contour>
      <point x="72" y="1400" type="line"/>
      <point x="72" y="333" type="line" smooth="yes"/>
      <point x="72" y="227"/>
      <point x="129" y="93"/>
      <point x="235" y="18"/>
      <point x="387" y="-10"/>
      <point x="482" y="-10" type="qcurve" smooth="yes"/>
      <point x="889" y="-10" type="line" smooth="yes"/>
      <point x="1082" y="-10"/>
      <point x="1301" y="121"/>
      <point x="1301" y="333" type="qcurve" smooth="yes"/>
      <point x="1301" y="1400" type="line"/>
      <point x="729" y="1400" type="line"/>
      <point x="729" y="26" type="line"/>
      <point x="729" y="26"/>
      <point x="729" y="26"/>
      <point x="729" y="26" type="qcurve"/>
      <point x="644" y="26" type="line"/>
      <point x="644" y="26"/>
      <point x="644" y="26"/>
      <point x="644" y="26" type="qcurve"/>
      <point x="644" y="1400" type="line"/>
    </contour>
    <contour>
      <point x="445" y="1476" type="line"/>
      <point x="486" y="1476" type="line"/>
      <point x="590" y="1700" type="line"/>
      <point x="698" y="1476" type="line"/>
      <point x="1126" y="1476" type="line"/>
      <point x="883" y="1776" type="line"/>
      <point x="591" y="1776" type="line"/>
    </contour>
  </outline>
</glyph>
<glyph name="Udieresis" format="2">
  <advance width="1373"/>
  <unicode hex="00DC"/>
  <anchor x="687" y="1938" name="top"/>
  <anchor x="686" y="-150" name="bottom"/>
  <anchor x="686" y="-0" name="ogonek"/>
  <anchor x="1015" y="1400" name="horn"/>
  <outline>
    <contour>
      <point x="72" y="1400" type="line"/>
      <point x="72" y="333" type="line" smooth="yes"/>
      <point x="72" y="227"/>
      <point x="129" y="93"/>
      <point x="235" y="18"/>
      <point x="387" y="-10"/>
      <point x="482" y="-10" type="qcurve" smooth="yes"/>
      <point x="889" y="-10" type="line" smooth="yes"/>
      <point x="1082" y="-10"/>
      <point x="1301" y="121"/>
      <point x="1301" y="333" type="qcurve" smooth="yes"/>
      <point x="1301" y="1400" type="line"/>
      <point x="729" y="1400" type="line"/>
      <point x="729" y="26" type="line"/>
      <point x="729" y="26"/>
      <point x="729" y="26"/>
      <point x="729" y="26" type="qcurve"/>
      <point x="644" y="26" type="line"/>
      <point x="644" y="26"/>
      <point x="644" y="26"/>
      <point x="644" y="26" type="qcurve"/>
      <point x="644" y="1400" type="line"/>
    </contour>
    <contour>
      <point x="331" y="1498" type="qcurve" smooth="yes"/>
      <point x="483" y="1498" type="line" smooth="yes"/>
      <point x="564" y="1498"/>
      <point x="593" y="1527"/>
      <point x="593" y="1608" type="qcurve" smooth="yes"/>
      <point x="593" y="1750" type="line" smooth="yes"/>
      <point x="593" y="1830"/>
      <point x="564" y="1858"/>
      <point x="483" y="1858" type="qcurve" smooth="yes"/>
      <point x="331" y="1858" type="line" smooth="yes"/>
      <point x="250" y="1858"/>
      <point x="221" y="1830"/>
      <point x="221" y="1750" type="qcurve" smooth="yes"/>
      <point x="221" y="1608" type="line" smooth="yes"/>
      <point x="221" y="1527"/>
      <point x="250" y="1498"/>
    </contour>
    <contour>
      <point x="891" y="1498" type="qcurve" smooth="yes"/>
      <point x="1043" y="1498" type="line" smooth="yes"/>
      <point x="1124" y="1498"/>
      <point x="1153" y="1527"/>
      <point x="1153" y="1608" type="qcurve" smooth="yes"/>
      <point x="1153" y="1750" type="line" smooth="yes"/>
      <point x="1153" y="1830"/>
      <point x="1124" y="1858"/>
      <point x="1043" y="1858" type="qcurve" smooth="yes"/>
      <point x="891" y="1858" type="line" smooth="yes"/>
      <point x="810" y="1858"/>
      <point x="781" y="1830"/>
      <point x="781" y="1750" type="qcurve" smooth="yes"/>
      <point x="781" y="1608" type="line" smooth="yes"/>
      <point x="781" y="1527"/>
      <point x="810" y="1498"/>
    </contour>
  </outline>
</glyph>
<glyph name="Yacute" format="2">
  <advance width="1316"/>
  <unicode hex="00DD"/>
  <anchor x="658" y="1550" name="top"/>
  <anchor x="657" y="-150" name="bottom"/>
  <anchor x="595" y="1500" name="topright"/>
  <outline>
    <contour>
      <point x="371" y="0" type="line"/>
      <point x="943" y="0" type="line"/>
      <point x="943" y="543" type="line"/>
      <point x="1326" y="1400" type="line"/>
      <point x="1287" y="1400" type="line"/>
      <point x="923" y="585" type="line"/>
      <point x="568" y="1400" type="line"/>
      <point x="-10" y="1400" type="line"/>
      <point x="371" y="560" type="line"/>
    </contour>
    <contour>
      <point x="555" y="1500" type="line"/>
      <point x="595" y="1500" type="line"/>
      <point x="1185" y="1800" type="line"/>
      <point x="594" y="1800" type="line"/>
    </contour>
  </outline>
  <guideline angle="90" color="1,0,0,1" x="653" y="0"/>
</glyph>
<glyph name="Thorn" format="2">
  <advance width="1364"/>
  <unicode hex="00DE"/>
  <outline>
    <contour>
      <point x="72" y="0" type="line"/>
      <point x="644" y="0" type="line"/>
      <point x="644" y="281" type="line"/>
      <point x="894" y="281" type="line" smooth="yes"/>
      <point x="1083" y="281"/>
      <point x="1308" y="414"/>
      <point x="1308" y="615" type="qcurve" smooth="yes"/>
      <point x="1308" y="827" type="line" smooth="yes"/>
      <point x="1308" y="1028"/>
      <point x="1083" y="1161"/>
      <point x="894" y="1161" type="qcurve" smooth="yes"/>
      <point x="644" y="1161" type="line"/>
      <point x="644" y="1400" type="line"/>
      <point x="72" y="1400" type="line"/>
    </contour>
    <contour>
      <point x="644" y="317" type="line"/>
      <point x="644" y="1125" type="line"/>
      <point x="676" y="1125" type="line" smooth="yes"/>
      <point x="715" y="1125"/>
      <point x="752" y="1092"/>
      <point x="752" y="1065" type="qcurve" smooth="yes"/>
      <point x="752" y="377" type="line" smooth="yes"/>
      <point x="752" y="350"/>
      <point x="715" y="317"/>
      <point x="676" y="317" type="qcurve" smooth="yes"/>
    </contour>
  </outline>
  <guideline angle="90" color="0.4,0.4,0.4,1" name="halfwidth" x="682" y="0"/>
</glyph>
<glyph name="germandbls" format="2">
  <advance width="1258"/>
  <unicode hex="00DF"/>
  <outline>
    <contour>
      <point x="64" y="0" type="line"/>
      <point x="588" y="0" type="line"/>
      <point x="588" y="1446" type="line"/>
      <point x="588" y="1446"/>
      <point x="588" y="1446"/>
      <point x="588" y="1446" type="qcurve"/>
      <point x="688" y="1446" type="line"/>
      <point x="688" y="1446"/>
      <point x="688" y="1446"/>
      <point x="688" y="1446" type="qcurve"/>
      <point x="688" y="974" type="line"/>
      <point x="688" y="974"/>
      <point x="688" y="974"/>
      <point x="688" y="974" type="qcurve"/>
      <point x="638" y="974" type="line"/>
      <point x="638" y="942" type="line"/>
      <point x="688" y="942" type="line"/>
      <point x="688" y="942"/>
      <point x="688" y="942"/>
      <point x="688" y="942" type="qcurve"/>
      <point x="688" y="22" type="line"/>
      <point x="688" y="22"/>
      <point x="688" y="22"/>
      <point x="688" y="22" type="qcurve"/>
      <point x="628" y="22" type="line"/>
      <point x="628" y="-10" type="line"/>
      <point x="934" y="-10" type="line" smooth="yes"/>
      <point x="1065" y="-10"/>
      <point x="1212" y="77"/>
      <point x="1212" y="222" type="qcurve" smooth="yes"/>
      <point x="1212" y="752" type="line" smooth="yes"/>
      <point x="1212" y="853"/>
      <point x="1132" y="947"/>
      <point x="1063" y="963" type="qcurve"/>
      <point x="1141" y="989"/>
      <point x="1212" y="1107"/>
      <point x="1212" y="1206" type="qcurve" smooth="yes"/>
      <point x="1212" y="1224" type="line" smooth="yes"/>
      <point x="1212" y="1355"/>
      <point x="1066" y="1478"/>
      <point x="906" y="1478" type="qcurve" smooth="yes"/>
      <point x="370" y="1478" type="line" smooth="yes"/>
      <point x="210" y="1478"/>
      <point x="64" y="1355"/>
      <point x="64" y="1224" type="qcurve" smooth="yes"/>
    </contour>
  </outline>
</glyph>
<glyph name="atilde" format="2">
  <advance width="1286"/>
  <unicode hex="00E3"/>
  <anchor x="629" y="1531" name="top"/>
  <anchor x="632" y="-162" name="bottom"/>
  <anchor x="711" y="0" name="ogonek"/>
  <outline>
    <contour>
      <point x="342" y="0" type="qcurve" smooth="yes"/>
      <point x="598" y="0" type="line" smooth="yes"/>
      <point x="625" y="0"/>
      <point x="663" y="14"/>
      <point x="674" y="28" type="qcurve"/>
      <point x="674" y="0" type="line"/>
      <point x="1198" y="0" type="line"/>
      <point x="1198" y="754" type="line" smooth="yes"/>
      <point x="1198" y="923"/>
      <point x="1035" y="1030"/>
      <point x="902" y="1030" type="qcurve" smooth="yes"/>
      <point x="376" y="1030" type="line" smooth="yes"/>
      <point x="243" y="1030"/>
      <point x="80" y="919"/>
      <point x="80" y="770" type="qcurve" smooth="yes"/>
      <point x="80" y="756" type="line"/>
      <point x="584" y="664" type="line"/>
      <point x="584" y="998" type="line"/>
      <point x="584" y="998"/>
      <point x="584" y="998"/>
      <point x="584" y="998" type="qcurve"/>
      <point x="674" y="998" type="line"/>
      <point x="674" y="998"/>
      <point x="674" y="998"/>
      <point x="674" y="998" type="qcurve"/>
      <point x="674" y="566" type="line"/>
      <point x="342" y="566" type="line" smooth="yes"/>
      <point x="219" y="566"/>
      <point x="46" y="468"/>
      <point x="46" y="322" type="qcurve" smooth="yes"/>
      <point x="46" y="254" type="line" smooth="yes"/>
      <point x="46" y="105"/>
      <point x="218" y="0"/>
    </contour>
    <contour>
      <point x="570" y="32" type="qcurve"/>
      <point x="570" y="534" type="line"/>
      <point x="570" y="534"/>
      <point x="570" y="534"/>
      <point x="570" y="534" type="qcurve"/>
      <point x="674" y="534" type="line"/>
      <point x="674" y="32" type="line"/>
      <point x="570" y="32" type="line"/>
      <point x="570" y="32"/>
      <point x="570" y="32"/>
    </contour>
    <contour>
      <point x="289" y="1129" type="qcurve"/>
      <point x="319" y="1124" type="line"/>
      <point x="324" y="1144"/>
      <point x="356" y="1195"/>
      <point x="407" y="1195" type="qcurve" smooth="yes"/>
      <point x="440" y="1195"/>
      <point x="523" y="1169"/>
      <point x="613" y="1137"/>
      <point x="706" y="1111"/>
      <point x="750" y="1111" type="qcurve" smooth="yes"/>
      <point x="861" y="1111"/>
      <point x="950" y="1293"/>
      <point x="969" y="1438" type="qcurve"/>
      <point x="939" y="1443" type="line"/>
      <point x="934" y="1423"/>
      <point x="902" y="1372"/>
      <point x="851" y="1372" type="qcurve" smooth="yes"/>
      <point x="818" y="1372"/>
      <point x="735" y="1398"/>
      <point x="645" y="1430"/>
      <point x="552" y="1456"/>
      <point x="508" y="1456" type="qcurve" smooth="yes"/>
      <point x="397" y="1456"/>
      <point x="309" y="1286"/>
    </contour>
  </outline>
  <guideline angle="90" color="1,0,0,1" x="690" y="0"/>
  <guideline angle="90" x="289" y="0"/>
  <guideline angle="90" x="969" y="0"/>
  <guideline angle="90" x="319" y="0"/>
  <guideline angle="90" x="939" y="0"/>
</glyph>
<glyph name="aring" format="2">
  <advance width="1286"/>
  <unicode hex="00E5"/>
  <anchor x="629" y="1594" name="top"/>
  <anchor x="632" y="-162" name="bottom"/>
  <anchor x="711" y="0" name="ogonek"/>
  <outline>
    <contour>
      <point x="342" y="0" type="qcurve" smooth="yes"/>
      <point x="598" y="0" type="line" smooth="yes"/>
      <point x="625" y="0"/>
      <point x="663" y="14"/>
      <point x="674" y="28" type="qcurve"/>
      <point x="674" y="0" type="line"/>
      <point x="1198" y="0" type="line"/>
      <point x="1198" y="754" type="line" smooth="yes"/>
      <point x="1198" y="923"/>
      <point x="1035" y="1030"/>
      <point x="902" y="1030" type="qcurve" smooth="yes"/>
      <point x="376" y="1030" type="line" smooth="yes"/>
      <point x="243" y="1030"/>
      <point x="80" y="919"/>
      <point x="80" y="770" type="qcurve" smooth="yes"/>
      <point x="80" y="756" type="line"/>
      <point x="584" y="664" type="line"/>
      <point x="584" y="998" type="line"/>
      <point x="584" y="998"/>
      <point x="584" y="998"/>
      <point x="584" y="998" type="qcurve"/>
      <point x="674" y="998" type="line"/>
      <point x="674" y="998"/>
      <point x="674" y="998"/>
      <point x="674" y="998" type="qcurve"/>
      <point x="674" y="566" type="line"/>
      <point x="342" y="566" type="line" smooth="yes"/>
      <point x="219" y="566"/>
      <point x="46" y="468"/>
      <point x="46" y="322" type="qcurve" smooth="yes"/>
      <point x="46" y="254" type="line" smooth="yes"/>
      <point x="46" y="105"/>
      <point x="218" y="0"/>
    </contour>
    <contour>
      <point x="570" y="32" type="qcurve"/>
      <point x="570" y="534" type="line"/>
      <point x="570" y="534"/>
      <point x="570" y="534"/>
      <point x="570" y="534" type="qcurve"/>
      <point x="674" y="534" type="line"/>
      <point x="674" y="32" type="line"/>
      <point x="570" y="32" type="line"/>
      <point x="570" y="32"/>
      <point x="570" y="32"/>
    </contour>
    <contour>
      <point x="629" y="1098" type="qcurve" smooth="yes"/>
      <point x="713" y="1098"/>
      <point x="817" y="1109"/>
      <point x="874" y="1146"/>
      <point x="893" y="1219"/>
      <point x="893" y="1281" type="qcurve" smooth="yes"/>
      <point x="893" y="1343"/>
      <point x="874" y="1416"/>
      <point x="817" y="1454"/>
      <point x="713" y="1464"/>
      <point x="629" y="1464" type="qcurve" smooth="yes"/>
      <point x="545" y="1464"/>
      <point x="442" y="1454"/>
      <point x="385" y="1416"/>
      <point x="365" y="1343"/>
      <point x="365" y="1281" type="qcurve" smooth="yes"/>
      <point x="365" y="1219"/>
      <point x="385" y="1146"/>
      <point x="442" y="1109"/>
      <point x="545" y="1098"/>
    </contour>
    <contour>
      <point x="629" y="1126" type="qcurve" smooth="yes"/>
      <point x="596" y="1126"/>
      <point x="579" y="1178"/>
      <point x="579" y="1281" type="qcurve" smooth="yes"/>
      <point x="579" y="1386"/>
      <point x="596" y="1436"/>
      <point x="629" y="1436" type="qcurve" smooth="yes"/>
      <point x="662" y="1436"/>
      <point x="679" y="1386"/>
      <point x="679" y="1281" type="qcurve" smooth="yes"/>
      <point x="679" y="1178"/>
      <point x="662" y="1126"/>
    </contour>
  </outline>
  <guideline angle="90" color="1,0,0,1" x="690" y="0"/>
</glyph>
<glyph name="ae" format="2">
  <advance width="1890"/>
  <unicode hex="00E6"/>
  <anchor x="969" y="1174" name="top"/>
  <anchor x="949" y="-150" name="bottom"/>
  <outline>
    <contour>
      <point x="384" y="-6" type="qcurve" smooth="yes"/>
      <point x="680" y="-6" type="line" smooth="yes"/>
      <point x="768" y="-6"/>
      <point x="904" y="35"/>
      <point x="949" y="78" type="qcurve"/>
      <point x="992" y="36"/>
      <point x="1121" y="-6"/>
      <point x="1204" y="-6" type="qcurve" smooth="yes"/>
      <point x="1453" y="-6" type="line" smooth="yes"/>
      <point x="1518" y="-6"/>
      <point x="1651" y="13"/>
      <point x="1760" y="64"/>
      <point x="1829" y="154"/>
      <point x="1829" y="226" type="qcurve" smooth="yes"/>
      <point x="1829" y="268" type="line"/>
      <point x="1310" y="336" type="line"/>
      <point x="1310" y="26" type="line"/>
      <point x="1310" y="26"/>
      <point x="1310" y="26"/>
      <point x="1310" y="26" type="qcurve"/>
      <point x="1204" y="26" type="line"/>
      <point x="1204" y="26"/>
      <point x="1204" y="26"/>
      <point x="1204" y="26" type="qcurve"/>
      <point x="1204" y="499" type="line"/>
      <point x="1834" y="499" type="line"/>
      <point x="1834" y="733" type="line" smooth="yes"/>
      <point x="1834" y="817"/>
      <point x="1761" y="930"/>
      <point x="1649" y="1000"/>
      <point x="1514" y="1030"/>
      <point x="1452" y="1030" type="qcurve" smooth="yes"/>
      <point x="1204" y="1030" type="line" smooth="yes"/>
      <point x="1121" y="1030"/>
      <point x="992" y="990"/>
      <point x="950" y="949" type="qcurve"/>
      <point x="905" y="991"/>
      <point x="768" y="1030"/>
      <point x="680" y="1030" type="qcurve" smooth="yes"/>
      <point x="414" y="1030" type="line" smooth="yes"/>
      <point x="352" y="1030"/>
      <point x="224" y="1012"/>
      <point x="121" y="964"/>
      <point x="56" y="877"/>
      <point x="56" y="808" type="qcurve" smooth="yes"/>
      <point x="56" y="762" type="line"/>
      <point x="580" y="696" type="line"/>
      <point x="580" y="998" type="line"/>
      <point x="580" y="998"/>
      <point x="580" y="998"/>
      <point x="580" y="998" type="qcurve"/>
      <point x="680" y="998" type="line"/>
      <point x="680" y="998"/>
      <point x="680" y="998"/>
      <point x="680" y="998" type="qcurve"/>
      <point x="680" y="562" type="line"/>
      <point x="384" y="562" type="line" smooth="yes"/>
      <point x="318" y="562"/>
      <point x="196" y="546"/>
      <point x="102" y="498"/>
      <point x="46" y="411"/>
      <point x="46" y="340" type="qcurve" smooth="yes"/>
      <point x="46" y="226" type="line" smooth="yes"/>
      <point x="46" y="154"/>
      <point x="103" y="64"/>
      <point x="197" y="13"/>
      <point x="319" y="-6"/>
    </contour>
    <contour>
      <point x="570" y="26" type="line"/>
      <point x="570" y="26"/>
      <point x="570" y="26"/>
      <point x="570" y="26" type="qcurve"/>
      <point x="570" y="530" type="line"/>
      <point x="570" y="530"/>
      <point x="570" y="530"/>
      <point x="570" y="530" type="qcurve"/>
      <point x="678" y="530" type="line"/>
      <point x="678" y="26" type="line"/>
      <point x="678" y="26"/>
      <point x="678" y="26"/>
      <point x="678" y="26" type="qcurve"/>
    </contour>
    <contour>
      <point x="1202" y="531" type="line"/>
      <point x="1202" y="998" type="line"/>
      <point x="1202" y="998"/>
      <point x="1202" y="998"/>
      <point x="1202" y="998" type="qcurve"/>
      <point x="1310" y="998" type="line"/>
      <point x="1310" y="998"/>
      <point x="1310" y="998"/>
      <point x="1310" y="998" type="qcurve"/>
      <point x="1310" y="531" type="line"/>
    </contour>
  </outline>
</glyph>
<glyph name="ccedilla" format="2">
  <advance width="1250"/>
  <unicode hex="00E7"/>
  <anchor x="632" y="1174" name="top"/>
  <anchor x="632" y="-150" name="bottom"/>
  <anchor x="632" y="0" name="ogrev"/>
  <outline>
    <contour>
      <point x="56" y="264" type="line" smooth="yes"/>
      <point x="56" y="118"/>
      <point x="202" y="-6"/>
      <point x="380" y="-6" type="qcurve" smooth="yes"/>
      <point x="884" y="-6" type="line" smooth="yes"/>
      <point x="1062" y="-6"/>
      <point x="1208" y="118"/>
      <point x="1208" y="264" type="qcurve" smooth="yes"/>
      <point x="1208" y="366" type="line"/>
      <point x="684" y="474" type="line"/>
      <point x="684" y="26" type="line"/>
      <point x="684" y="26"/>
      <point x="684" y="26"/>
      <point x="684" y="26" type="qcurve"/>
      <point x="580" y="26" type="line"/>
      <point x="580" y="26"/>
      <point x="580" y="26"/>
      <point x="580" y="26" type="qcurve"/>
      <point x="580" y="998" type="line"/>
      <point x="580" y="998"/>
      <point x="580" y="998"/>
      <point x="580" y="998" type="qcurve"/>
      <point x="680" y="998" type="line"/>
      <point x="680" y="998"/>
      <point x="680" y="998"/>
      <point x="680" y="998" type="qcurve"/>
      <point x="680" y="552" type="line"/>
      <point x="1204" y="650" type="line"/>
      <point x="1204" y="774" type="line" smooth="yes"/>
      <point x="1204" y="913"/>
      <point x="1057" y="1030"/>
      <point x="882" y="1030" type="qcurve" smooth="yes"/>
      <point x="382" y="1030" type="line" smooth="yes"/>
      <point x="207" y="1030"/>
      <point x="56" y="910"/>
      <point x="56" y="770" type="qcurve" smooth="yes"/>
    </contour>
    <contour>
      <point x="642" y="-438" type="qcurve" smooth="yes"/>
      <point x="739" y="-438"/>
      <point x="830" y="-355"/>
      <point x="830" y="-268" type="qcurve" smooth="yes"/>
      <point x="830" y="-171"/>
      <point x="715" y="-78"/>
      <point x="599" y="-78" type="qcurve"/>
      <point x="648" y="15" type="line"/>
      <point x="632" y="15" type="line"/>
      <point x="616" y="15" type="line"/>
      <point x="549" y="-112" type="line"/>
      <point x="554" y="-110"/>
      <point x="566" y="-108"/>
      <point x="573" y="-108" type="qcurve" smooth="yes"/>
      <point x="611" y="-108"/>
      <point x="648" y="-178"/>
      <point x="648" y="-248" type="qcurve" smooth="yes"/>
      <point x="648" y="-322"/>
      <point x="608" y="-397"/>
      <point x="568" y="-397" type="qcurve" smooth="yes"/>
      <point x="551" y="-397"/>
      <point x="513" y="-384"/>
      <point x="493" y="-373" type="qcurve"/>
      <point x="481" y="-398" type="line"/>
      <point x="510" y="-418"/>
      <point x="593" y="-438"/>
    </contour>
  </outline>
  <guideline angle="0" x="0" y="25"/>
</glyph>
<glyph name="egrave" format="2">
  <advance width="1260"/>
  <unicode hex="00E8"/>
  <anchor x="620" y="1174" name="top"/>
  <anchor x="620" y="-150" name="bottom"/>
  <anchor x="620" y="0" name="ogonek"/>
  <outline>
    <contour>
      <point x="56" y="304" type="line" smooth="yes"/>
      <point x="56" y="141.006"/>
      <point x="236.675" y="-6"/>
      <point x="454" y="-6" type="qcurve" smooth="yes"/>
      <point x="786" y="-6" type="line" smooth="yes"/>
      <point x="1003.32" y="-6"/>
      <point x="1204" y="105.571"/>
      <point x="1204" y="258" type="qcurve" smooth="yes"/>
      <point x="1204" y="270" type="line"/>
      <point x="680" y="368" type="line"/>
      <point x="680" y="26" type="line"/>
      <point x="680" y="26"/>
      <point x="680" y="26"/>
      <point x="680" y="26" type="qcurve"/>
      <point x="580" y="26" type="line"/>
      <point x="580" y="26"/>
      <point x="580" y="26"/>
      <point x="580" y="26" type="qcurve"/>
      <point x="580" y="516" type="line"/>
      <point x="1204" y="516" type="line"/>
      <point x="1204" y="730" type="line" smooth="yes"/>
      <point x="1204" y="888.466"/>
      <point x="1003.32" y="1030"/>
      <point x="786" y="1030" type="qcurve" smooth="yes"/>
      <point x="454" y="1030" type="line" smooth="yes"/>
      <point x="238.184" y="1030"/>
      <point x="56" y="886.957"/>
      <point x="56" y="730" type="qcurve" smooth="yes"/>
    </contour>
    <contour>
      <point x="580" y="548" type="line"/>
      <point x="580" y="998" type="line"/>
      <point x="580" y="998"/>
      <point x="580" y="998"/>
      <point x="580" y="998" type="qcurve"/>
      <point x="680" y="998" type="line"/>
      <point x="680" y="998"/>
      <point x="680" y="998"/>
      <point x="680" y="998" type="qcurve"/>
      <point x="680" y="548" type="line"/>
    </contour>
    <contour>
      <point x="702" y="1100" type="line"/>
      <point x="738" y="1100" type="line"/>
      <point x="645" y="1448" type="line"/>
      <point x="94" y="1448" type="line"/>
    </contour>
  </outline>
  <guideline angle="0" color="1,0,0,1" x="0" y="-1030"/>
</glyph>
<glyph name="edieresis" format="2">
  <advance width="1260"/>
  <unicode hex="00EB"/>
  <anchor x="620" y="1537" name="top"/>
  <anchor x="620" y="-150" name="bottom"/>
  <anchor x="620" y="0" name="ogonek"/>
  <outline>
    <contour>
      <point x="56" y="304" type="line" smooth="yes"/>
      <point x="56" y="141.006"/>
      <point x="236.675" y="-6"/>
      <point x="454" y="-6" type="qcurve" smooth="yes"/>
      <point x="786" y="-6" type="line" smooth="yes"/>
      <point x="1003.32" y="-6"/>
      <point x="1204" y="105.571"/>
      <point x="1204" y="258" type="qcurve" smooth="yes"/>
      <point x="1204" y="270" type="line"/>
      <point x="680" y="368" type="line"/>
      <point x="680" y="26" type="line"/>
      <point x="680" y="26"/>
      <point x="680" y="26"/>
      <point x="680" y="26" type="qcurve"/>
      <point x="580" y="26" type="line"/>
      <point x="580" y="26"/>
      <point x="580" y="26"/>
      <point x="580" y="26" type="qcurve"/>
      <point x="580" y="516" type="line"/>
      <point x="1204" y="516" type="line"/>
      <point x="1204" y="730" type="line" smooth="yes"/>
      <point x="1204" y="888.466"/>
      <point x="1003.32" y="1030"/>
      <point x="786" y="1030" type="qcurve" smooth="yes"/>
      <point x="454" y="1030" type="line" smooth="yes"/>
      <point x="238.184" y="1030"/>
      <point x="56" y="886.957"/>
      <point x="56" y="730" type="qcurve" smooth="yes"/>
    </contour>
    <contour>
      <point x="580" y="548" type="line"/>
      <point x="580" y="998" type="line"/>
      <point x="580" y="998"/>
      <point x="580" y="998"/>
      <point x="580" y="998" type="qcurve"/>
      <point x="680" y="998" type="line"/>
      <point x="680" y="998"/>
      <point x="680" y="998"/>
      <point x="680" y="998" type="qcurve"/>
      <point x="680" y="548" type="line"/>
    </contour>
    <contour>
      <point x="294" y="1112" type="qcurve" smooth="yes"/>
      <point x="426" y="1112" type="line" smooth="yes"/>
      <point x="507.497" y="1112"/>
      <point x="536" y="1140.5"/>
      <point x="536" y="1222" type="qcurve" smooth="yes"/>
      <point x="536" y="1344" type="line" smooth="yes"/>
      <point x="536" y="1423.99"/>
      <point x="507.497" y="1452"/>
      <point x="426" y="1452" type="qcurve" smooth="yes"/>
      <point x="294" y="1452" type="line" smooth="yes"/>
      <point x="212.503" y="1452"/>
      <point x="184" y="1423.99"/>
      <point x="184" y="1344" type="qcurve" smooth="yes"/>
      <point x="184" y="1222" type="line" smooth="yes"/>
      <point x="184" y="1140.5"/>
      <point x="212.503" y="1112"/>
    </contour>
    <contour>
      <point x="814" y="1112" type="qcurve" smooth="yes"/>
      <point x="946" y="1112" type="line" smooth="yes"/>
      <point x="1027.5" y="1112"/>
      <point x="1056" y="1140.5"/>
      <point x="1056" y="1222" type="qcurve" smooth="yes"/>
      <point x="1056" y="1344" type="line" smooth="yes"/>
      <point x="1056" y="1423.99"/>
      <point x="1027.5" y="1452"/>
      <point x="946" y="1452" type="qcurve" smooth="yes"/>
      <point x="814" y="1452" type="line" smooth="yes"/>
      <point x="732.503" y="1452"/>
      <point x="704" y="1423.99"/>
      <point x="704" y="1344" type="qcurve" smooth="yes"/>
      <point x="704" y="1222" type="line" smooth="yes"/>
      <point x="704" y="1140.5"/>
      <point x="732.503" y="1112"/>
    </contour>
  </outline>
  <guideline angle="0" color="1,0,0,1" x="0" y="-1030"/>
</glyph>
<glyph name="igrave" format="2">
  <advance width="668"/>
  <unicode hex="00EC"/>
  <anchor x="334" y="-150" name="bottom"/>
  <anchor x="334" y="1174" name="top"/>
  <anchor x="109" y="0" name="ogonek"/>
  <outline>
    <contour>
      <point x="72" y="0" type="line"/>
      <point x="596" y="0" type="line"/>
      <point x="596" y="1024" type="line"/>
      <point x="72" y="1024" type="line"/>
    </contour>
    <contour>
      <point x="452" y="1100" type="line"/>
      <point x="359" y="1448" type="line"/>
      <point x="-192" y="1448" type="line"/>
      <point x="416" y="1100" type="line"/>
    </contour>
  </outline>
</glyph>
<glyph name="iacute" format="2">
  <advance width="668"/>
  <unicode hex="00ED"/>
  <anchor x="334" y="-150" name="bottom"/>
  <anchor x="334" y="1174" name="top"/>
  <anchor x="109" y="0" name="ogonek"/>
  <outline>
    <contour>
      <point x="72" y="0" type="line"/>
      <point x="596" y="0" type="line"/>
      <point x="596" y="1024" type="line"/>
      <point x="72" y="1024" type="line"/>
    </contour>
    <contour>
      <point x="216" y="1100" type="line"/>
      <point x="252" y="1100" type="line"/>
      <point x="860" y="1448" type="line"/>
      <point x="309" y="1448" type="line"/>
    </contour>
  </outline>
</glyph>
<glyph name="icircumflex" format="2">
  <advance width="668"/>
  <unicode hex="00EE"/>
  <anchor x="334" y="-150" name="bottom"/>
  <anchor x="334" y="1572" name="top"/>
  <anchor x="72" y="0" name="ogonek"/>
  <anchor x="690" y="1298" name="topright"/>
  <outline>
    <contour>
      <point x="72" y="0" type="line"/>
      <point x="596" y="0" type="line"/>
      <point x="596" y="1024" type="line"/>
      <point x="72" y="1024" type="line"/>
    </contour>
    <contour>
      <point x="14" y="1124" type="line"/>
      <point x="49" y="1124" type="line"/>
      <point x="187" y="1435" type="line"/>
      <point x="336" y="1124" type="line"/>
      <point x="690" y="1124" type="line"/>
      <point x="483" y="1472" type="line"/>
      <point x="169" y="1472" type="line"/>
    </contour>
  </outline>
</glyph>
<glyph name="idieresis" format="2">
  <advance width="668"/>
  <unicode hex="00EF"/>
  <anchor x="334" y="-150" name="bottom"/>
  <anchor x="334" y="1537" name="top"/>
  <anchor x="72" y="0" name="ogonek"/>
  <outline>
    <contour>
      <point x="72" y="0" type="line"/>
      <point x="596" y="0" type="line"/>
      <point x="596" y="1024" type="line"/>
      <point x="72" y="1024" type="line"/>
    </contour>
    <contour>
      <point x="8" y="1112" type="qcurve" smooth="yes"/>
      <point x="140" y="1112" type="line" smooth="yes"/>
      <point x="221.497" y="1112"/>
      <point x="250" y="1140.5"/>
      <point x="250" y="1222" type="qcurve" smooth="yes"/>
      <point x="250" y="1344" type="line" smooth="yes"/>
      <point x="250" y="1423.99"/>
      <point x="221.497" y="1452"/>
      <point x="140" y="1452" type="qcurve" smooth="yes"/>
      <point x="8" y="1452" type="line" smooth="yes"/>
      <point x="-73.4968" y="1452"/>
      <point x="-102" y="1423.99"/>
      <point x="-102" y="1344" type="qcurve" smooth="yes"/>
      <point x="-102" y="1222" type="line" smooth="yes"/>
      <point x="-102" y="1140.5"/>
      <point x="-73.4968" y="1112"/>
    </contour>
    <contour>
      <point x="528" y="1112" type="qcurve" smooth="yes"/>
      <point x="660" y="1112" type="line" smooth="yes"/>
      <point x="741.497" y="1112"/>
      <point x="770" y="1140.5"/>
      <point x="770" y="1222" type="qcurve" smooth="yes"/>
      <point x="770" y="1344" type="line" smooth="yes"/>
      <point x="770" y="1423.99"/>
      <point x="741.497" y="1452"/>
      <point x="660" y="1452" type="qcurve" smooth="yes"/>
      <point x="528" y="1452" type="line" smooth="yes"/>
      <point x="446.503" y="1452"/>
      <point x="418" y="1423.99"/>
      <point x="418" y="1344" type="qcurve" smooth="yes"/>
      <point x="418" y="1222" type="line" smooth="yes"/>
      <point x="418" y="1140.5"/>
      <point x="446.503" y="1112"/>
    </contour>
  </outline>
</glyph>
<glyph name="eth" format="2">
  <advance width="1338"/>
  <unicode hex="00F0"/>
  <outline>
    <contour>
      <point x="362" y="-6" type="qcurve" smooth="yes"/>
      <point x="898" y="-6" type="line" smooth="yes"/>
      <point x="1060.99" y="-6"/>
      <point x="1204" y="119.154"/>
      <point x="1204" y="258" type="qcurve" smooth="yes"/>
      <point x="1204" y="610" type="line" smooth="yes"/>
      <point x="1204" y="852.981"/>
      <point x="1092.19" y="1189.87"/>
      <point x="979" y="1294" type="qcurve"/>
      <point x="1282" y="1358" type="line"/>
      <point x="1275" y="1390" type="line"/>
      <point x="947" y="1321" type="line"/>
      <point x="878.331" y="1375.33"/>
      <point x="705.644" y="1442.91"/>
      <point x="600" y="1458" type="qcurve"/>
      <point x="244" y="1328" type="line"/>
      <point x="327.006" y="1311.4"/>
      <point x="453.215" y="1260.2"/>
      <point x="500" y="1227" type="qcurve"/>
      <point x="218" y="1168" type="line"/>
      <point x="225" y="1136" type="line"/>
      <point x="534" y="1201" type="line"/>
      <point x="578.521" y="1163.27"/>
      <point x="635.399" y="1076.79"/>
      <point x="652" y="1030" type="qcurve"/>
      <point x="362" y="1030" type="line" smooth="yes"/>
      <point x="202.025" y="1030"/>
      <point x="56" y="907.3"/>
      <point x="56" y="776" type="qcurve" smooth="yes"/>
      <point x="56" y="258" type="line" smooth="yes"/>
      <point x="56" y="119.154"/>
      <point x="200.516" y="-6"/>
    </contour>
    <contour>
      <point x="662" y="998" type="line"/>
      <point x="671.81" y="960.27"/>
      <point x="680" y="883.73"/>
      <point x="680" y="846" type="qcurve" smooth="yes"/>
      <point x="680" y="26" type="line"/>
      <point x="680" y="26"/>
      <point x="680" y="26"/>
      <point x="680" y="26" type="qcurve"/>
      <point x="580" y="26" type="line"/>
      <point x="580" y="26"/>
      <point x="580" y="26"/>
      <point x="580" y="26" type="qcurve"/>
      <point x="580" y="998" type="line"/>
      <point x="580" y="998"/>
      <point x="580" y="998"/>
      <point x="580" y="998" type="qcurve"/>
    </contour>
  </outline>
</glyph>
<glyph name="ntilde" format="2">
  <advance width="1284"/>
  <unicode hex="00F1"/>
  <anchor x="646" y="1531" name="top"/>
  <anchor x="646" y="-150" name="bottom"/>
  <outline>
    <contour>
      <point x="72" y="0" type="line"/>
      <point x="596" y="0" type="line"/>
      <point x="596" y="992" type="line"/>
      <point x="696" y="992" type="line"/>
      <point x="696" y="992"/>
      <point x="696" y="992"/>
      <point x="696" y="992" type="qcurve"/>
      <point x="696" y="0" type="line"/>
      <point x="1220" y="0" type="line"/>
      <point x="1220" y="724" type="line" smooth="yes"/>
      <point x="1220" y="879"/>
      <point x="1049" y="1024"/>
      <point x="854" y="1024" type="qcurve" smooth="yes"/>
      <point x="672" y="1024" type="line" smooth="yes"/>
      <point x="645" y="1024"/>
      <point x="607" y="1010"/>
      <point x="596" y="996" type="qcurve"/>
      <point x="596" y="1024" type="line"/>
      <point x="72" y="1024" type="line"/>
    </contour>
    <contour>
      <point x="306" y="1129" type="qcurve"/>
      <point x="336" y="1124" type="line"/>
      <point x="341" y="1144"/>
      <point x="373" y="1195"/>
      <point x="424" y="1195" type="qcurve" smooth="yes"/>
      <point x="457" y="1195"/>
      <point x="540" y="1169"/>
      <point x="630" y="1137"/>
      <point x="723" y="1111"/>
      <point x="767" y="1111" type="qcurve" smooth="yes"/>
      <point x="878" y="1111"/>
      <point x="967" y="1293"/>
      <point x="986" y="1438" type="qcurve"/>
      <point x="956" y="1443" type="line"/>
      <point x="951" y="1423"/>
      <point x="919" y="1372"/>
      <point x="868" y="1372" type="qcurve" smooth="yes"/>
      <point x="835" y="1372"/>
      <point x="752" y="1398"/>
      <point x="662" y="1430"/>
      <point x="569" y="1456"/>
      <point x="525" y="1456" type="qcurve" smooth="yes"/>
      <point x="414" y="1456"/>
      <point x="326" y="1286"/>
    </contour>
  </outline>
  <guideline angle="0" x="0" y="988"/>
  <guideline angle="0" x="0" y="870"/>
  <guideline angle="90" x="306" y="0"/>
  <guideline angle="90" x="986" y="0"/>
  <guideline angle="90" x="336" y="0"/>
  <guideline angle="90" x="956" y="0"/>
</glyph>
<glyph name="ograve" format="2">
  <advance width="1260"/>
  <unicode hex="00F2"/>
  <anchor x="630" y="1174" name="top"/>
  <anchor x="630" y="-150" name="bottom"/>
  <anchor x="1126" y="958" name="horn"/>
  <anchor x="649" y="0" name="ogonek"/>
  <outline>
    <contour>
      <point x="56" y="258" type="line" smooth="yes"/>
      <point x="56" y="119"/>
      <point x="201" y="-6"/>
      <point x="362" y="-6" type="qcurve" smooth="yes"/>
      <point x="898" y="-6" type="line" smooth="yes"/>
      <point x="1061" y="-6"/>
      <point x="1204" y="119"/>
      <point x="1204" y="258" type="qcurve" smooth="yes"/>
      <point x="1204" y="776" type="line" smooth="yes"/>
      <point x="1204" y="907"/>
      <point x="1058" y="1030"/>
      <point x="898" y="1030" type="qcurve" smooth="yes"/>
      <point x="362" y="1030" type="line" smooth="yes"/>
      <point x="202" y="1030"/>
      <point x="56" y="907"/>
      <point x="56" y="776" type="qcurve" smooth="yes"/>
    </contour>
    <contour>
      <point x="580" y="26" type="qcurve"/>
      <point x="580" y="998" type="line"/>
      <point x="580" y="998"/>
      <point x="580" y="998"/>
      <point x="580" y="998" type="qcurve"/>
      <point x="680" y="998" type="line"/>
      <point x="680" y="998"/>
      <point x="680" y="998"/>
      <point x="680" y="998" type="qcurve"/>
      <point x="680" y="26" type="line"/>
      <point x="680" y="26"/>
      <point x="680" y="26"/>
      <point x="680" y="26" type="qcurve"/>
      <point x="580" y="26" type="line"/>
      <point x="580" y="26"/>
      <point x="580" y="26"/>
    </contour>
    <contour>
      <point x="712" y="1100" type="line"/>
      <point x="748" y="1100" type="line"/>
      <point x="655" y="1448" type="line"/>
      <point x="104" y="1448" type="line"/>
    </contour>
  </outline>
</glyph>
<glyph name="ocircumflex" format="2">
  <advance width="1260"/>
  <unicode hex="00F4"/>
  <anchor x="630" y="1572" name="top"/>
  <anchor x="630" y="-150" name="bottom"/>
  <anchor x="1204" y="776" name="horn"/>
  <anchor x="649" y="0" name="ogonek"/>
  <anchor x="986" y="1298" name="topright"/>
  <outline>
    <contour>
      <point x="56" y="258" type="line" smooth="yes"/>
      <point x="56" y="119.154"/>
      <point x="200.516" y="-6"/>
      <point x="362" y="-6" type="qcurve" smooth="yes"/>
      <point x="898" y="-6" type="line" smooth="yes"/>
      <point x="1060.99" y="-6"/>
      <point x="1204" y="119.154"/>
      <point x="1204" y="258" type="qcurve" smooth="yes"/>
      <point x="1204" y="776" type="line" smooth="yes"/>
      <point x="1204" y="907.3"/>
      <point x="1057.98" y="1030"/>
      <point x="898" y="1030" type="qcurve" smooth="yes"/>
      <point x="362" y="1030" type="line" smooth="yes"/>
      <point x="202.025" y="1030"/>
      <point x="56" y="907.3"/>
      <point x="56" y="776" type="qcurve" smooth="yes"/>
    </contour>
    <contour>
      <point x="580" y="26" type="qcurve"/>
      <point x="580" y="998" type="line"/>
      <point x="580" y="998"/>
      <point x="580" y="998"/>
      <point x="580" y="998" type="qcurve"/>
      <point x="680" y="998" type="line"/>
      <point x="680" y="998"/>
      <point x="680" y="998"/>
      <point x="680" y="998" type="qcurve"/>
      <point x="680" y="26" type="line"/>
      <point x="680" y="26"/>
      <point x="680" y="26"/>
      <point x="680" y="26" type="qcurve"/>
      <point x="580" y="26" type="line"/>
      <point x="580" y="26"/>
      <point x="580" y="26"/>
    </contour>
    <contour>
      <point x="310" y="1124" type="line"/>
      <point x="345" y="1124" type="line"/>
      <point x="483" y="1435" type="line"/>
      <point x="632" y="1124" type="line"/>
      <point x="986" y="1124" type="line"/>
      <point x="779" y="1472" type="line"/>
      <point x="465" y="1472" type="line"/>
    </contour>
  </outline>
</glyph>
<glyph name="divide" format="2">
  <advance width="590"/>
  <unicode hex="00F7"/>
  <outline>
    <contour>
      <point x="258" y="793" type="line"/>
      <point x="258" y="842" type="line" smooth="yes"/>
      <point x="258" y="849"/>
      <point x="259" y="858"/>
      <point x="262" y="862"/>
      <point x="268" y="864"/>
      <point x="272" y="864" type="qcurve" smooth="yes"/>
      <point x="317" y="864" type="line" smooth="yes"/>
      <point x="322" y="864"/>
      <point x="328" y="862"/>
      <point x="331" y="858"/>
      <point x="332" y="849"/>
      <point x="332" y="842" type="qcurve" smooth="yes"/>
      <point x="332" y="793" type="line" smooth="yes"/>
      <point x="332" y="786"/>
      <point x="331" y="776"/>
      <point x="328" y="772"/>
      <point x="322" y="770"/>
      <point x="317" y="770" type="qcurve" smooth="yes"/>
      <point x="272" y="770" type="line" smooth="yes"/>
      <point x="268" y="770"/>
      <point x="262" y="772"/>
      <point x="259" y="776"/>
      <point x="258" y="786"/>
      <point x="258" y="793" type="qcurve"/>
    </contour>
    <contour>
      <point x="52" y="569" type="line"/>
      <point x="52" y="605" type="line"/>
      <point x="538" y="605" type="line"/>
      <point x="538" y="569" type="line"/>
    </contour>
    <contour>
      <point x="258" y="327" type="line"/>
      <point x="258" y="376" type="line" smooth="yes"/>
      <point x="258" y="383"/>
      <point x="259" y="392"/>
      <point x="262" y="396"/>
      <point x="268" y="398"/>
      <point x="272" y="398" type="qcurve" smooth="yes"/>
      <point x="317" y="398" type="line" smooth="yes"/>
      <point x="322" y="398"/>
      <point x="328" y="396"/>
      <point x="331" y="392"/>
      <point x="332" y="383"/>
      <point x="332" y="376" type="qcurve" smooth="yes"/>
      <point x="332" y="327" type="line" smooth="yes"/>
      <point x="332" y="320"/>
      <point x="331" y="310"/>
      <point x="328" y="306"/>
      <point x="322" y="304"/>
      <point x="317" y="304" type="qcurve" smooth="yes"/>
      <point x="272" y="304" type="line" smooth="yes"/>
      <point x="268" y="304"/>
      <point x="262" y="306"/>
      <point x="259" y="310"/>
      <point x="258" y="320"/>
      <point x="258" y="327" type="qcurve"/>
    </contour>
  </outline>
</glyph>
<glyph name="oslash" format="2">
  <advance width="1270"/>
  <unicode hex="00F8"/>
  <anchor x="635" y="1174" name="top"/>
  <outline>
    <contour>
      <point x="61" y="258" type="line" smooth="yes"/>
      <point x="61" y="119.154"/>
      <point x="205.516" y="-6"/>
      <point x="367" y="-6" type="qcurve" smooth="yes"/>
      <point x="903" y="-6" type="line" smooth="yes"/>
      <point x="1065.99" y="-6"/>
      <point x="1209" y="119.154"/>
      <point x="1209" y="258" type="qcurve" smooth="yes"/>
      <point x="1209" y="776" type="line" smooth="yes"/>
      <point x="1209" y="907.3"/>
      <point x="1062.98" y="1030"/>
      <point x="903" y="1030" type="qcurve" smooth="yes"/>
      <point x="367" y="1030" type="line" smooth="yes"/>
      <point x="207.025" y="1030"/>
      <point x="61" y="907.3"/>
      <point x="61" y="776" type="qcurve" smooth="yes"/>
    </contour>
    <contour>
      <point x="585" y="26" type="qcurve"/>
      <point x="585" y="998" type="line"/>
      <point x="585" y="998"/>
      <point x="585" y="998"/>
      <point x="585" y="998" type="qcurve"/>
      <point x="685" y="998" type="line"/>
      <point x="685" y="998"/>
      <point x="685" y="998"/>
      <point x="685" y="998" type="qcurve"/>
      <point x="685" y="26" type="line"/>
      <point x="685" y="26"/>
      <point x="685" y="26"/>
      <point x="685" y="26" type="qcurve"/>
      <point x="585" y="26" type="line"/>
      <point x="585" y="26"/>
      <point x="585" y="26"/>
    </contour>
    <contour>
      <point x="36" y="-30" type="line"/>
      <point x="220" y="140" type="line"/>
      <point x="454" y="271" type="line"/>
      <point x="853" y="716" type="line"/>
      <point x="1080" y="872" type="line"/>
      <point x="1254" y="1032" type="line"/>
      <point x="1234" y="1054" type="line"/>
      <point x="1061" y="895" type="line"/>
      <point x="831" y="735" type="line"/>
      <point x="435" y="294" type="line"/>
      <point x="208" y="169" type="line"/>
      <point x="16" y="-8" type="line"/>
    </contour>
  </outline>
  <guideline angle="0" x="0" y="1060"/>
  <guideline angle="0" x="0" y="-60"/>
</glyph>
<glyph name="ugrave" format="2">
  <advance width="1268"/>
  <unicode hex="00F9"/>
  <anchor x="634" y="1174" name="top"/>
  <anchor x="634" y="-150" name="bottom"/>
  <anchor x="633" y="0" name="ogonek"/>
  <anchor x="942" y="1024" name="horn"/>
  <outline>
    <contour>
      <point x="64" y="204" type="line" smooth="yes"/>
      <point x="64" y="77.2272"/>
      <point x="193.301" y="0"/>
      <point x="308" y="0" type="qcurve" smooth="yes"/>
      <point x="958" y="0" type="line" smooth="yes"/>
      <point x="1072.7" y="0"/>
      <point x="1204" y="77.2272"/>
      <point x="1204" y="204" type="qcurve" smooth="yes"/>
      <point x="1204" y="1024" type="line"/>
      <point x="680" y="1024" type="line"/>
      <point x="680" y="32" type="line"/>
      <point x="680" y="32"/>
      <point x="680" y="32"/>
      <point x="680" y="32" type="qcurve"/>
      <point x="588" y="32" type="line"/>
      <point x="588" y="32"/>
      <point x="588" y="32"/>
      <point x="588" y="32" type="qcurve"/>
      <point x="588" y="1024" type="line"/>
      <point x="64" y="1024" type="line"/>
    </contour>
    <contour>
      <point x="716" y="1100" type="line"/>
      <point x="752" y="1100" type="line"/>
      <point x="659" y="1448" type="line"/>
      <point x="108" y="1448" type="line"/>
    </contour>
  </outline>
</glyph>
<glyph name="uacute" format="2">
  <advance width="1268"/>
  <unicode hex="00FA"/>
  <anchor x="634" y="1174" name="top"/>
  <anchor x="634" y="-150" name="bottom"/>
  <anchor x="653" y="0" name="ogonek"/>
  <anchor x="1204" y="1024" name="horn"/>
  <outline>
    <contour>
      <point x="64" y="204" type="line" smooth="yes"/>
      <point x="64" y="77"/>
      <point x="193" y="0"/>
      <point x="308" y="0" type="qcurve" smooth="yes"/>
      <point x="958" y="0" type="line" smooth="yes"/>
      <point x="1073" y="0"/>
      <point x="1204" y="77"/>
      <point x="1204" y="204" type="qcurve" smooth="yes"/>
      <point x="1204" y="1024" type="line"/>
      <point x="680" y="1024" type="line"/>
      <point x="680" y="32" type="line"/>
      <point x="680" y="32"/>
      <point x="680" y="32"/>
      <point x="680" y="32" type="qcurve"/>
      <point x="588" y="32" type="line"/>
      <point x="588" y="32"/>
      <point x="588" y="32"/>
      <point x="588" y="32" type="qcurve"/>
      <point x="588" y="1024" type="line"/>
      <point x="64" y="1024" type="line"/>
    </contour>
    <contour>
      <point x="516" y="1100" type="line"/>
      <point x="552" y="1100" type="line"/>
      <point x="1160" y="1448" type="line"/>
      <point x="609" y="1448" type="line"/>
    </contour>
  </outline>
</glyph>
<glyph name="ucircumflex" format="2">
  <advance width="1268"/>
  <unicode hex="00FB"/>
  <anchor x="634" y="1572" name="top"/>
  <anchor x="634" y="-150" name="bottom"/>
  <anchor x="653" y="0" name="ogonek"/>
  <anchor x="1204" y="1024" name="horn"/>
  <anchor x="990" y="1298" name="topright"/>
  <outline>
    <contour>
      <point x="64" y="204" type="line" smooth="yes"/>
      <point x="64" y="77"/>
      <point x="193" y="0"/>
      <point x="308" y="0" type="qcurve" smooth="yes"/>
      <point x="958" y="0" type="line" smooth="yes"/>
      <point x="1073" y="0"/>
      <point x="1204" y="77"/>
      <point x="1204" y="204" type="qcurve" smooth="yes"/>
      <point x="1204" y="1024" type="line"/>
      <point x="680" y="1024" type="line"/>
      <point x="680" y="32" type="line"/>
      <point x="680" y="32"/>
      <point x="680" y="32"/>
      <point x="680" y="32" type="qcurve"/>
      <point x="588" y="32" type="line"/>
      <point x="588" y="32"/>
      <point x="588" y="32"/>
      <point x="588" y="32" type="qcurve"/>
      <point x="588" y="1024" type="line"/>
      <point x="64" y="1024" type="line"/>
    </contour>
    <contour>
      <point x="314" y="1124" type="line"/>
      <point x="349" y="1124" type="line"/>
      <point x="487" y="1435" type="line"/>
      <point x="636" y="1124" type="line"/>
      <point x="990" y="1124" type="line"/>
      <point x="783" y="1472" type="line"/>
      <point x="469" y="1472" type="line"/>
    </contour>
  </outline>
</glyph>
<glyph name="udieresis" format="2">
  <advance width="1268"/>
  <unicode hex="00FC"/>
  <anchor x="634" y="1537" name="top"/>
  <anchor x="634" y="-150" name="bottom"/>
  <anchor x="653" y="0" name="ogonek"/>
  <anchor x="1204" y="1024" name="horn"/>
  <outline>
    <contour>
      <point x="64" y="204" type="line" smooth="yes"/>
      <point x="64" y="77.2272"/>
      <point x="193.301" y="0"/>
      <point x="308" y="0" type="qcurve" smooth="yes"/>
      <point x="958" y="0" type="line" smooth="yes"/>
      <point x="1072.7" y="0"/>
      <point x="1204" y="77.2272"/>
      <point x="1204" y="204" type="qcurve" smooth="yes"/>
      <point x="1204" y="1024" type="line"/>
      <point x="680" y="1024" type="line"/>
      <point x="680" y="32" type="line"/>
      <point x="680" y="32"/>
      <point x="680" y="32"/>
      <point x="680" y="32" type="qcurve"/>
      <point x="588" y="32" type="line"/>
      <point x="588" y="32"/>
      <point x="588" y="32"/>
      <point x="588" y="32" type="qcurve"/>
      <point x="588" y="1024" type="line"/>
      <point x="64" y="1024" type="line"/>
    </contour>
    <contour>
      <point x="198" y="1222" type="line" smooth="yes"/>
      <point x="198" y="1140.5"/>
      <point x="226.503" y="1112"/>
      <point x="308" y="1112" type="qcurve" smooth="yes"/>
      <point x="440" y="1112" type="line" smooth="yes"/>
      <point x="521.497" y="1112"/>
      <point x="550" y="1140.5"/>
      <point x="550" y="1222" type="qcurve" smooth="yes"/>
      <point x="550" y="1344" type="line" smooth="yes"/>
      <point x="550" y="1423.99"/>
      <point x="521.497" y="1452"/>
      <point x="440" y="1452" type="qcurve" smooth="yes"/>
      <point x="308" y="1452" type="line" smooth="yes"/>
      <point x="226.503" y="1452"/>
      <point x="198" y="1423.99"/>
      <point x="198" y="1344" type="qcurve" smooth="yes"/>
    </contour>
    <contour>
      <point x="718" y="1222" type="line" smooth="yes"/>
      <point x="718" y="1140.5"/>
      <point x="746.503" y="1112"/>
      <point x="828" y="1112" type="qcurve" smooth="yes"/>
      <point x="960" y="1112" type="line" smooth="yes"/>
      <point x="1041.5" y="1112"/>
      <point x="1070" y="1140.5"/>
      <point x="1070" y="1222" type="qcurve" smooth="yes"/>
      <point x="1070" y="1344" type="line" smooth="yes"/>
      <point x="1070" y="1423.99"/>
      <point x="1041.5" y="1452"/>
      <point x="960" y="1452" type="qcurve" smooth="yes"/>
      <point x="828" y="1452" type="line" smooth="yes"/>
      <point x="746.503" y="1452"/>
      <point x="718" y="1423.99"/>
      <point x="718" y="1344" type="qcurve" smooth="yes"/>
    </contour>
  </outline>
</glyph>
<glyph name="ydieresis" format="2">
  <advance width="1060"/>
  <unicode hex="00FF"/>
  <anchor x="530" y="1537" name="top"/>
  <anchor x="872" y="-110" name="bottom"/>
  <outline>
    <contour>
      <point x="14" y="-428" type="line"/>
      <point x="422" y="-428" type="line" smooth="yes"/>
      <point x="455" y="-428"/>
      <point x="496" y="-413"/>
      <point x="524" y="-382"/>
      <point x="547" y="-332"/>
      <point x="560" y="-296" type="qcurve" smooth="yes"/>
      <point x="1060" y="1024" type="line"/>
      <point x="1027" y="1024" type="line"/>
      <point x="761" y="324" type="line"/>
      <point x="540" y="1024" type="line"/>
      <point x="0" y="1024" type="line"/>
      <point x="525" y="-299" type="line"/>
      <point x="523" y="-304" type="line" smooth="yes"/>
      <point x="503" y="-354"/>
      <point x="470" y="-396"/>
      <point x="422" y="-396" type="qcurve" smooth="yes"/>
      <point x="7" y="-396" type="line"/>
    </contour>
    <contour>
      <point x="204" y="1112" type="qcurve" smooth="yes"/>
      <point x="336" y="1112" type="line" smooth="yes"/>
      <point x="417" y="1112"/>
      <point x="446" y="1141"/>
      <point x="446" y="1222" type="qcurve" smooth="yes"/>
      <point x="446" y="1344" type="line" smooth="yes"/>
      <point x="446" y="1424"/>
      <point x="417" y="1452"/>
      <point x="336" y="1452" type="qcurve" smooth="yes"/>
      <point x="204" y="1452" type="line" smooth="yes"/>
      <point x="123" y="1452"/>
      <point x="94" y="1424"/>
      <point x="94" y="1344" type="qcurve" smooth="yes"/>
      <point x="94" y="1222" type="line" smooth="yes"/>
      <point x="94" y="1141"/>
      <point x="123" y="1112"/>
    </contour>
    <contour>
      <point x="724" y="1112" type="qcurve" smooth="yes"/>
      <point x="856" y="1112" type="line" smooth="yes"/>
      <point x="937" y="1112"/>
      <point x="966" y="1141"/>
      <point x="966" y="1222" type="qcurve" smooth="yes"/>
      <point x="966" y="1344" type="line" smooth="yes"/>
      <point x="966" y="1424"/>
      <point x="937" y="1452"/>
      <point x="856" y="1452" type="qcurve" smooth="yes"/>
      <point x="724" y="1452" type="line" smooth="yes"/>
      <point x="643" y="1452"/>
      <point x="614" y="1424"/>
      <point x="614" y="1344" type="qcurve" smooth="yes"/>
      <point x="614" y="1222" type="line" smooth="yes"/>
      <point x="614" y="1141"/>
      <point x="643" y="1112"/>
    </contour>
  </outline>
</glyph>
